<svg xmlns="http://www.w3.org/2000/svg" width="820" height="184" viewBox="0 0 820 184">
  <g id="Grupo_1108600" data-name="Grupo 1108600" transform="translate(-390 -10853)">
    <g id="Grupo_1108325" data-name="Grupo 1108325" transform="translate(390 10853)">
      <path id="Rectángulo_389225" data-name="Rectángulo 389225" d="M9,0H811a9,9,0,0,1,9,9V55a0,0,0,0,1,0,0H0a0,0,0,0,1,0,0V9A9,9,0,0,1,9,0Z" transform="translate(0)" fill="#3a1d71"/>
      <path id="Rectángulo_389226" data-name="Rectángulo 389226" d="M0,0H820a0,0,0,0,1,0,0V120a9,9,0,0,1-9,9H9a9,9,0,0,1-9-9V0A0,0,0,0,1,0,0Z" transform="translate(0 55)" fill="#110628"/>
      <circle id="Elipse_11380" data-name="Elipse 11380" cx="8" cy="8" r="8" transform="translate(32 19)" fill="#fb130d"/>
      <circle id="Elipse_11381" data-name="Elipse 11381" cx="8" cy="8" r="8" transform="translate(67 19)" fill="#fecd02"/>
      <circle id="Elipse_11382" data-name="Elipse 11382" cx="8" cy="8" r="8" transform="translate(102 19)" fill="#43dfaa"/>
    </g>
    <text id="root_ubuntu-VirtualBox:_home_ubuntuser_repositorioremoto_git_commit_-m_Agregado_readme_En_la_rama_main_Tu_rama_está_actualizada_con_origin_main_." data-name="root@ubuntu-VirtualBox:/home/ubuntuser/repositorioremoto# git commit -m &quot;Agregado readme&quot;
En la rama main
Tu rama está actualizada con &apos;origin/main&apos;." transform="translate(422 10935)" fill="#fff" font-size="16" font-family="Roboto-Regular, Roboto"><tspan x="0" y="15">root@ubuntu-VirtualBox:/home/ubuntuser/repositorioremoto# git commit -m &quot;Agregado readme&quot;</tspan><tspan x="0" y="38">En la rama main</tspan><tspan x="0" y="61">Tu rama está actualizada con </tspan><tspan y="61" fill="#00ffdf">&apos;origin/main&apos;</tspan><tspan y="61">.</tspan></text>
  </g>
</svg>
