<svg xmlns="http://www.w3.org/2000/svg" xmlns:xlink="http://www.w3.org/1999/xlink" width="400" height="300.43" viewBox="0 0 400 300.43">
  <defs>
    <clipPath id="clip-path">
      <rect id="Rectángulo_405535" data-name="Rectángulo 405535" width="70.83" height="103.84" opacity="0.4"/>
    </clipPath>
  </defs>
  <g id="OBJECTS" transform="translate(-28.946 -62.021)">
    <g id="Grupo_1108330" data-name="Grupo 1108330" transform="translate(28.946 62.021)" opacity="0.15">
      <path id="Trazado_903582" data-name="Trazado 903582" d="M372.255,170.253c-49.483-6.661-58.749-52.71-89.041-82.007C248.466,54.637,184.5,51.968,147.8,88.189c-36.724,36.235-3.908,89.419-34.863,126.84-26.843,31.16-88.1,20.407-83.77,80.879,3.2,44.683,38.856,54.779,79.218,55.341,63.577.885,127.8,2.028,191.4.3,97.655-2.651,41.959-48.1,90.726-69.656,56.118-24.806,51.422-115.586-18.252-111.641" transform="translate(-28.946 -62.021)" fill="#90bafd" fill-rule="evenodd"/>
    </g>
    <path id="Trazado_903583" data-name="Trazado 903583" d="M122.161,167.575a4.125,4.125,0,1,1-4.125-4.125A4.124,4.124,0,0,1,122.161,167.575Z" transform="translate(-8.092 -9.66)" fill="none" stroke="#7663b7" stroke-miterlimit="10" stroke-width="1.276"/>
    <path id="Trazado_903584" data-name="Trazado 903584" d="M315.154,108.275a3.3,3.3,0,1,1-3.3-3.3A3.3,3.3,0,0,1,315.154,108.275Z" transform="translate(-26.63 -4.091)" fill="none" stroke="#7663b7" stroke-miterlimit="10" stroke-width="1.276"/>
    <path id="Trazado_903585" data-name="Trazado 903585" d="M445.833,271.016a4.537,4.537,0,1,1-4.536-4.536A4.536,4.536,0,0,1,445.833,271.016Z" transform="translate(-38.84 -19.473)" fill="none" stroke="#7663b7" stroke-miterlimit="10" stroke-width="1.276"/>
    <circle id="Elipse_12320" data-name="Elipse 12320" cx="3.712" cy="3.712" r="3.712" transform="translate(56.827 229.67)" fill="none" stroke="#ffba00" stroke-miterlimit="10" stroke-width="1.276"/>
    <path id="Trazado_903586" data-name="Trazado 903586" d="M402.319,210.2a2.887,2.887,0,1,1-2.887-2.886A2.889,2.889,0,0,1,402.319,210.2Z" transform="translate(-35.01 -13.837)" fill="none" stroke="#ffba00" stroke-miterlimit="10" stroke-width="1.276"/>
    <path id="Trazado_903587" data-name="Trazado 903587" d="M188.87,102.167a5.362,5.362,0,1,1-5.363-5.362A5.363,5.363,0,0,1,188.87,102.167Z" transform="translate(-14.21 -3.313)" fill="none" stroke="#ffba00" stroke-miterlimit="10" stroke-width="1.276"/>
    <path id="Trazado_903588" data-name="Trazado 903588" d="M237.239,227.661a3.713,3.713,0,1,1-3.712-3.713A3.712,3.712,0,0,1,237.239,227.661Z" transform="translate(-19.131 -15.422)" fill="none" stroke="#ffba00" stroke-miterlimit="10" stroke-width="1.276"/>
    <path id="Trazado_903589" data-name="Trazado 903589" d="M316.3,245.336a4.125,4.125,0,1,1-4.125-4.124A4.125,4.125,0,0,1,316.3,245.336Z" transform="translate(-26.582 -17.066)" fill="none" stroke="#7663b7" stroke-miterlimit="10" stroke-width="1.276"/>
    <g id="Grupo_1108332" data-name="Grupo 1108332" transform="translate(170.349 125.887)">
      <g id="Grupo_1108331" data-name="Grupo 1108331">
        <path id="Trazado_903590" data-name="Trazado 903590" d="M189.224,140.86c5.32,0,5.32-8.25,0-8.25s-5.32,8.25,0,8.25Z" transform="translate(-185.234 -132.61)" fill="#90bafd"/>
      </g>
    </g>
    <g id="Grupo_1108334" data-name="Grupo 1108334" transform="translate(305.402 128.48)">
      <g id="Grupo_1108333" data-name="Grupo 1108333">
        <path id="Trazado_903591" data-name="Trazado 903591" d="M336.5,139.6c2.66,0,2.66-4.125,0-4.125s-2.66,4.125,0,4.125Z" transform="translate(-334.503 -135.476)" fill="#90bafd"/>
      </g>
    </g>
    <g id="Grupo_1108336" data-name="Grupo 1108336" transform="translate(397.612 196.674)">
      <g id="Grupo_1108335" data-name="Grupo 1108335">
        <path id="Trazado_903592" data-name="Trazado 903592" d="M440.41,219.1c5.32,0,5.32-8.25,0-8.25s-5.32,8.25,0,8.25Z" transform="translate(-436.42 -210.848)" fill="#90bafd"/>
      </g>
    </g>
    <g id="Grupo_1108338" data-name="Grupo 1108338" transform="translate(55.785 166.8)">
      <g id="Grupo_1108337" data-name="Grupo 1108337">
        <path id="Trazado_903593" data-name="Trazado 903593" d="M60.6,181.955c2.66,0,2.66-4.125,0-4.125s-2.66,4.125,0,4.125Z" transform="translate(-58.61 -177.83)" fill="#90bafd"/>
      </g>
    </g>
    <g id="Grupo_1108340" data-name="Grupo 1108340" transform="translate(123.257 174.531)">
      <g id="Grupo_1108339" data-name="Grupo 1108339">
        <line id="Línea_1890" data-name="Línea 1890" transform="translate(0 90.84)" fill="none" stroke="#ffba00" stroke-linecap="round" stroke-linejoin="round" stroke-width="2.735"/>
        <path id="Trazado_903594" data-name="Trazado 903594" d="M133.358,272.229c3.01-47.848,49.108-85.855,105.535-85.855,57.4,0,104.116,39.334,105.652,88.349" transform="translate(-133.201 -186.374)" fill="none" stroke="#ffba00" stroke-linecap="round" stroke-linejoin="round" stroke-width="2.735" stroke-dasharray="0 5.511"/>
        <line id="Línea_1891" data-name="Línea 1891" transform="translate(211.382 90.84)" fill="none" stroke="#ffba00" stroke-linecap="round" stroke-linejoin="round" stroke-width="2.735"/>
      </g>
    </g>
    <g id="Grupo_1108342" data-name="Grupo 1108342" transform="translate(41.42 349.976)" opacity="0.5">
      <g id="Grupo_1108341" data-name="Grupo 1108341">
        <path id="Trazado_903595" data-name="Trazado 903595" d="M48.767,392.764H411.751c8.045,0,8.045-12.476,0-12.476H48.768c-8.046,0-8.046,12.476,0,12.476Z" transform="translate(-42.733 -380.288)" fill="#7663b7"/>
      </g>
    </g>
    <g id="Grupo_1108345" data-name="Grupo 1108345" transform="translate(269.37 259.682)">
      <g id="Grupo_1108344" data-name="Grupo 1108344">
        <path id="Trazado_903596" data-name="Trazado 903596" d="M294.678,286.672h25.573" transform="translate(-294.678 -281.078)" fill="none" stroke="#7663b7" stroke-miterlimit="10" stroke-width="3.647"/>
        <g id="Grupo_1108343" data-name="Grupo 1108343" transform="translate(19.199)">
          <path id="Trazado_903597" data-name="Trazado 903597" d="M315.9,291.678l5.6-5.6-5.6-5.594h4.75l5.594,5.594-5.594,5.6Z" transform="translate(-315.898 -280.489)" fill="#7663b7"/>
        </g>
      </g>
    </g>
    <g id="Grupo_1108348" data-name="Grupo 1108348" transform="translate(265.401 273.708)">
      <g id="Grupo_1108347" data-name="Grupo 1108347">
        <path id="Trazado_903598" data-name="Trazado 903598" d="M320.251,302.174H294.678" transform="translate(-290.709 -296.58)" fill="none" stroke="#90bafd" stroke-miterlimit="10" stroke-width="3.647"/>
        <g id="Grupo_1108346" data-name="Grupo 1108346">
          <path id="Trazado_903599" data-name="Trazado 903599" d="M300.634,295.991l-5.6,5.594,5.6,5.6h-4.75l-5.593-5.6,5.593-5.594Z" transform="translate(-290.291 -295.991)" fill="#90bafd"/>
        </g>
      </g>
    </g>
    <g id="Grupo_1108349" data-name="Grupo 1108349" transform="translate(61.338 173.098)">
      <path id="Trazado_903600" data-name="Trazado 903600" d="M122.429,210.47a7.78,7.78,0,0,1-7.5,8.036H72.248a7.782,7.782,0,0,1-7.5-8.036h0a7.781,7.781,0,0,1,7.5-8.032h42.685a7.778,7.778,0,0,1,7.5,8.032Z" transform="translate(-64.748 -186.472)" fill="#bcd6fe" fill-rule="evenodd"/>
      <path id="Trazado_903601" data-name="Trazado 903601" d="M115.558,199.393c0,3.437-3.221,6.219-7.194,6.219H80.432c-3.976,0-7.2-2.782-7.2-6.219h0c0-3.432,3.221-6.215,7.2-6.215h27.932c3.974,0,7.194,2.783,7.194,6.215Z" transform="translate(-65.556 -185.59)" fill="#bcd6fe" fill-rule="evenodd"/>
      <path id="Trazado_903602" data-name="Trazado 903602" d="M105.434,194.8a9.9,9.9,0,1,1-9.9-10.01A9.955,9.955,0,0,1,105.434,194.8Z" transform="translate(-66.738 -184.791)" fill="#bcd6fe" fill-rule="evenodd"/>
    </g>
    <g id="Grupo_1108350" data-name="Grupo 1108350" transform="translate(337.059 149.36)">
      <path id="Trazado_903603" data-name="Trazado 903603" d="M427.174,184.235a7.779,7.779,0,0,1-7.5,8.036H376.991a7.782,7.782,0,0,1-7.5-8.036h0a7.782,7.782,0,0,1,7.5-8.034h42.685a7.778,7.778,0,0,1,7.5,8.034Z" transform="translate(-369.493 -160.235)" fill="#bcd6fe" fill-rule="evenodd"/>
      <path id="Trazado_903604" data-name="Trazado 903604" d="M420.3,173.158c0,3.435-3.221,6.218-7.194,6.218H385.177c-3.975,0-7.2-2.783-7.2-6.218h0c0-3.432,3.222-6.215,7.2-6.215h27.933c3.974,0,7.194,2.783,7.194,6.215Z" transform="translate(-370.301 -159.353)" fill="#bcd6fe" fill-rule="evenodd"/>
      <path id="Trazado_903605" data-name="Trazado 903605" d="M410.178,168.566a9.9,9.9,0,1,1-9.9-10.012A9.954,9.954,0,0,1,410.178,168.566Z" transform="translate(-371.483 -158.554)" fill="#bcd6fe" fill-rule="evenodd"/>
    </g>
    <g id="Grupo_1108351" data-name="Grupo 1108351" transform="translate(193.808 93.528)">
      <path id="Trazado_903606" data-name="Trazado 903606" d="M268.843,122.525a7.779,7.779,0,0,1-7.5,8.033H218.659a7.781,7.781,0,0,1-7.5-8.033h0a7.78,7.78,0,0,1,7.5-8.034h42.685a7.778,7.778,0,0,1,7.5,8.034Z" transform="translate(-211.162 -98.525)" fill="#bcd6fe" fill-rule="evenodd"/>
      <path id="Trazado_903607" data-name="Trazado 903607" d="M261.971,111.446c0,3.436-3.221,6.22-7.194,6.22H226.844c-3.976,0-7.2-2.784-7.2-6.22h0c0-3.432,3.222-6.214,7.2-6.214h27.933c3.974,0,7.194,2.782,7.194,6.214Z" transform="translate(-211.97 -97.643)" fill="#bcd6fe" fill-rule="evenodd"/>
      <path id="Trazado_903608" data-name="Trazado 903608" d="M251.846,106.853a9.9,9.9,0,1,1-9.9-10.009A9.955,9.955,0,0,1,251.846,106.853Z" transform="translate(-213.152 -96.844)" fill="#bcd6fe" fill-rule="evenodd"/>
    </g>
    <g id="Grupo_1108362" data-name="Grupo 1108362" transform="translate(46.206 267.404)">
      <g id="Grupo_1108352" data-name="Grupo 1108352" transform="translate(3.308 3.305)">
        <path id="Trazado_903609" data-name="Trazado 903609" d="M62.7,314.73A11.026,11.026,0,1,1,73.73,303.7,11.038,11.038,0,0,1,62.7,314.73Zm0-16.759a5.734,5.734,0,1,0,5.734,5.734A5.74,5.74,0,0,0,62.7,297.971Z" transform="translate(-51.679 -292.677)" fill="#ffba00"/>
      </g>
      <g id="Grupo_1108361" data-name="Grupo 1108361">
        <g id="Grupo_1108353" data-name="Grupo 1108353" transform="translate(11.687)">
          <rect id="Rectángulo_405502" data-name="Rectángulo 405502" width="5.293" height="6.172" fill="#ffba00"/>
        </g>
        <g id="Grupo_1108354" data-name="Grupo 1108354" transform="translate(11.687 22.49)">
          <rect id="Rectángulo_405503" data-name="Rectángulo 405503" width="5.293" height="6.174" fill="#ffba00"/>
        </g>
        <g id="Grupo_1108355" data-name="Grupo 1108355" transform="translate(0 11.686)">
          <rect id="Rectángulo_405504" data-name="Rectángulo 405504" width="6.174" height="5.293" fill="#ffba00"/>
        </g>
        <g id="Grupo_1108356" data-name="Grupo 1108356" transform="translate(22.492 11.686)">
          <rect id="Rectángulo_405505" data-name="Rectángulo 405505" width="6.173" height="5.293" fill="#ffba00"/>
        </g>
        <g id="Grupo_1108357" data-name="Grupo 1108357" transform="translate(2.322 2.328)">
          <rect id="Rectángulo_405506" data-name="Rectángulo 405506" width="5.292" height="6.175" transform="matrix(0.707, -0.707, 0.707, 0.707, 0, 3.743)" fill="#ffba00"/>
        </g>
        <g id="Grupo_1108358" data-name="Grupo 1108358" transform="translate(18.235 18.216)">
          <rect id="Rectángulo_405507" data-name="Rectángulo 405507" width="5.293" height="6.175" transform="matrix(0.707, -0.707, 0.707, 0.707, 0, 3.743)" fill="#ffba00"/>
        </g>
        <g id="Grupo_1108359" data-name="Grupo 1108359" transform="translate(2.321 18.232)">
          <rect id="Rectángulo_405508" data-name="Rectángulo 405508" width="6.176" height="5.293" transform="matrix(0.707, -0.707, 0.707, 0.707, 0, 4.366)" fill="#ffba00"/>
        </g>
        <g id="Grupo_1108360" data-name="Grupo 1108360" transform="translate(18.237 2.312)">
          <rect id="Rectángulo_405509" data-name="Rectángulo 405509" width="6.174" height="5.292" transform="matrix(0.707, -0.707, 0.707, 0.707, 0, 4.367)" fill="#ffba00"/>
        </g>
      </g>
    </g>
    <g id="Grupo_1108373" data-name="Grupo 1108373" transform="translate(320.306 107.249)">
      <g id="Grupo_1108363" data-name="Grupo 1108363" transform="translate(3.308 3.307)">
        <path id="Trazado_903610" data-name="Trazado 903610" d="M365.657,137.718a11.026,11.026,0,1,1,11.025-11.025A11.037,11.037,0,0,1,365.657,137.718Zm0-16.76a5.734,5.734,0,1,0,5.732,5.734A5.74,5.74,0,0,0,365.657,120.958Z" transform="translate(-354.632 -115.665)" fill="#ffba00"/>
      </g>
      <g id="Grupo_1108372" data-name="Grupo 1108372">
        <g id="Grupo_1108364" data-name="Grupo 1108364" transform="translate(11.687)">
          <rect id="Rectángulo_405510" data-name="Rectángulo 405510" width="5.291" height="6.174" fill="#ffba00"/>
        </g>
        <g id="Grupo_1108365" data-name="Grupo 1108365" transform="translate(11.687 22.493)">
          <rect id="Rectángulo_405511" data-name="Rectángulo 405511" width="5.291" height="6.174" fill="#ffba00"/>
        </g>
        <g id="Grupo_1108366" data-name="Grupo 1108366" transform="translate(0 11.687)">
          <rect id="Rectángulo_405512" data-name="Rectángulo 405512" width="6.173" height="5.294" fill="#ffba00"/>
        </g>
        <g id="Grupo_1108367" data-name="Grupo 1108367" transform="translate(22.491 11.687)">
          <rect id="Rectángulo_405513" data-name="Rectángulo 405513" width="6.175" height="5.294" fill="#ffba00"/>
        </g>
        <g id="Grupo_1108368" data-name="Grupo 1108368" transform="translate(2.344 2.316)">
          <rect id="Rectángulo_405514" data-name="Rectángulo 405514" width="5.293" height="6.175" transform="translate(0 3.744) rotate(-45.012)" fill="#ffba00"/>
        </g>
        <g id="Grupo_1108369" data-name="Grupo 1108369" transform="translate(18.223 18.22)">
          <rect id="Rectángulo_405515" data-name="Rectángulo 405515" width="5.292" height="6.175" transform="matrix(0.707, -0.707, 0.707, 0.707, 0, 3.742)" fill="#ffba00"/>
        </g>
        <g id="Grupo_1108370" data-name="Grupo 1108370" transform="translate(2.32 18.227)">
          <rect id="Rectángulo_405516" data-name="Rectángulo 405516" width="6.174" height="5.292" transform="matrix(0.707, -0.707, 0.707, 0.707, 0, 4.366)" fill="#ffba00"/>
        </g>
        <g id="Grupo_1108371" data-name="Grupo 1108371" transform="translate(18.235 2.341)">
          <rect id="Rectángulo_405517" data-name="Rectángulo 405517" width="6.175" height="5.293" transform="matrix(0.707, -0.707, 0.707, 0.707, 0, 4.365)" fill="#ffba00"/>
        </g>
      </g>
    </g>
    <g id="Grupo_1108384" data-name="Grupo 1108384" transform="translate(104.759 107.91)">
      <g id="Grupo_1108374" data-name="Grupo 1108374" transform="translate(2.483 2.479)">
        <path id="Trazado_903611" data-name="Trazado 903611" d="M123.753,132.02a8.27,8.27,0,1,1,8.27-8.27A8.277,8.277,0,0,1,123.753,132.02Zm0-12.569a4.3,4.3,0,1,0,4.3,4.3A4.307,4.307,0,0,0,123.753,119.451Z" transform="translate(-115.484 -115.48)" fill="#7663b7"/>
      </g>
      <g id="Grupo_1108383" data-name="Grupo 1108383">
        <g id="Grupo_1108375" data-name="Grupo 1108375" transform="translate(8.764)">
          <rect id="Rectángulo_405518" data-name="Rectángulo 405518" width="3.971" height="4.631" fill="#7663b7"/>
        </g>
        <g id="Grupo_1108376" data-name="Grupo 1108376" transform="translate(8.764 16.87)">
          <rect id="Rectángulo_405519" data-name="Rectángulo 405519" width="3.971" height="4.63" fill="#7663b7"/>
        </g>
        <g id="Grupo_1108377" data-name="Grupo 1108377" transform="translate(0 8.765)">
          <rect id="Rectángulo_405520" data-name="Rectángulo 405520" width="4.631" height="3.968" fill="#7663b7"/>
        </g>
        <g id="Grupo_1108378" data-name="Grupo 1108378" transform="translate(16.869 8.765)">
          <rect id="Rectángulo_405521" data-name="Rectángulo 405521" width="4.63" height="3.968" fill="#7663b7"/>
        </g>
        <g id="Grupo_1108379" data-name="Grupo 1108379" transform="translate(1.743 1.742)">
          <rect id="Rectángulo_405522" data-name="Rectángulo 405522" width="3.97" height="4.631" transform="matrix(0.707, -0.707, 0.707, 0.707, 0, 2.808)" fill="#7663b7"/>
        </g>
        <g id="Grupo_1108380" data-name="Grupo 1108380" transform="translate(13.67 13.672)">
          <rect id="Rectángulo_405523" data-name="Rectángulo 405523" width="3.97" height="4.632" transform="matrix(0.707, -0.707, 0.707, 0.707, 0, 2.808)" fill="#7663b7"/>
        </g>
        <g id="Grupo_1108381" data-name="Grupo 1108381" transform="translate(1.743 13.68)">
          <rect id="Rectángulo_405524" data-name="Rectángulo 405524" width="4.631" height="3.97" transform="matrix(0.707, -0.707, 0.707, 0.707, 0, 3.276)" fill="#7663b7"/>
        </g>
        <g id="Grupo_1108382" data-name="Grupo 1108382" transform="translate(13.672 1.749)">
          <rect id="Rectángulo_405525" data-name="Rectángulo 405525" width="4.631" height="3.97" transform="matrix(0.707, -0.707, 0.707, 0.707, 0, 3.276)" fill="#7663b7"/>
        </g>
      </g>
    </g>
    <g id="Grupo_1108395" data-name="Grupo 1108395" transform="translate(390.184 294.347)">
      <g id="Grupo_1108385" data-name="Grupo 1108385" transform="translate(2.482 2.483)">
        <path id="Trazado_903612" data-name="Trazado 903612" d="M439.223,338.084a8.269,8.269,0,1,1,8.269-8.269A8.28,8.28,0,0,1,439.223,338.084Zm0-12.57a4.3,4.3,0,1,0,4.3,4.3A4.307,4.307,0,0,0,439.223,325.514Z" transform="translate(-430.953 -321.547)" fill="#7663b7"/>
      </g>
      <g id="Grupo_1108394" data-name="Grupo 1108394">
        <g id="Grupo_1108386" data-name="Grupo 1108386" transform="translate(8.768)">
          <rect id="Rectángulo_405526" data-name="Rectángulo 405526" width="3.967" height="4.63" fill="#7663b7"/>
        </g>
        <g id="Grupo_1108387" data-name="Grupo 1108387" transform="translate(8.768 16.869)">
          <rect id="Rectángulo_405527" data-name="Rectángulo 405527" width="3.967" height="4.631" fill="#7663b7"/>
        </g>
        <g id="Grupo_1108388" data-name="Grupo 1108388" transform="translate(0 8.767)">
          <rect id="Rectángulo_405528" data-name="Rectángulo 405528" width="4.632" height="3.967" fill="#7663b7"/>
        </g>
        <g id="Grupo_1108389" data-name="Grupo 1108389" transform="translate(16.87 8.767)">
          <rect id="Rectángulo_405529" data-name="Rectángulo 405529" width="4.631" height="3.967" fill="#7663b7"/>
        </g>
        <g id="Grupo_1108390" data-name="Grupo 1108390" transform="translate(1.742 1.743)">
          <rect id="Rectángulo_405530" data-name="Rectángulo 405530" width="3.969" height="4.631" transform="matrix(0.707, -0.707, 0.707, 0.707, 0, 2.807)" fill="#7663b7"/>
        </g>
        <g id="Grupo_1108391" data-name="Grupo 1108391" transform="translate(13.668 13.667)">
          <rect id="Rectángulo_405531" data-name="Rectángulo 405531" width="3.97" height="4.631" transform="matrix(0.707, -0.707, 0.707, 0.707, 0, 2.808)" fill="#7663b7"/>
        </g>
        <g id="Grupo_1108392" data-name="Grupo 1108392" transform="translate(1.777 13.674)">
          <rect id="Rectángulo_405532" data-name="Rectángulo 405532" width="4.631" height="3.969" transform="translate(0 3.273) rotate(-44.964)" fill="#7663b7"/>
        </g>
        <g id="Grupo_1108393" data-name="Grupo 1108393" transform="translate(13.667 1.727)">
          <rect id="Rectángulo_405533" data-name="Rectángulo 405533" width="4.631" height="3.97" transform="matrix(0.707, -0.707, 0.707, 0.707, 0, 3.273)" fill="#7663b7"/>
        </g>
      </g>
    </g>
    <g id="Grupo_1108405" data-name="Grupo 1108405" transform="translate(71.738 224.345)">
      <path id="Trazado_903617" data-name="Trazado 903617" d="M268.475,352.278a4.167,4.167,0,0,1-4.165,4.166H100.79a4.167,4.167,0,0,1-4.165-4.166V245.6a4.166,4.166,0,0,1,4.165-4.165H264.31a4.166,4.166,0,0,1,4.165,4.165Z" transform="translate(-78.183 -241.432)" fill="#463281"/>
      <g id="Grupo_1108400" data-name="Grupo 1108400" transform="translate(102.688 2.099)">
        <g id="Grupo_1108399" data-name="Grupo 1108399">
          <path id="Trazado_903618" data-name="Trazado 903618" d="M191.417,247.222a1.736,1.736,0,0,0,0-3.47,1.736,1.736,0,0,0,0,3.47Z" transform="translate(-189.739 -243.752)" fill="#fff"/>
        </g>
      </g>
      <g id="Grupo_1108402" data-name="Grupo 1108402" transform="translate(30.469 7.849)">
        <path id="Trazado_903619" data-name="Trazado 903619" d="M257.711,345.658a3.579,3.579,0,0,1-3.58,3.58H113.5a3.581,3.581,0,0,1-3.583-3.58V253.915a3.582,3.582,0,0,1,3.583-3.582H254.13a3.58,3.58,0,0,1,3.58,3.582v91.743Z" transform="translate(-109.918 -250.129)" fill="#cadefe"/>
        <g id="Grupo_1108401" data-name="Grupo 1108401" opacity="0.4">
          <path id="Trazado_903620" data-name="Trazado 903620" d="M120.735,349.238H113.5a3.581,3.581,0,0,1-3.583-3.58V253.915a3.582,3.582,0,0,1,3.583-3.582H214.2" transform="translate(-109.918 -250.129)" fill="#fff"/>
          <path id="Trazado_903621" data-name="Trazado 903621" d="M146.1,349.216h-9.184l93.467-98.9,9.238-.2Z" transform="translate(-112.49 -250.107)" fill="#fff"/>
        </g>
      </g>
      <g id="Grupo_1108404" data-name="Grupo 1108404" transform="translate(0 112.769)">
        <g id="Grupo_1108403" data-name="Grupo 1108403" transform="translate(10.293)">
          <path id="Trazado_903622" data-name="Trazado 903622" d="M98.81,369.852a.907.907,0,0,1-.907.908H88.527a.908.908,0,0,1-.908-.908v-2.874a.907.907,0,0,1,.908-.907H97.9a.906.906,0,0,1,.907.907Z" transform="translate(-87.619 -366.072)" fill="#90bafd"/>
          <path id="Trazado_903623" data-name="Trazado 903623" d="M113.855,369.852a.907.907,0,0,1-.907.908h-9.376a.907.907,0,0,1-.907-.908v-2.874a.907.907,0,0,1,.907-.907h9.376a.907.907,0,0,1,.907.907Z" transform="translate(-89.052 -366.072)" fill="#90bafd"/>
          <path id="Trazado_903624" data-name="Trazado 903624" d="M128.9,369.852a.907.907,0,0,1-.907.908h-9.376a.908.908,0,0,1-.908-.908v-2.874a.907.907,0,0,1,.908-.907h9.376a.906.906,0,0,1,.907.907Z" transform="translate(-90.485 -366.072)" fill="#90bafd"/>
          <path id="Trazado_903625" data-name="Trazado 903625" d="M143.945,369.852a.908.908,0,0,1-.907.908h-9.376a.907.907,0,0,1-.907-.908v-2.874a.906.906,0,0,1,.907-.907h9.376a.907.907,0,0,1,.907.907Z" transform="translate(-91.918 -366.072)" fill="#90bafd"/>
          <path id="Trazado_903626" data-name="Trazado 903626" d="M158.989,369.852a.907.907,0,0,1-.908.908h-9.374a.908.908,0,0,1-.908-.908v-2.874a.907.907,0,0,1,.908-.907h9.374a.907.907,0,0,1,.908.907v2.874Z" transform="translate(-93.35 -366.072)" fill="#90bafd"/>
          <path id="Trazado_903627" data-name="Trazado 903627" d="M174.034,369.852a.908.908,0,0,1-.907.908H163.75a.908.908,0,0,1-.907-.908v-2.874a.907.907,0,0,1,.907-.907h9.376a.907.907,0,0,1,.907.907Z" transform="translate(-94.783 -366.072)" fill="#90bafd"/>
          <path id="Trazado_903628" data-name="Trazado 903628" d="M189.079,369.852a.908.908,0,0,1-.907.908H178.8a.908.908,0,0,1-.908-.908v-2.874a.907.907,0,0,1,.908-.907h9.375a.907.907,0,0,1,.907.907Z" transform="translate(-96.216 -366.072)" fill="#90bafd"/>
          <path id="Trazado_903629" data-name="Trazado 903629" d="M204.123,369.852a.907.907,0,0,1-.907.908H193.84a.908.908,0,0,1-.908-.908v-2.874a.907.907,0,0,1,.908-.907h9.376a.906.906,0,0,1,.907.907Z" transform="translate(-97.649 -366.072)" fill="#90bafd"/>
          <path id="Trazado_903630" data-name="Trazado 903630" d="M219.168,369.852a.907.907,0,0,1-.907.908h-9.376a.907.907,0,0,1-.908-.908v-2.874a.907.907,0,0,1,.908-.907h9.376a.907.907,0,0,1,.907.907Z" transform="translate(-99.082 -366.072)" fill="#90bafd"/>
          <path id="Trazado_903631" data-name="Trazado 903631" d="M234.212,369.852a.907.907,0,0,1-.907.908h-9.376a.907.907,0,0,1-.907-.908v-2.874a.907.907,0,0,1,.907-.907h9.376a.906.906,0,0,1,.907.907Z" transform="translate(-100.515 -366.072)" fill="#90bafd"/>
          <path id="Trazado_903632" data-name="Trazado 903632" d="M249.257,369.852a.907.907,0,0,1-.907.908h-9.376a.907.907,0,0,1-.907-.908v-2.874a.907.907,0,0,1,.907-.907h9.376a.906.906,0,0,1,.907.907v2.874Z" transform="translate(-101.948 -366.072)" fill="#90bafd"/>
          <path id="Trazado_903633" data-name="Trazado 903633" d="M264.3,369.852a.907.907,0,0,1-.907.908h-9.376a.908.908,0,0,1-.908-.908v-2.874a.907.907,0,0,1,.908-.907h9.376a.907.907,0,0,1,.907.907Z" transform="translate(-103.38 -366.072)" fill="#90bafd"/>
          <path id="Trazado_903634" data-name="Trazado 903634" d="M279.347,369.852a.907.907,0,0,1-.907.908h-9.375a.907.907,0,0,1-.907-.908v-2.874a.907.907,0,0,1,.907-.907h9.375a.907.907,0,0,1,.907.907Z" transform="translate(-104.813 -366.072)" fill="#90bafd"/>
          <path id="Trazado_903635" data-name="Trazado 903635" d="M294.392,369.852a.907.907,0,0,1-.908.908h-9.376a.908.908,0,0,1-.907-.908v-2.874a.907.907,0,0,1,.907-.907h9.376a.907.907,0,0,1,.908.907Z" transform="translate(-106.246 -366.072)" fill="#90bafd"/>
        </g>
        <path id="Trazado_903636" data-name="Trazado 903636" d="M284.975,375.972c0,2.3-.476,4.165-2.773,4.165H79.018c-2.3,0-2.776-1.865-2.776-4.165v-3.566c0-2.3.474-4.165,2.776-4.165H282.2c2.3,0,2.773,1.863,2.773,4.165v3.566Z" transform="translate(-76.242 -366.279)" fill="#7663b7"/>
        <path id="Trazado_903637" data-name="Trazado 903637" d="M284.975,372.844v6.821c0,2.3-.476,4.162-2.773,4.162H79.018c-2.3,0-2.776-1.865-2.776-4.162v-6.821" transform="translate(-76.242 -366.717)" fill="#463281"/>
      </g>
    </g>
    <g id="Grupo_1108419" data-name="Grupo 1108419" transform="translate(303.518 214.078)">
      <path id="Trazado_903638" data-name="Trazado 903638" d="M423.478,275.945a1.321,1.321,0,0,1-1.321,1.322h0a1.321,1.321,0,0,1-1.321-1.322V254.358a1.322,1.322,0,0,1,1.321-1.322h0a1.322,1.322,0,0,1,1.321,1.322Z" transform="translate(-340.842 -232.27)" fill="#7663b7"/>
      <path id="Trazado_903639" data-name="Trazado 903639" d="M413.746,362.563a7.87,7.87,0,0,1-7.871,7.869H340.292a7.868,7.868,0,0,1-7.871-7.869V237.953a7.869,7.869,0,0,1,7.871-7.869h65.583a7.87,7.87,0,0,1,7.871,7.869Z" transform="translate(-332.421 -230.084)" fill="#463281"/>
      <g id="Grupo_1108407" data-name="Grupo 1108407" transform="translate(23.269 6.181)">
        <g id="Grupo_1108406" data-name="Grupo 1108406">
          <path id="Trazado_903640" data-name="Trazado 903640" d="M359.137,238.978h32.792a1.032,1.032,0,0,0,0-2.062H359.137a1.032,1.032,0,0,0,0,2.062Z" transform="translate(-358.14 -236.916)" fill="#7663b7"/>
        </g>
      </g>
      <g id="Grupo_1108409" data-name="Grupo 1108409" transform="translate(64.327 5.026)">
        <g id="Grupo_1108408" data-name="Grupo 1108408">
          <path id="Trazado_903641" data-name="Trazado 903641" d="M405.633,240.011c2.819,0,2.819-4.372,0-4.372s-2.819,4.372,0,4.372Z" transform="translate(-403.519 -235.639)" fill="#fff"/>
        </g>
      </g>
      <g id="Grupo_1108411" data-name="Grupo 1108411" transform="translate(37.912 128.105)">
        <g id="Grupo_1108410" data-name="Grupo 1108410">
          <path id="Trazado_903642" data-name="Trazado 903642" d="M377.074,377.359c3.666,0,3.666-5.685,0-5.685s-3.666,5.685,0,5.685Z" transform="translate(-374.324 -371.674)" fill="#fff"/>
        </g>
      </g>
      <g id="Grupo_1108413" data-name="Grupo 1108413" transform="translate(21.615 128.884)">
        <g id="Grupo_1108412" data-name="Grupo 1108412">
          <path id="Trazado_903643" data-name="Trazado 903643" d="M358.306,376.66c2.659,0,2.659-4.125,0-4.125s-2.659,4.125,0,4.125Z" transform="translate(-356.312 -372.535)" fill="#7663b7"/>
        </g>
      </g>
      <g id="Grupo_1108415" data-name="Grupo 1108415" transform="translate(55.719 128.884)">
        <g id="Grupo_1108414" data-name="Grupo 1108414">
          <path id="Trazado_903644" data-name="Trazado 903644" d="M396,376.66c2.66,0,2.66-4.125,0-4.125s-2.66,4.125,0,4.125Z" transform="translate(-394.005 -372.535)" fill="#7663b7"/>
        </g>
      </g>
      <g id="Grupo_1108418" data-name="Grupo 1108418" transform="translate(5.247 20.766)">
        <rect id="Rectángulo_405534" data-name="Rectángulo 405534" width="70.83" height="103.84" fill="#cadefe"/>
        <g id="Grupo_1108417" data-name="Grupo 1108417" opacity="0.4">
          <g id="Grupo_1108416" data-name="Grupo 1108416" clip-path="url(#clip-path)">
            <path id="Trazado_903645" data-name="Trazado 903645" d="M328.427,352.136h-7.234a3.582,3.582,0,0,1-3.583-3.582V256.813a3.583,3.583,0,0,1,3.583-3.582H421.9" transform="translate(-336.257 -253.055)" fill="#fff"/>
            <path id="Trazado_903646" data-name="Trazado 903646" d="M347.175,358.812H336.924l100.423-105.6,9.238-.2Z" transform="translate(-338.097 -253.033)" fill="#fff"/>
          </g>
        </g>
      </g>
    </g>
    <g id="Grupo_1108426" data-name="Grupo 1108426" transform="translate(317.843 263.031)">
      <g id="Grupo_1108421" data-name="Grupo 1108421" transform="translate(0 0)">
        <g id="Grupo_1108420" data-name="Grupo 1108420">
          <path id="Trazado_903647" data-name="Trazado 903647" d="M375.951,303.14h-27.7V284.19h19.567Z" transform="translate(-348.254 -284.19)" fill="#ff9700"/>
          <rect id="Rectángulo_405536" data-name="Rectángulo 405536" width="52.501" height="33.923" transform="translate(0 5.369)" fill="#ff9700"/>
        </g>
        <rect id="Rectángulo_405537" data-name="Rectángulo 405537" width="47.031" height="27.69" transform="translate(2.735 8.547)" fill="#fff"/>
        <rect id="Rectángulo_405538" data-name="Rectángulo 405538" width="52.501" height="27.692" transform="translate(0 11.599)" fill="#ffba00"/>
      </g>
      <g id="Grupo_1108425" data-name="Grupo 1108425" transform="translate(16.434 15.566)">
        <path id="Trazado_903648" data-name="Trazado 903648" d="M386.052,311.214a9.817,9.817,0,1,1-9.818-9.818A9.818,9.818,0,0,1,386.052,311.214Z" transform="translate(-366.418 -301.395)" fill="#fff" fill-rule="evenodd"/>
        <g id="Grupo_1108424" data-name="Grupo 1108424" transform="translate(6.741 2.551)">
          <g id="Grupo_1108423" data-name="Grupo 1108423">
            <line id="Línea_1916" data-name="Línea 1916" y2="8.726" transform="translate(3.076)" fill="none" stroke="#90bafd" stroke-miterlimit="10" stroke-width="2.006"/>
            <g id="Grupo_1108422" data-name="Grupo 1108422" transform="translate(0 5.112)">
              <path id="Trazado_903649" data-name="Trazado 903649" d="M373.868,309.865l3.076,3.078,3.076-3.078v2.613l-3.076,3.076-3.076-3.076Z" transform="translate(-373.868 -309.865)" fill="#90bafd"/>
            </g>
          </g>
        </g>
        <line id="Línea_1917" data-name="Línea 1917" x2="8.134" transform="translate(5.751 15.119)" fill="none" stroke="#90bafd" stroke-miterlimit="10" stroke-width="2.13"/>
      </g>
    </g>
    <g id="Grupo_1108433" data-name="Grupo 1108433" transform="translate(140.676 256.128)">
      <g id="Grupo_1108428" data-name="Grupo 1108428" transform="translate(0 0)">
        <g id="Grupo_1108427" data-name="Grupo 1108427">
          <path id="Trazado_903650" data-name="Trazado 903650" d="M189.865,302.17H152.437V276.561h26.442Z" transform="translate(-152.437 -276.561)" fill="#ff9700"/>
          <rect id="Rectángulo_405539" data-name="Rectángulo 405539" width="70.946" height="45.839" transform="translate(0 7.256)" fill="#ff9700"/>
        </g>
        <rect id="Rectángulo_405540" data-name="Rectángulo 405540" width="63.558" height="37.42" transform="translate(3.694 11.55)" fill="#fff"/>
        <rect id="Rectángulo_405541" data-name="Rectángulo 405541" width="70.946" height="37.42" transform="translate(0 15.674)" fill="#ffba00"/>
      </g>
      <g id="Grupo_1108432" data-name="Grupo 1108432" transform="translate(23.923 23.433)">
        <circle id="Elipse_12321" data-name="Elipse 12321" cx="11.55" cy="11.55" r="11.55" fill="#fff"/>
        <g id="Grupo_1108431" data-name="Grupo 1108431" transform="translate(7.93 3.005)">
          <g id="Grupo_1108430" data-name="Grupo 1108430">
            <line id="Línea_1918" data-name="Línea 1918" y2="10.264" transform="translate(3.62 2.44)" fill="none" stroke="#90bafd" stroke-miterlimit="10" stroke-width="2.36"/>
            <g id="Grupo_1108429" data-name="Grupo 1108429">
              <path id="Trazado_903651" data-name="Trazado 903651" d="M187.643,312.475l3.62-3.623,3.62,3.623V309.4l-3.62-3.62-3.62,3.62Z" transform="translate(-187.643 -305.782)" fill="#90bafd"/>
            </g>
          </g>
        </g>
        <line id="Línea_1919" data-name="Línea 1919" x2="9.569" transform="translate(6.766 17.788)" fill="none" stroke="#90bafd" stroke-miterlimit="10" stroke-width="2.505"/>
      </g>
    </g>
    <g id="Grupo_1108459" data-name="Grupo 1108459" transform="translate(206.255 136.243)">
      <rect id="Rectángulo_405542" data-name="Rectángulo 405542" width="45.372" height="60.222" fill="#cadefe"/>
      <rect id="Rectángulo_405543" data-name="Rectángulo 405543" width="11.55" height="14.025" transform="translate(4.843 6.907)" fill="#ff9700"/>
      <g id="Grupo_1108458" data-name="Grupo 1108458" transform="translate(4.045 7.117)">
        <g id="Grupo_1108435" data-name="Grupo 1108435" transform="translate(15.061)">
          <g id="Grupo_1108434" data-name="Grupo 1108434">
            <path id="Trazado_903652" data-name="Trazado 903652" d="M246.834,153.571h20.624a.825.825,0,0,0,0-1.649H246.834a.825.825,0,0,0,0,1.649Z" transform="translate(-246.037 -151.922)" fill="#90bafd"/>
          </g>
        </g>
        <g id="Grupo_1108437" data-name="Grupo 1108437" transform="translate(15.061 4.127)">
          <g id="Grupo_1108436" data-name="Grupo 1108436">
            <path id="Trazado_903653" data-name="Trazado 903653" d="M246.834,158.132h20.624a.825.825,0,0,0,0-1.649H246.834a.825.825,0,0,0,0,1.649Z" transform="translate(-246.037 -156.483)" fill="#90bafd"/>
          </g>
        </g>
        <g id="Grupo_1108439" data-name="Grupo 1108439" transform="translate(15.061 8.251)">
          <g id="Grupo_1108438" data-name="Grupo 1108438">
            <path id="Trazado_903654" data-name="Trazado 903654" d="M246.834,162.69h20.624a.825.825,0,0,0,0-1.649H246.834a.825.825,0,0,0,0,1.649Z" transform="translate(-246.037 -161.041)" fill="#90bafd"/>
          </g>
        </g>
        <g id="Grupo_1108441" data-name="Grupo 1108441" transform="translate(15.061 12.374)">
          <g id="Grupo_1108440" data-name="Grupo 1108440">
            <path id="Trazado_903655" data-name="Trazado 903655" d="M246.834,167.248h20.624a.825.825,0,0,0,0-1.649H246.834a.825.825,0,0,0,0,1.649Z" transform="translate(-246.037 -165.599)" fill="#90bafd"/>
          </g>
        </g>
        <g id="Grupo_1108443" data-name="Grupo 1108443" transform="translate(0 16.5)">
          <g id="Grupo_1108442" data-name="Grupo 1108442">
            <path id="Trazado_903656" data-name="Trazado 903656" d="M230.188,171.808h35.685a.825.825,0,0,0,0-1.649H230.188a.825.825,0,0,0,0,1.649Z" transform="translate(-229.39 -170.159)" fill="#90bafd"/>
          </g>
        </g>
        <g id="Grupo_1108445" data-name="Grupo 1108445" transform="translate(0 20.625)">
          <g id="Grupo_1108444" data-name="Grupo 1108444">
            <path id="Trazado_903657" data-name="Trazado 903657" d="M230.188,176.367h35.685a.825.825,0,0,0,0-1.649H230.188a.825.825,0,0,0,0,1.649Z" transform="translate(-229.39 -174.718)" fill="#90bafd"/>
          </g>
        </g>
        <g id="Grupo_1108447" data-name="Grupo 1108447" transform="translate(0 24.751)">
          <g id="Grupo_1108446" data-name="Grupo 1108446">
            <path id="Trazado_903658" data-name="Trazado 903658" d="M230.188,180.927h35.685a.825.825,0,0,0,0-1.649H230.188a.825.825,0,0,0,0,1.649Z" transform="translate(-229.39 -179.278)" fill="#90bafd"/>
          </g>
        </g>
        <g id="Grupo_1108449" data-name="Grupo 1108449" transform="translate(0 28.875)">
          <g id="Grupo_1108448" data-name="Grupo 1108448">
            <path id="Trazado_903659" data-name="Trazado 903659" d="M230.188,185.485h35.685a.825.825,0,0,0,0-1.649H230.188a.825.825,0,0,0,0,1.649Z" transform="translate(-229.39 -183.836)" fill="#90bafd"/>
          </g>
        </g>
        <g id="Grupo_1108451" data-name="Grupo 1108451" transform="translate(0 32.998)">
          <g id="Grupo_1108450" data-name="Grupo 1108450">
            <path id="Trazado_903660" data-name="Trazado 903660" d="M230.188,190.043h35.685a.825.825,0,0,0,0-1.649H230.188a.825.825,0,0,0,0,1.649Z" transform="translate(-229.39 -188.394)" fill="#90bafd"/>
          </g>
        </g>
        <g id="Grupo_1108453" data-name="Grupo 1108453" transform="translate(0 37.124)">
          <g id="Grupo_1108452" data-name="Grupo 1108452">
            <path id="Trazado_903661" data-name="Trazado 903661" d="M230.188,194.6h35.685a.825.825,0,0,0,0-1.649H230.188a.825.825,0,0,0,0,1.649Z" transform="translate(-229.39 -192.954)" fill="#90bafd"/>
          </g>
        </g>
        <g id="Grupo_1108455" data-name="Grupo 1108455" transform="translate(0 41.249)">
          <g id="Grupo_1108454" data-name="Grupo 1108454">
            <path id="Trazado_903662" data-name="Trazado 903662" d="M230.188,199.162h35.685a.825.825,0,0,0,0-1.649H230.188a.825.825,0,0,0,0,1.649Z" transform="translate(-229.39 -197.513)" fill="#90bafd"/>
          </g>
        </g>
        <g id="Grupo_1108457" data-name="Grupo 1108457" transform="translate(0 45.374)">
          <g id="Grupo_1108456" data-name="Grupo 1108456">
            <path id="Trazado_903663" data-name="Trazado 903663" d="M230.188,203.721h35.685a.825.825,0,0,0,0-1.649H230.188a.825.825,0,0,0,0,1.649Z" transform="translate(-229.39 -202.072)" fill="#90bafd"/>
          </g>
        </g>
      </g>
    </g>
    <g id="Grupo_1108478" data-name="Grupo 1108478" transform="translate(136.547 142.593)">
      <g id="Grupo_1108460" data-name="Grupo 1108460">
        <path id="Trazado_903664" data-name="Trazado 903664" d="M182.156,151.1l-34.282,9.186,15.586,58.168,43.827-11.741-12.91-48.182Z" transform="translate(-147.874 -151.077)" fill="#cadefe"/>
        <path id="Trazado_903665" data-name="Trazado 903665" d="M185.868,151.074l2.648,9.888,9.453-2.531Z" transform="translate(-151.493 -151.074)" fill="#a6c8fd"/>
      </g>
      <rect id="Rectángulo_405544" data-name="Rectángulo 405544" width="19.765" height="14.33" transform="matrix(0.966, -0.259, 0.259, 0.966, 8.844, 23.171)" fill="#7663b7"/>
      <g id="Grupo_1108477" data-name="Grupo 1108477" transform="translate(12.847 14.735)">
        <g id="Grupo_1108462" data-name="Grupo 1108462" transform="translate(0 16.327)">
          <g id="Grupo_1108461" data-name="Grupo 1108461">
            <path id="Trazado_903666" data-name="Trazado 903666" d="M163.1,196.21l34.264-9.181a.826.826,0,0,0-.438-1.591q-17.133,4.591-34.264,9.181a.826.826,0,0,0,.438,1.591Z" transform="translate(-162.073 -185.406)" fill="#90bafd"/>
          </g>
        </g>
        <g id="Grupo_1108464" data-name="Grupo 1108464" transform="translate(1.068 20.311)">
          <g id="Grupo_1108463" data-name="Grupo 1108463">
            <path id="Trazado_903667" data-name="Trazado 903667" d="M164.277,200.614q17.131-4.593,34.262-9.182a.826.826,0,0,0-.438-1.591l-34.262,9.182a.826.826,0,0,0,.438,1.591Z" transform="translate(-163.254 -189.809)" fill="#90bafd"/>
          </g>
        </g>
        <g id="Grupo_1108466" data-name="Grupo 1108466" transform="translate(2.135 24.296)">
          <g id="Grupo_1108465" data-name="Grupo 1108465">
            <path id="Trazado_903668" data-name="Trazado 903668" d="M165.456,205.017l34.265-9.181a.826.826,0,0,0-.438-1.591q-17.133,4.591-34.265,9.181a.826.826,0,0,0,.438,1.591Z" transform="translate(-164.432 -194.213)" fill="#90bafd"/>
          </g>
        </g>
        <g id="Grupo_1108468" data-name="Grupo 1108468" transform="translate(3.202 28.28)">
          <g id="Grupo_1108467" data-name="Grupo 1108467">
            <path id="Trazado_903669" data-name="Trazado 903669" d="M166.636,209.42l34.265-9.18a.826.826,0,0,0-.438-1.591l-34.265,9.18a.826.826,0,0,0,.438,1.591Z" transform="translate(-165.612 -198.617)" fill="#90bafd"/>
          </g>
        </g>
        <g id="Grupo_1108470" data-name="Grupo 1108470" transform="translate(4.269 35.145)">
          <g id="Grupo_1108469" data-name="Grupo 1108469">
            <path id="Trazado_903670" data-name="Trazado 903670" d="M167.815,214.128l23.507-6.3a.826.826,0,0,0-.438-1.591l-23.507,6.3a.826.826,0,0,0,.438,1.591Z" transform="translate(-166.792 -206.205)" fill="#90bafd"/>
          </g>
        </g>
        <g id="Grupo_1108472" data-name="Grupo 1108472" transform="translate(17.831)">
          <g id="Grupo_1108471" data-name="Grupo 1108471">
            <path id="Trazado_903671" data-name="Trazado 903671" d="M182.805,172.214q6.028-1.616,12.058-3.231a.826.826,0,0,0-.438-1.591l-12.058,3.231a.826.826,0,0,0,.438,1.591Z" transform="translate(-181.781 -167.36)" fill="#90bafd"/>
          </g>
        </g>
        <g id="Grupo_1108474" data-name="Grupo 1108474" transform="translate(18.898 3.983)">
          <g id="Grupo_1108473" data-name="Grupo 1108473">
            <path id="Trazado_903672" data-name="Trazado 903672" d="M183.984,176.617l12.059-3.231a.826.826,0,0,0-.438-1.591l-12.059,3.231a.826.826,0,0,0,.438,1.591Z" transform="translate(-182.961 -171.763)" fill="#90bafd"/>
          </g>
        </g>
        <g id="Grupo_1108476" data-name="Grupo 1108476" transform="translate(19.966 7.967)">
          <g id="Grupo_1108475" data-name="Grupo 1108475">
            <path id="Trazado_903673" data-name="Trazado 903673" d="M185.164,181.019l12.059-3.23a.826.826,0,0,0-.438-1.591l-12.059,3.23a.826.826,0,0,0,.438,1.591Z" transform="translate(-184.14 -176.166)" fill="#90bafd"/>
          </g>
        </g>
      </g>
    </g>
    <g id="Grupo_1108497" data-name="Grupo 1108497" transform="translate(262.014 140.059)">
      <g id="Grupo_1108479" data-name="Grupo 1108479">
        <path id="Trazado_903674" data-name="Trazado 903674" d="M336.416,157.459l-34.28-9.185-15.588,58.172,43.828,11.743,12.909-48.182Z" transform="translate(-286.548 -148.274)" fill="#cadefe"/>
        <path id="Trazado_903675" data-name="Trazado 903675" d="M341.49,158.455l-2.649,9.888,9.452,2.534Z" transform="translate(-291.528 -149.244)" fill="#a6c8fd"/>
      </g>
      <g id="Grupo_1108496" data-name="Grupo 1108496" transform="translate(7.275 18.423)">
        <g id="Grupo_1108481" data-name="Grupo 1108481" transform="translate(7.473)">
          <g id="Grupo_1108480" data-name="Grupo 1108480">
            <path id="Trazado_903676" data-name="Trazado 903676" d="M303.435,170.26q17.131,4.593,34.264,9.181a.826.826,0,0,0,.438-1.591q-17.133-4.59-34.264-9.181a.826.826,0,0,0-.438,1.591Z" transform="translate(-302.849 -168.637)" fill="#90bafd"/>
          </g>
        </g>
        <g id="Grupo_1108483" data-name="Grupo 1108483" transform="translate(6.406 3.986)">
          <g id="Grupo_1108482" data-name="Grupo 1108482">
            <path id="Trazado_903677" data-name="Trazado 903677" d="M302.255,174.665l34.265,9.18a.826.826,0,0,0,.438-1.591q-17.131-4.591-34.265-9.18a.826.826,0,0,0-.438,1.591Z" transform="translate(-301.67 -173.042)" fill="#90bafd"/>
          </g>
        </g>
        <g id="Grupo_1108485" data-name="Grupo 1108485" transform="translate(5.339 7.969)">
          <g id="Grupo_1108484" data-name="Grupo 1108484">
            <path id="Trazado_903678" data-name="Trazado 903678" d="M301.075,179.067l34.264,9.181a.826.826,0,0,0,.438-1.591q-17.133-4.588-34.264-9.181a.825.825,0,0,0-.438,1.591Z" transform="translate(-300.49 -177.445)" fill="#90bafd"/>
          </g>
        </g>
        <g id="Grupo_1108487" data-name="Grupo 1108487" transform="translate(4.271 11.953)">
          <g id="Grupo_1108486" data-name="Grupo 1108486">
            <path id="Trazado_903679" data-name="Trazado 903679" d="M299.9,183.471l34.265,9.182a.826.826,0,0,0,.438-1.591l-34.265-9.182a.826.826,0,0,0-.438,1.591Z" transform="translate(-299.309 -181.848)" fill="#90bafd"/>
          </g>
        </g>
        <g id="Grupo_1108489" data-name="Grupo 1108489" transform="translate(3.202 15.937)">
          <g id="Grupo_1108488" data-name="Grupo 1108488">
            <path id="Trazado_903680" data-name="Trazado 903680" d="M298.714,187.875q17.133,4.59,34.265,9.182a.826.826,0,0,0,.438-1.591l-34.265-9.182a.826.826,0,0,0-.438,1.591Z" transform="translate(-298.129 -186.252)" fill="#90bafd"/>
          </g>
        </g>
        <g id="Grupo_1108491" data-name="Grupo 1108491" transform="translate(2.135 19.921)">
          <g id="Grupo_1108490" data-name="Grupo 1108490">
            <path id="Trazado_903681" data-name="Trazado 903681" d="M297.534,192.278q17.131,4.591,34.264,9.18a.826.826,0,0,0,.438-1.591q-17.132-4.588-34.264-9.18a.826.826,0,0,0-.438,1.591Z" transform="translate(-296.949 -190.655)" fill="#90bafd"/>
          </g>
        </g>
        <g id="Grupo_1108493" data-name="Grupo 1108493" transform="translate(1.068 23.905)">
          <g id="Grupo_1108492" data-name="Grupo 1108492">
            <path id="Trazado_903682" data-name="Trazado 903682" d="M296.355,196.681q17.133,4.59,34.265,9.181a.826.826,0,0,0,.438-1.591q-17.133-4.588-34.265-9.181a.826.826,0,0,0-.438,1.591Z" transform="translate(-295.769 -195.058)" fill="#90bafd"/>
          </g>
        </g>
        <g id="Grupo_1108495" data-name="Grupo 1108495" transform="translate(0 27.89)">
          <g id="Grupo_1108494" data-name="Grupo 1108494">
            <path id="Trazado_903683" data-name="Trazado 903683" d="M295.175,201.086l23.241,6.227a.826.826,0,0,0,.438-1.591l-23.242-6.227a.826.826,0,0,0-.437,1.591Z" transform="translate(-294.589 -199.463)" fill="#90bafd"/>
          </g>
        </g>
      </g>
      <rect id="Rectángulo_405545" data-name="Rectángulo 405545" width="7.275" height="12.032" transform="matrix(0.259, -0.966, 0.966, 0.259, 16.538, 15.578)" fill="#7663b7"/>
    </g>
  </g>
</svg>
