<svg xmlns="http://www.w3.org/2000/svg" width="610" height="652" viewBox="0 0 610 652">
  <g id="Grupo_1108595" data-name="Grupo 1108595" transform="translate(-495 -5533)">
    <rect id="Rectángulo_405343" data-name="Rectángulo 405343" width="190" height="299" rx="8" transform="translate(705 5533)" fill="#3a1d71"/>
    <rect id="Rectángulo_405352" data-name="Rectángulo 405352" width="190" height="336" rx="8" transform="translate(495 5849)" fill="#3a1d71"/>
    <rect id="Rectángulo_405365" data-name="Rectángulo 405365" width="190" height="336" rx="8" transform="translate(915 5849)" fill="#3a1d71"/>
    <text id="Server_Computer" data-name="Server Computer" transform="translate(740 5560)" fill="#fff" font-size="16" font-family="Roboto-BoldItalic, Roboto" font-weight="700" font-style="italic"><tspan x="0" y="0">Server Computer</tspan></text>
    <text id="Computer_A" data-name="Computer A" transform="translate(546 5876)" fill="#fff" font-size="16" font-family="Roboto-BoldItalic, Roboto" font-weight="700" font-style="italic"><tspan x="0" y="0">Computer A</tspan></text>
    <text id="Computer_B" data-name="Computer B" transform="translate(966 5876)" fill="#fff" font-size="16" font-family="Roboto-BoldItalic, Roboto" font-weight="700" font-style="italic"><tspan x="0" y="0">Computer B</tspan></text>
    <rect id="Rectángulo_405346" data-name="Rectángulo 405346" width="170" height="236" rx="23" transform="translate(715 5581)" fill="#8722e2"/>
    <rect id="Rectángulo_405353" data-name="Rectángulo 405353" width="170" height="205" rx="23" transform="translate(505 5960)" fill="#8722e2"/>
    <rect id="Rectángulo_405366" data-name="Rectángulo 405366" width="170" height="205" rx="23" transform="translate(925 5960)" fill="#8722e2"/>
    <rect id="Rectángulo_405347" data-name="Rectángulo 405347" width="170" height="28.25" transform="translate(715 5581)" fill="#f2e5fd"/>
    <rect id="Rectángulo_405354" data-name="Rectángulo 405354" width="170" height="28.25" transform="translate(505 5960)" fill="#f2e5fd"/>
    <rect id="Rectángulo_405367" data-name="Rectángulo 405367" width="170" height="28.25" transform="translate(925 5960)" fill="#f2e5fd"/>
    <text id="Version_Database" data-name="Version Database" transform="translate(739 5599)" fill="#3a1d71" font-size="16" font-family="Roboto-BoldItalic, Roboto" font-weight="700" font-style="italic"><tspan x="0" y="0">Version Database</tspan></text>
    <text id="Version_Database-2" data-name="Version Database" transform="translate(529 5978)" fill="#3a1d71" font-size="16" font-family="Roboto-BoldItalic, Roboto" font-weight="700" font-style="italic"><tspan x="0" y="0">Version Database</tspan></text>
    <text id="Version_Database-3" data-name="Version Database" transform="translate(949 5978)" fill="#3a1d71" font-size="16" font-family="Roboto-BoldItalic, Roboto" font-weight="700" font-style="italic"><tspan x="0" y="0">Version Database</tspan></text>
    <rect id="Rectángulo_405348" data-name="Rectángulo 405348" width="106" height="45" rx="22.5" transform="translate(745 5631)" fill="#3a1d71"/>
    <rect id="Rectángulo_405355" data-name="Rectángulo 405355" width="106" height="45" rx="22.5" transform="translate(535 5999)" fill="#3a1d71"/>
    <rect id="Rectángulo_405368" data-name="Rectángulo 405368" width="106" height="45" rx="22.5" transform="translate(955 5999)" fill="#3a1d71"/>
    <rect id="Rectángulo_405349" data-name="Rectángulo 405349" width="106" height="45" rx="22.5" transform="translate(745 5686)" fill="#3a1d71"/>
    <rect id="Rectángulo_405356" data-name="Rectángulo 405356" width="106" height="45" rx="22.5" transform="translate(535 6054)" fill="#3a1d71"/>
    <rect id="Rectángulo_405369" data-name="Rectángulo 405369" width="106" height="45" rx="22.5" transform="translate(955 6054)" fill="#3a1d71"/>
    <rect id="Rectángulo_405350" data-name="Rectángulo 405350" width="106" height="45" rx="22.5" transform="translate(745 5741)" fill="#3a1d71"/>
    <rect id="Rectángulo_405357" data-name="Rectángulo 405357" width="106" height="45" rx="22.5" transform="translate(535 6109)" fill="#3a1d71"/>
    <rect id="Rectángulo_405370" data-name="Rectángulo 405370" width="106" height="45" rx="22.5" transform="translate(955 6109)" fill="#3a1d71"/>
    <text id="Versión_3" data-name="Versión 3" transform="translate(764 5659)" fill="#fff" font-size="16" font-family="Roboto-Bold, Roboto" font-weight="700"><tspan x="0" y="0">Versión 3</tspan></text>
    <text id="Versión_3-2" data-name="Versión 3" transform="translate(554 6027)" fill="#fff" font-size="16" font-family="Roboto-Bold, Roboto" font-weight="700"><tspan x="0" y="0">Versión 3</tspan></text>
    <text id="Versión_3-3" data-name="Versión 3" transform="translate(974 6027)" fill="#fff" font-size="16" font-family="Roboto-Bold, Roboto" font-weight="700"><tspan x="0" y="0">Versión 3</tspan></text>
    <text id="Versión_2" data-name="Versión 2" transform="translate(764 5714)" fill="#fff" font-size="16" font-family="Roboto-Bold, Roboto" font-weight="700"><tspan x="0" y="0">Versión 2</tspan></text>
    <text id="Versión_2-2" data-name="Versión 2" transform="translate(554 6082)" fill="#fff" font-size="16" font-family="Roboto-Bold, Roboto" font-weight="700"><tspan x="0" y="0">Versión 2</tspan></text>
    <text id="Versión_2-3" data-name="Versión 2" transform="translate(974 6082)" fill="#fff" font-size="16" font-family="Roboto-Bold, Roboto" font-weight="700"><tspan x="0" y="0">Versión 2</tspan></text>
    <text id="Versión_1" data-name="Versión 1" transform="translate(764 5769)" fill="#fff" font-size="16" font-family="Roboto-Bold, Roboto" font-weight="700"><tspan x="0" y="0">Versión 1</tspan></text>
    <text id="Versión_1-2" data-name="Versión 1" transform="translate(554 6137)" fill="#fff" font-size="16" font-family="Roboto-Bold, Roboto" font-weight="700"><tspan x="0" y="0">Versión 1</tspan></text>
    <text id="Versión_1-3" data-name="Versión 1" transform="translate(974 6137)" fill="#fff" font-size="16" font-family="Roboto-Bold, Roboto" font-weight="700"><tspan x="0" y="0">Versión 1</tspan></text>
    <rect id="Rectángulo_405364" data-name="Rectángulo 405364" width="106" height="45" rx="22.5" transform="translate(539 5893)" fill="#00ffdf"/>
    <rect id="Rectángulo_405371" data-name="Rectángulo 405371" width="106" height="45" rx="22.5" transform="translate(959 5893)" fill="#00ffdf"/>
    <text id="File" transform="translate(579 5921)" fill="#3a1d71" font-size="16" font-family="Roboto-BoldItalic, Roboto" font-weight="700" font-style="italic"><tspan x="0" y="0">File</tspan></text>
    <text id="File-2" data-name="File" transform="translate(999 5921)" fill="#3a1d71" font-size="16" font-family="Roboto-BoldItalic, Roboto" font-weight="700" font-style="italic"><tspan x="0" y="0">File</tspan></text>
    <line id="Línea_1805" data-name="Línea 1805" x1="107" y1="152.999" transform="translate(903.5 5684.501)" fill="none" stroke="#8722e2" stroke-linecap="round" stroke-width="3"/>
    <line id="Línea_1806" data-name="Línea 1806" y1="152.998" x2="107" transform="translate(588.301 5684.501)" fill="none" stroke="#8722e2" stroke-linecap="round" stroke-width="3"/>
    <line id="Línea_1807" data-name="Línea 1807" x2="210.5" transform="translate(693 6021.5)" fill="none" stroke="#8722e2" stroke-linecap="round" stroke-width="3"/>
    <path id="Polígono_9" data-name="Polígono 9" d="M6,0l6,10H0Z" transform="translate(893.69 5682.39) rotate(-39)" fill="#8722e2"/>
    <path id="Polígono_12" data-name="Polígono 12" d="M6,0l6,10H0Z" transform="translate(695.784 5674.838) rotate(39)" fill="#8722e2"/>
    <path id="Polígono_11" data-name="Polígono 11" d="M6,0l6,10H0Z" transform="translate(1019.801 5839.986) rotate(143)" fill="#8722e2"/>
    <path id="Polígono_13" data-name="Polígono 13" d="M6,0l6,10H0Z" transform="matrix(-0.799, -0.602, 0.602, -0.799, 588.583, 5847.208)" fill="#8722e2"/>
    <path id="Polígono_14" data-name="Polígono 14" d="M6,0l6,10H0Z" transform="translate(904.696 6030.226) rotate(-150)" fill="#8722e2"/>
    <path id="Polígono_15" data-name="Polígono 15" d="M6,0l6,10H0Z" transform="translate(691.304 6012.566) rotate(30)" fill="#8722e2"/>
    <g id="Grupo_1108100" data-name="Grupo 1108100">
      <line id="Línea_1808" data-name="Línea 1808" y2="9" transform="translate(590 5948.5)" fill="none" stroke="#00ffdf" stroke-linecap="round" stroke-width="3"/>
      <path id="Polígono_16" data-name="Polígono 16" d="M6,0l6,10H0Z" transform="translate(584 5939.33)" fill="#00ffdf"/>
    </g>
    <g id="Grupo_1108101" data-name="Grupo 1108101" transform="translate(420)">
      <line id="Línea_1808-2" data-name="Línea 1808" y2="9" transform="translate(590 5948.5)" fill="none" stroke="#00ffdf" stroke-linecap="round" stroke-width="3"/>
      <path id="Polígono_16-2" data-name="Polígono 16" d="M6,0l6,10H0Z" transform="translate(584 5939.33)" fill="#00ffdf"/>
    </g>
  </g>
</svg>
