<svg xmlns="http://www.w3.org/2000/svg" width="62" height="48.222" viewBox="0 0 62 48.222">
  <path id="check-to-slot-solid" d="M10.333,37.167A5.168,5.168,0,0,1,15.5,32h31a5.168,5.168,0,0,1,5.167,5.167V69.889H10.333Zm33.691,5.059a2.573,2.573,0,0,0-3.649,0L28.427,54.174l-5.059-5.059a2.58,2.58,0,0,0-3.649,3.649l6.889,6.889a2.573,2.573,0,0,0,3.649,0L44.024,45.885a2.573,2.573,0,0,0,0-3.649ZM0,64.722a5.168,5.168,0,0,1,5.167-5.167H6.889V73.333H55.111V59.556h1.722A5.168,5.168,0,0,1,62,64.722V75.056a5.168,5.168,0,0,1-5.167,5.167H5.167A5.168,5.168,0,0,1,0,75.056Z" transform="translate(0 -32)" fill="#00ffdf"/>
</svg>
