<svg xmlns="http://www.w3.org/2000/svg" width="57.483" height="51.096" viewBox="0 0 57.483 51.096">
  <path id="file-circle-check-solid" d="M0,6.387A6.393,6.393,0,0,1,6.387,0H22.354V12.774a3.19,3.19,0,0,0,3.193,3.193H38.322V19.82A17.576,17.576,0,0,0,32.9,51.026a6.229,6.229,0,0,1-.968.07H6.387A6.393,6.393,0,0,1,0,44.709Zm38.322,6.387H25.548V0Zm-9.58,23.951A14.371,14.371,0,1,1,43.112,51.1,14.371,14.371,0,0,1,28.741,36.725ZM49.828,32.4a1.6,1.6,0,0,0-2.255,0l-6.058,6.058L38.651,35.6A1.595,1.595,0,0,0,36.4,37.853l3.992,3.992a1.6,1.6,0,0,0,2.255,0l7.185-7.185a1.6,1.6,0,0,0,0-2.255Z" fill="#00ffdf"/>
</svg>
