<svg xmlns="http://www.w3.org/2000/svg" xmlns:xlink="http://www.w3.org/1999/xlink" width="278.084" height="225.864" viewBox="0 0 278.084 225.864">
  <defs>
    <linearGradient id="linear-gradient" x1="0.941" y1="0.022" x2="-0.044" y2="1.089" gradientUnits="objectBoundingBox">
      <stop offset="0" stop-color="#d2e7fa"/>
      <stop offset="0.177" stop-color="#cee4f9"/>
      <stop offset="0.363" stop-color="#c1ddf6"/>
      <stop offset="0.553" stop-color="#acd1f1"/>
      <stop offset="0.747" stop-color="#8fbfe9"/>
      <stop offset="0.94" stop-color="#69a9e0"/>
      <stop offset="1" stop-color="#5ca1dd"/>
    </linearGradient>
    <linearGradient id="linear-gradient-2" x1="0.59" y1="0.295" x2="0.026" y2="1.576" xlink:href="#linear-gradient"/>
  </defs>
  <g id="Grupo_1108547" data-name="Grupo 1108547" transform="translate(5140.176 12311.075)">
    <g id="Grupo_1108503" data-name="Grupo 1108503" transform="translate(-5033.523 -12195.167)">
      <g id="Grupo_1108501" data-name="Grupo 1108501" transform="translate(7.887 0)">
        <path id="Trazado_903696" data-name="Trazado 903696" d="M268.316,262.007l-5.354,5.08,4.105-6.034a33.118,33.118,0,0,0-13.59-5.639l-2.4,2.352s.566-1.283,1.146-2.563a49.652,49.652,0,0,0-10.078-.452,63.474,63.474,0,0,0,4.272,13.8l2.256-2.611-1.165,3.55,1.827-1.029L247.9,271.54a33.3,33.3,0,0,0,9.327,11.093l3.708-5.344-1.6,6.771a29.256,29.256,0,0,0,21.028,3.464,33.126,33.126,0,0,0-2.21-11.608l-2.689,2.326,2.071-3.862A31.9,31.9,0,0,0,268.316,262.007Z" transform="translate(-242.149 -254.676)" fill="#52909d"/>
        <path id="Trazado_903697" data-name="Trazado 903697" d="M249.669,260.611S281.8,290.1,284.813,292.825s4.583.75,1.809-1.717C284.81,289.494,249.669,260.611,249.669,260.611Z" transform="translate(-243.952 -256.099)" fill="#3f6f7c"/>
      </g>
      <path id="Trazado_903698" data-name="Trazado 903698" d="M251.33,280.655c-2.313-.4-1.594,2.141-.613,3.525s5.287,7.3,5.287,7.3c-.449.127-1.428.362-1.873.487l-1.047.3c-1.394-1.171-8.713-7.2-10.66-6.355-2.154.934-.462,2.46,1.424,3.282s7.72,3.546,7.72,3.546l-1.1.382-1.731.607c-.568.192-1.118.392-1.64.625l-.211.089c-1.179-.953-7.741-6.159-9.481-5.4-1.913.83-.094,2.18,1.265,2.916s6.751,3.1,6.751,3.1l-1.288.539c-.926.364-1.739.781-2.466,1.133l-.874.425.217-.136s-7.109-4.24-8.565-3.325-.316,1.717,1.393,2.22,5.981,1.716,5.981,1.716l-.033.016-.725.353c-.684.149-5.36,1.305-6.929,5.438,0,0-.926,1.741,1.367.515,2.24-1.2,5.49-5.742,5.639-5.953l1.409-.631c-.459,1.082-2.121,5.173-1.81,7.02.36,2.137,2.312-.517,2.312-.517s2.175-3.746-.255-6.613l.924-.414c.737-.328,1.56-.718,2.5-1.052l1.731-.661c-.518,1.321-3.179,8.325-1.894,9.708,1.42,1.528,2.227-.372,2.329-2.164s.679-7.97.679-7.97l.147-.056c.527-.214,1.08-.4,1.652-.57l1.74-.55,1.8-.562.643-.16c-.87,1.11-3.573,4.837-3.862,8.694-.345,4.6,1.252,2.849,1.252,2.849s2.814-1.939,2.882-11.611l.958-.239,1.9-.474c.642-.134,1.294-.239,1.941-.36l1.942-.345.031,0c-1.149,1.416-6.918,8.673-6.082,10.617.928,2.157,2.616.293,3.286-1.415s3.345-9.263,3.345-9.263L262,291.1a26.73,26.73,0,0,1,2.766-.208c-.56.887-2.378,3.883-2.386,5.4-.01,1.791,1.917-.09,1.917-.09s2.2-2.671.769-5.323c.24-.009.48-.019.717-.03.613-.048,1.217.014,1.806.017.589.03,1.168,0,1.725.078l1.625.16c.112.011.217.032.327.047a15.688,15.688,0,0,0-2.251,3.369c-.335.794-.13,1.522,1.289.385,1.188-.951,1.194-3.06,1.164-3.725.332.053.658.113.974.161l.7.119.661.159c.428.11.842.19,1.216.309l.325.1a6.232,6.232,0,0,0-1.52,3.58c.017.841.143,1.52,1.336.15.89-1.023.693-2.787.535-3.618l.37.117c.32.109.6.233.865.331a11.764,11.764,0,0,1,1.153.53c.236.122.385.217.385.217l.012.008a.671.671,0,1,0,.7-1.146l-.021-.013s-.133-.081-.452-.238a12.682,12.682,0,0,0-1.308-.554c-.284-.1-.594-.219-.939-.325l-.23-.065c-.158-.931-.5-3.832-2.059-5.183-.61-.528-1.707-.4-1.388,1.2a6.752,6.752,0,0,0,2.925,3.838l-.369-.1c-.4-.113-.834-.183-1.286-.284l-.7-.144-.737-.1c-.474-.058-.965-.145-1.474-.186a12.493,12.493,0,0,0-2.57-4.3c-.813-.662-1.742-.2-1.222,1.595a4.824,4.824,0,0,0,1.906,2.573c-.541-.043-1.1-.006-1.664-.017-.605.017-1.225-.026-1.85.042l-.43.032c-.818-1.4-5.686-9.595-7.832-9.5-2.345.109-1.309,2,.166,3.574s5.959,6.054,5.959,6.054c-.568.05-1.14.113-1.711.213l-1.964.284-1.955.411c-.4.087-.791.17-1.187.255C256.061,289,253.317,281,251.33,280.655Z" transform="translate(-231.775 -260.86)" fill="#28484f"/>
      <g id="Grupo_1108502" data-name="Grupo 1108502" transform="translate(14.545 27.39)">
        <g id="_x34__1_">
          <path id="XMLID_2_" d="M252.806,323.937h0a.86.86,0,0,1-.295-.512,20.628,20.628,0,0,0-.515-3.277c-.4-1.048-1.167-.85-.927-2.282s.366-.962.2-2.176-.709-.9-.025-1.8,1.632-.954,1.328-2.069-1.14-1.009-.516-1.8,3.345-2.877,3.565-4.435-.835-.385.393-2.593,1.945-2.088,2.768-3.1-.013-.9,1.282-2.036a10.944,10.944,0,0,1,8.478-2.263c3.2.569,4.051,1.8,5.04,2.277h0c.683.858,2.076,1.416,3.345,4.4a10.947,10.947,0,0,1-.313,8.77c-.816,1.514-.9.676-1.7,1.7s-.522,1.7-2.4,3.389-.97.4-2.44.962-2.891,3.679-3.527,4.465-.72-.052-1.874-.1-.987.887-1.72,1.756-.544.268-1.764.378-.733.128-2.076.681-1.321-.241-2.432-.395a20.485,20.485,0,0,0-3.309.23A.86.86,0,0,1,252.806,323.937Z" transform="translate(-250.908 -291.841)" fill="#3f6f7c" fill-rule="evenodd"/>
          <path id="XMLID_1_" d="M271.248,299.109c.378-.456,1.04-1.2,1.9-2.081l.56-.6a.186.186,0,0,1,.09-.052,33.646,33.646,0,0,1,7.342-5.629c.407-.215.69.411.314.579a26.878,26.878,0,0,0-7.559,5.439q-1.225,1.287-2.456,2.642c-.075,2.437,1.962,8.844,2.957,11.152-1.054-2.111-3.055-8.508-3.08-11.017q-1.633,1.8-3.257,3.693c-.21,1.5,1.191,9.475,1.765,11.052a51.322,51.322,0,0,1-1.9-10.9c-1.327,1.551-2.639,3.137-3.921,4.741.282,1.511.163,3.949.295,5.575a8.57,8.57,0,0,0,1.053,3.941l.36.423c.144.124.073.061.214.189-1.3-.97-1.575-3.035-1.71-4.546-.141-1.575-.047-3.96-.312-5.455-1.108,1.389-2.193,2.791-3.245,4.193.151,1.561.411,5.776.971,6.85.116.128.059.063.171.2l-.1-.089c-.658-.632-1.006-5.287-1.155-6.813-1.317,1.761-2.581,3.522-3.77,5.258-.945,1.381-1.789,2.755-2.7,4.142a49.718,49.718,0,0,1,2.836-4.605q1.251-1.868,2.617-3.768a35.8,35.8,0,0,0-4.7.415c-.252.028-.438.036-.691.053.457-.07.229-.038.686-.1a27.9,27.9,0,0,1,4.79-.493q1.277-1.773,2.632-3.548c-.933.117-2.1.187-3.025.264a12.247,12.247,0,0,1-3.242-.132,16.156,16.156,0,0,0,3.234.045c.818-.079,2.291-.29,3.126-.3,1.171-1.531,2.376-3.055,3.6-4.554a36.3,36.3,0,0,1-9.452-.366c2.5.276,7.069.737,9.57.222,1.057-1.289,2.129-2.56,3.206-3.8a19.212,19.212,0,0,1-5.364.178c-1.7-.094-3.525-.236-5.209-.463.633.048,1.266.108,1.9.16,1.957.16,6.828.607,8.825-.048Q270.339,300.119,271.248,299.109Z" transform="translate(-251.67 -290.704)" fill="#28484f" fill-rule="evenodd"/>
        </g>
      </g>
    </g>
    <g id="Grupo_1108514" data-name="Grupo 1108514" transform="translate(-5075.783 -12185.837)">
      <g id="Grupo_1108511" data-name="Grupo 1108511" transform="translate(11.541 30.956)">
        <g id="Grupo_1108510" data-name="Grupo 1108510">
          <path id="Trazado_903706" data-name="Trazado 903706" d="M211.925,322.681l-2.628-3.549,3.286,2.877a19.808,19.808,0,0,0,4.336-7.662l-1.223-1.593s.721.429,1.439.867a29.67,29.67,0,0,0,1-5.953,37.921,37.921,0,0,0-8.5,1.536l1.387,1.53-2.024-.949.479,1.16-1.727-1.078a19.926,19.926,0,0,0-7.265,4.734l2.9,2.591-3.905-1.44a17.507,17.507,0,0,0-3.584,12.237,19.82,19.82,0,0,0,7.054-.47l-1.186-1.766,2.143,1.511A19.124,19.124,0,0,0,211.925,322.681Z" transform="translate(-192.435 -307.668)" fill="#3f6f7c"/>
          <path id="Trazado_903707" data-name="Trazado 903707" d="M214.017,311.709s-19.846,16.94-21.684,18.534-.778,2.668.889,1.2C194.311,330.482,214.017,311.709,214.017,311.709Z" transform="translate(-191.367 -308.637)" fill="#28484f"/>
        </g>
      </g>
      <g id="Grupo_1108512" data-name="Grupo 1108512" transform="translate(4.816 48.34)">
        <g id="_x34__4_">
          <path id="XMLID_8_" d="M226.125,350.263h0a.876.876,0,0,0,.006-.6,20.974,20.974,0,0,1-1.182-3.174c-.172-1.132.613-1.34-.318-2.5s-.807-.673-1.268-1.836.182-1.152-.881-1.618-1.93-.031-2.218-1.175.509-1.469-.444-1.864-4.417-.884-5.393-2.161.55-.761-1.648-2.11-2.776-.884-4.013-1.368-.44-.809-2.16-1.169a11.177,11.177,0,0,0-8.677,2.232c-2.559,2.107-2.7,3.634-3.344,4.55h0c-.177,1.105-1.138,2.3-.77,5.594a11.176,11.176,0,0,0,4.671,7.646c1.485.939,1.139.151,2.364.665s1.315,1.251,3.832,1.814,1.063-.13,2.653-.366,4.415,1.825,5.375,2.206.614-.407,1.618-1.028,1.323.295,2.41.7.618-.034,1.759-.547.716-.254,2.188-.433,1.055-.876,1.966-1.568a21.034,21.034,0,0,1,3.059-1.454A.877.877,0,0,0,226.125,350.263Z" transform="translate(-185.209 -330.535)" fill="#28484f" fill-rule="evenodd"/>
          <path id="XMLID_7_" d="M195.842,338.967c-.565-.217-1.527-.547-2.736-.9q-.4-.128-.8-.252a.184.184,0,0,0-.107,0,34.348,34.348,0,0,0-9.352-1.331.336.336,0,0,0,.011.673,27.42,27.42,0,0,1,9.45,1.054q1.734.533,3.508,1.121c1.287,2.13,2.684,8.851,2.954,11.4-.119-2.407-1.542-9.1-2.777-11.346,1.57.522,3.156,1.076,4.747,1.655.938,1.23,3.686,9.026,3.964,10.718a52.388,52.388,0,0,0-3.77-10.648c1.958.715,3.92,1.47,5.863,2.254.506,1.485,1.832,3.6,2.529,5.107a8.743,8.743,0,0,1,1.037,4.034l-.109.557c-.066.182-.034.09-.1.275.673-1.516-.118-3.489-.756-4.9-.664-1.472-1.942-3.547-2.455-5.01,1.682.681,3.349,1.385,4.986,2.106.648,1.465,2.526,5.345,2.567,6.581-.039.173-.021.086-.054.261l.041-.127c.268-.891-1.752-5.208-2.385-6.641,2.054.907,4.06,1.841,5.988,2.791,1.532.755,2.972,1.555,4.477,2.333a50.706,50.706,0,0,0-4.83-2.678c-1.366-.69-2.776-1.372-4.216-2.041a36.577,36.577,0,0,1,4.387-1.983c.239-.1.408-.186.642-.3-.441.166-.222.081-.658.258a28.528,28.528,0,0,0-4.51,1.96c-1.349-.625-2.725-1.239-4.118-1.839.889-.363,1.958-.883,2.823-1.28a12.494,12.494,0,0,0,2.818-1.74,16.484,16.484,0,0,1-2.855,1.659c-.767.339-2.184.889-2.931,1.3-1.809-.776-3.645-1.527-5.487-2.246a37.056,37.056,0,0,0,8.226-5.059c-2.082,1.495-5.921,4.2-8.4,4.99-1.586-.617-3.176-1.211-4.756-1.775a19.646,19.646,0,0,0,4.862-2.528c1.463-.933,3.019-1.976,4.4-3.02-.54.36-1.072.73-1.61,1.093-1.661,1.122-5.772,3.959-7.876,4.377Q197.159,339.41,195.842,338.967Z" transform="translate(-182.521 -331.465)" fill="#3f6f7c" fill-rule="evenodd"/>
        </g>
      </g>
      <g id="Grupo_1108513" data-name="Grupo 1108513" transform="translate(0 0)">
        <path id="Trazado_903708" data-name="Trazado 903708" d="M194.69,302.066a10.422,10.422,0,0,0-5.664-4.555,18.624,18.624,0,0,0-5.521-.794,50.5,50.5,0,0,0,9.138-2.91,7.685,7.685,0,0,0,5.234,3.47c3.981.658,8.514-2.139,8.464-2.161a9.719,9.719,0,0,0-6.1-2.947,16.4,16.4,0,0,0-5.008.445,50.64,50.64,0,0,0,7.6-4.64,6.636,6.636,0,0,0,4.912,1.84c3.367-.175,6.583-3.207,6.546-3.216a8.135,8.135,0,0,0-5.551-1.418,12.819,12.819,0,0,0-3.8,1.148,50.562,50.562,0,0,0,4.936-4.651,5.688,5.688,0,0,0,4.312.742c2.761-.643,5-3.584,4.977-3.587a6.791,6.791,0,0,0-4.831-.42,10.221,10.221,0,0,0-2.793,1.378q1.441-1.717,2.735-3.57a.732.732,0,0,0,.062-.128,8.836,8.836,0,0,0,3.6-3.391,9.207,9.207,0,0,0,.957-5.752,13.487,13.487,0,0,0-3.9,4.1,12.361,12.361,0,0,0-1.375,4.551.716.716,0,0,0-.1.1q-1.268,1.818-2.685,3.505a6.8,6.8,0,0,0,.63-2.937,5.985,5.985,0,0,0-2.169-4.146,10.959,10.959,0,0,0-1.48,4.894,7.128,7.128,0,0,0,1.384,4.041,49.62,49.62,0,0,1-4.846,4.567,7.894,7.894,0,0,0,1.471-3.506,7.017,7.017,0,0,0-1.765-5.2,12.784,12.784,0,0,0-2.582,5.286,8.657,8.657,0,0,0,.8,5.04,49.725,49.725,0,0,1-7.466,4.555,9.158,9.158,0,0,0,2.816-3.873,8.185,8.185,0,0,0-.835-6.4,15.152,15.152,0,0,0-4.142,5.367,10.538,10.538,0,0,0-.382,6.075,49.565,49.565,0,0,1-8.972,2.858,9.816,9.816,0,0,0,4.077-3.377,8.659,8.659,0,0,0,.715-6.859,16.754,16.754,0,0,0-5.649,4.532,11.389,11.389,0,0,0-2.019,6.238q-1.826.284-3.686.433c-.327.027-.579.248-.563.5a.541.541,0,0,0,.635.412q1.894-.152,3.755-.441a8.136,8.136,0,0,0,4.612,4.976C189.237,303.934,194.744,302.1,194.69,302.066Z" transform="translate(-176.186 -266.949)" fill="#52909d"/>
        <path id="Trazado_903709" data-name="Trazado 903709" d="M196.809,281.522a15.152,15.152,0,0,0-4.142,5.367,10.53,10.53,0,0,0-.382,6.075,49.607,49.607,0,0,1-8.972,2.857,9.816,9.816,0,0,0,4.077-3.377,8.659,8.659,0,0,0,.715-6.859,16.753,16.753,0,0,0-5.649,4.532,11.389,11.389,0,0,0-2.019,6.238q-1.826.284-3.686.433c-.327.027-.579.248-.563.5a.541.541,0,0,0,.635.412q1.894-.152,3.755-.441a8.137,8.137,0,0,0,4.612,4.976c4.049,1.7,9.557-.134,9.5-.171a10.418,10.418,0,0,0-5.664-4.555,18.624,18.624,0,0,0-5.521-.794,50.5,50.5,0,0,0,9.138-2.91,7.685,7.685,0,0,0,5.234,3.47c3.981.658,8.514-2.139,8.464-2.161a9.72,9.72,0,0,0-6.1-2.947,16.4,16.4,0,0,0-5.008.445,50.715,50.715,0,0,0,7.6-4.64,6.636,6.636,0,0,0,4.912,1.84c3.367-.175,6.583-3.207,6.546-3.216a8.135,8.135,0,0,0-5.551-1.418,12.819,12.819,0,0,0-3.8,1.148,50.562,50.562,0,0,0,4.936-4.651,5.688,5.688,0,0,0,4.312.742c2.761-.643,5-3.584,4.977-3.587a6.791,6.791,0,0,0-4.831-.42,10.221,10.221,0,0,0-2.793,1.378q1.441-1.717,2.735-3.57a.733.733,0,0,0,.062-.128,8.836,8.836,0,0,0,3.6-3.391,9.207,9.207,0,0,0,.957-5.752,13.487,13.487,0,0,0-3.9,4.1,12.361,12.361,0,0,0-1.375,4.551.673.673,0,0,0-.1.1q-1.268,1.818-2.685,3.505a6.8,6.8,0,0,0,.63-2.937,5.984,5.984,0,0,0-2.169-4.146,10.958,10.958,0,0,0-1.48,4.894,7.128,7.128,0,0,0,1.384,4.041,49.618,49.618,0,0,1-4.846,4.567,7.9,7.9,0,0,0,1.471-3.506,7.017,7.017,0,0,0-1.765-5.2,12.784,12.784,0,0,0-2.582,5.286,8.657,8.657,0,0,0,.8,5.04,49.73,49.73,0,0,1-7.466,4.555,9.158,9.158,0,0,0,2.816-3.873A8.191,8.191,0,0,0,196.809,281.522Z" transform="translate(-176.186 -266.949)" fill="#52909d"/>
      </g>
    </g>
    <path id="Trazado_903717" data-name="Trazado 903717" d="M379.05,253.874l7.067,1.413-4.861,4.073Z" transform="translate(-5300.611 -12449.65)" fill="#3f5a75"/>
    <g id="Grupo_1108546" data-name="Grupo 1108546" transform="translate(-5140.176 -12310.624)">
      <g id="Grupo_1108525" data-name="Grupo 1108525" transform="translate(0 57.981)">
        <g id="Grupo_1108524" data-name="Grupo 1108524">
          <g id="Grupo_1108523" data-name="Grupo 1108523">
            <g id="Grupo_1108522" data-name="Grupo 1108522">
              <path id="Trazado_903718" data-name="Trazado 903718" d="M105.854,179.072h58.884a14.37,14.37,0,0,1,14.37,14.371V332.134a14.37,14.37,0,0,1-14.37,14.37H102.261c-7.936,0-10.778-6.434-10.778-14.37V193.442A14.371,14.371,0,0,1,105.854,179.072Z" transform="translate(-91.483 -179.072)" fill="#a7a7a7"/>
              <path id="Trazado_903719" data-name="Trazado 903719" d="M102.747,345.453c-7.637,0-9.241-6.979-9.241-12.833V193.926a12.848,12.848,0,0,1,12.833-12.833h58.884a12.847,12.847,0,0,1,12.833,12.833V332.619a12.847,12.847,0,0,1-12.833,12.833H102.747Z" transform="translate(-91.968 -179.557)" fill="#494949"/>
              <path id="Trazado_903720" data-name="Trazado 903720" d="M137.028,190.122H153.6c.342,0,.619.4.619.9s-.277.9-.619.9H137.028c-.342,0-.619-.4-.619-.9S136.686,190.122,137.028,190.122Z" transform="translate(-102.255 -181.722)" fill="#152316"/>
            </g>
            <path id="Trazado_903721" data-name="Trazado 903721" d="M164.71,183.667h-5.67l-5.524,6.77a7.059,7.059,0,0,1-5.469,2.611H124.776a7.056,7.056,0,0,1-5.468-2.611l-5.524-6.77h-5.669A12.447,12.447,0,0,0,95.78,196.195V331.586c0,5.715,1.541,12.528,8.882,12.528H164.71a12.446,12.446,0,0,0,12.334-12.528V196.195A12.445,12.445,0,0,0,164.71,183.667Z" transform="translate(-92.513 -180.174)" fill="url(#linear-gradient)"/>
            <path id="Trazado_903722" data-name="Trazado 903722" d="M205.854,248.67c0,24.523-.071,44.4-.16,44.4s-.16-19.881-.16-44.4.071-44.4.16-44.4S205.854,224.147,205.854,248.67Z" transform="translate(-118.83 -185.113)" fill="#d8d8d8"/>
            <path id="Trazado_903723" data-name="Trazado 903723" d="M92.531,248.67c0,24.523-.071,44.4-.16,44.4s-.16-19.881-.16-44.4.071-44.4.16-44.4S92.531,224.147,92.531,248.67Z" transform="translate(-91.658 -185.113)" fill="#d8d8d8"/>
            <path id="Trazado_903724" data-name="Trazado 903724" d="M141.76,179.986c-13.872,0-25.118-.071-25.118-.16s11.245-.16,25.118-.16,25.118.071,25.118.16S155.632,179.986,141.76,179.986Z" transform="translate(-97.516 -179.215)" fill="#d8d8d8"/>
            <path id="Trazado_903725" data-name="Trazado 903725" d="M163.362,190.894a1.006,1.006,0,1,1-1.006-1.006A1.005,1.005,0,0,1,163.362,190.894Z" transform="translate(-108.235 -181.665)" fill="#152316"/>
            <path id="Trazado_903726" data-name="Trazado 903726" d="M140.233,398.355c-13.872,0-25.118-.071-25.118-.16s11.245-.16,25.118-.16,25.118.071,25.118.16S154.1,398.355,140.233,398.355Z" transform="translate(-97.149 -231.574)" fill="#d8d8d8"/>
          </g>
        </g>
      </g>
      <g id="Grupo_1108527" data-name="Grupo 1108527" transform="translate(108.193 121.927)">
        <g id="Grupo_1108526" data-name="Grupo 1108526">
          <path id="XMLID_117_" d="M383.288,340.949l-111.8-.087a1.478,1.478,0,0,1-1.476-1.479l.056-71.678a4.522,4.522,0,0,1,4.525-4.518l105.71.083a4.522,4.522,0,0,1,4.518,4.525l-.056,71.678a1.477,1.477,0,0,1-1.478,1.476" transform="translate(-242.483 -263.187)" fill="#2f3339"/>
          <path id="XMLID_118_" d="M381.816,338.172l-106.128-.083.055-69.57,106.128.084-.055,69.569" transform="translate(-243.844 -264.466)" fill="url(#linear-gradient-2)"/>
          <path id="XMLID_248_" d="M400.131,397.537l-162.775-.128a3.558,3.558,0,0,1-3.555-3.561v-.127l169.891.133v.127A3.558,3.558,0,0,1,400.131,397.537Z" transform="translate(-233.8 -294.486)" fill="#929496"/>
          <path id="XMLID_249_" d="M399.763,387.91l-162.053-.127c-2.944,0-4.577-.593-3.65-1.319l25.785-20.172a10.168,10.168,0,0,1,5.225-1.312l107.779.084a10.035,10.035,0,0,1,5.2,1.32l25.39,20.212C404.353,387.325,402.707,387.912,399.763,387.91Z" transform="translate(-233.8 -287.594)" fill="#d0d2d3"/>
          <path id="XMLID_250_" d="M366.846,390.554l-62.257-.049,4.2-8.075,54.02.043Z" transform="translate(-250.774 -291.779)" fill="#bbbdbf"/>
          <path id="XMLID_251_" d="M282.368,368.193l-4.971,0c-.292,0-.439-.083-.327-.185l1.9-1.732a1.27,1.27,0,0,1,.708-.184l4.755,0c.28,0,.426.083.327.185l-1.683,1.732A1.212,1.212,0,0,1,282.368,368.193Z" transform="translate(-244.166 -287.86)" fill="#929496"/>
          <path id="XMLID_252_" d="M291.628,368.2l-4.971,0c-.292,0-.451-.083-.354-.185l1.647-1.732a1.136,1.136,0,0,1,.681-.184l4.755,0c.279,0,.438.083.354.185l-1.43,1.732A1.081,1.081,0,0,1,291.628,368.2Z" transform="translate(-246.382 -287.862)" fill="#929496"/>
          <path id="XMLID_253_" d="M300.887,368.208l-4.971,0c-.292,0-.462-.083-.381-.185l1.393-1.732a1.013,1.013,0,0,1,.654-.184l4.755,0c.279,0,.45.083.381.185l-1.177,1.732A.964.964,0,0,1,300.887,368.208Z" transform="translate(-248.598 -287.864)" fill="#929496"/>
          <path id="XMLID_254_" d="M310.145,368.215l-4.971,0c-.292,0-.474-.083-.407-.185l1.141-1.733a.9.9,0,0,1,.627-.184l4.755,0c.28,0,.461.083.407.185l-.924,1.733C310.718,368.133,310.438,368.215,310.145,368.215Z" transform="translate(-250.813 -287.865)" fill="#929496"/>
          <path id="XMLID_255_" d="M319.4,368.222l-4.972,0c-.292,0-.487-.083-.434-.185l.888-1.733c.052-.1.321-.184.6-.184l4.755,0c.279,0,.474.083.434.185L320,368.038C319.965,368.14,319.7,368.222,319.4,368.222Z" transform="translate(-253.028 -287.867)" fill="#929496"/>
          <path id="XMLID_256_" d="M328.7,368.229l-4.971,0c-.292,0-.5-.083-.461-.185l.634-1.733c.037-.1.294-.184.573-.184l4.755,0c.279,0,.486.083.461.185l-.417,1.733C329.249,368.147,328.992,368.23,328.7,368.229Z" transform="translate(-255.251 -287.869)" fill="#929496"/>
          <path id="XMLID_257_" d="M337.958,368.237l-4.971,0c-.292,0-.511-.083-.488-.185l.381-1.733c.022-.1.267-.184.547-.184l4.755,0c.279,0,.5.083.488.185l-.164,1.733C338.494,368.155,338.25,368.237,337.958,368.237Z" transform="translate(-257.465 -287.871)" fill="#929496"/>
          <path id="XMLID_258_" d="M347.215,368.244l-4.971,0c-.292,0-.523-.083-.515-.185l.128-1.733c.008-.1.24-.184.519-.184l4.755,0c.279,0,.51.083.515.185l.088,1.733C347.739,368.162,347.506,368.244,347.215,368.244Z" transform="translate(-259.679 -287.872)" fill="#929496"/>
          <path id="XMLID_259_" d="M356.432,368.251l-4.971,0c-.292,0-.534-.083-.542-.185l-.125-1.733c-.008-.1.213-.184.493-.184l4.755,0c.279,0,.522.083.542.185l.341,1.733C356.944,368.169,356.724,368.252,356.432,368.251Z" transform="translate(-261.852 -287.874)" fill="#929496"/>
          <path id="XMLID_260_" d="M365.608,368.259l-4.971,0c-.292,0-.547-.083-.569-.185l-.378-1.733c-.022-.1.186-.184.465-.184l4.755,0c.279,0,.534.083.569.185l.595,1.733C366.109,368.177,365.9,368.259,365.608,368.259Z" transform="translate(-263.985 -287.876)" fill="#929496"/>
          <path id="XMLID_261_" d="M375.225,368.266l-4.971,0c-.292,0-.56-.083-.6-.185l-.642-1.733c-.038-.1.158-.184.437-.184l4.755,0c.279,0,.547.083.6.185l.859,1.734C375.713,368.184,375.516,368.267,375.225,368.266Z" transform="translate(-266.22 -287.877)" fill="#929496"/>
          <path id="XMLID_262_" d="M384.4,368.274l-4.971,0c-.292,0-.572-.083-.624-.185l-.9-1.733c-.052-.1.132-.184.411-.184l4.755,0a.886.886,0,0,1,.624.185l1.112,1.734C384.876,368.191,384.693,368.274,384.4,368.274Z" transform="translate(-268.352 -287.879)" fill="#929496"/>
          <path id="XMLID_263_" d="M393.575,368.281l-4.971,0a.949.949,0,0,1-.651-.185l-1.149-1.734c-.068-.1.1-.184.383-.184l4.755,0a1,1,0,0,1,.651.185l1.365,1.734C394.039,368.2,393.868,368.281,393.575,368.281Z" transform="translate(-270.483 -287.881)" fill="#929496"/>
          <path id="XMLID_264_" d="M402.75,368.288l-4.971,0a1.068,1.068,0,0,1-.678-.185l-1.4-1.734c-.082-.1.078-.184.357-.184l4.755,0a1.123,1.123,0,0,1,.678.185l1.618,1.734C403.2,368.205,403.042,368.288,402.75,368.288Z" transform="translate(-272.614 -287.882)" fill="#929496"/>
          <path id="XMLID_265_" d="M411.925,368.295l-4.971,0a1.192,1.192,0,0,1-.7-.185l-1.654-1.734c-.1-.1.05-.184.33-.184l4.755,0a1.252,1.252,0,0,1,.7.185l1.871,1.735C412.364,368.212,412.217,368.3,411.925,368.295Z" transform="translate(-274.745 -287.884)" fill="#929496"/>
          <path id="XMLID_266_" d="M282.26,371.356l-8.3-.007c-.306,0-.464-.083-.354-.185l1.9-1.732a1.332,1.332,0,0,1,.734-.184l7.958.006c.294,0,.457.083.364.185l-1.577,1.732A1.2,1.2,0,0,1,282.26,371.356Z" transform="translate(-243.336 -288.618)" fill="#929496"/>
          <path id="XMLID_267_" d="M292.857,371.365l-5.219,0c-.306,0-.481-.083-.391-.185l1.543-1.732a1.142,1.142,0,0,1,.7-.184l5,0c.294,0,.469.083.391.185l-1.327,1.732A1.09,1.09,0,0,1,292.857,371.365Z" transform="translate(-246.61 -288.621)" fill="#929496"/>
          <path id="XMLID_268_" d="M302.578,371.372l-5.219,0c-.306,0-.493-.083-.418-.185l1.291-1.732a1.022,1.022,0,0,1,.67-.184l5,0c.294,0,.481.083.418.185l-1.074,1.732A.974.974,0,0,1,302.578,371.372Z" transform="translate(-248.936 -288.623)" fill="#929496"/>
          <path id="XMLID_269_" d="M312.3,371.38l-5.219,0c-.306,0-.506-.083-.445-.185l1.038-1.733a.906.906,0,0,1,.642-.184l5,0c.294,0,.493.083.445.185l-.821,1.733C312.892,371.3,312.6,371.38,312.3,371.38Z" transform="translate(-251.261 -288.624)" fill="#929496"/>
          <path id="XMLID_270_" d="M322.057,371.388l-5.219,0c-.306,0-.518-.083-.472-.185l.784-1.733c.046-.1.322-.184.616-.184l5,0c.294,0,.506.083.472.185l-.567,1.733C322.639,371.306,322.363,371.388,322.057,371.388Z" transform="translate(-253.596 -288.626)" fill="#929496"/>
          <path id="XMLID_271_" d="M331.777,371.4l-5.219,0c-.306,0-.53-.083-.5-.185l.531-1.733c.031-.1.295-.184.588-.184l5,0c.294,0,.517.083.5.185l-.315,1.733C332.347,371.313,332.083,371.4,331.777,371.4Z" transform="translate(-255.921 -288.628)" fill="#929496"/>
          <path id="XMLID_272_" d="M341.5,371.4l-5.219,0c-.306,0-.542-.083-.525-.185l.278-1.733c.016-.1.268-.184.562-.184l5,0c.294,0,.529.083.525.185l-.062,1.733C342.054,371.321,341.8,371.4,341.5,371.4Z" transform="translate(-258.245 -288.63)" fill="#929496"/>
          <path id="XMLID_273_" d="M351.215,371.411l-5.219,0c-.306,0-.554-.083-.553-.185l.025-1.733c0-.1.241-.184.534-.184l5,0c.294,0,.541.083.553.185l.192,1.733C351.76,371.329,351.521,371.411,351.215,371.411Z" transform="translate(-260.569 -288.631)" fill="#929496"/>
          <path id="XMLID_274_" d="M360.86,371.418l-5.219,0c-.306,0-.566-.083-.579-.185l-.228-1.733c-.014-.1.214-.184.508-.184l5,0c.294,0,.553.083.579.185l.445,1.733C361.395,371.336,361.167,371.419,360.86,371.418Z" transform="translate(-262.821 -288.633)" fill="#929496"/>
          <path id="XMLID_275_" d="M370.961,371.426l-5.219,0c-.306,0-.578-.083-.607-.185l-.493-1.733c-.029-.1.185-.184.48-.184l5,0c.294,0,.566.083.607.185l.709,1.733C371.483,371.344,371.268,371.427,370.961,371.426Z" transform="translate(-265.172 -288.635)" fill="#929496"/>
          <path id="XMLID_276_" d="M380.6,371.434l-5.219,0c-.306,0-.591-.083-.635-.185L374,369.512c-.044-.1.159-.184.453-.184l5,0a.876.876,0,0,1,.635.185l.962,1.734C381.108,371.352,380.9,371.434,380.6,371.434Z" transform="translate(-267.415 -288.637)" fill="#929496"/>
          <path id="XMLID_277_" d="M390.236,371.441l-5.219,0a.937.937,0,0,1-.661-.185l-1-1.734c-.059-.1.132-.184.426-.184l5,0a.985.985,0,0,1,.661.185l1.216,1.734C390.733,371.358,390.542,371.441,390.236,371.441Z" transform="translate(-269.658 -288.638)" fill="#929496"/>
          <path id="XMLID_278_" d="M399.872,371.449l-5.219,0a1.054,1.054,0,0,1-.689-.185l-1.251-1.734c-.074-.1.1-.184.4-.184l5,0a1.1,1.1,0,0,1,.688.185l1.468,1.734C400.358,371.367,400.179,371.449,399.872,371.449Z" transform="translate(-271.899 -288.64)" fill="#929496"/>
          <path id="XMLID_279_" d="M413.89,371.459l-9.6-.008a1.178,1.178,0,0,1-.715-.185l-1.5-1.734c-.088-.1.078-.184.373-.184l9.2.008a1.316,1.316,0,0,1,.731.185l1.871,1.734C414.356,371.377,414.2,371.46,413.89,371.459Z" transform="translate(-274.141 -288.642)" fill="#929496"/>
          <path id="XMLID_280_" d="M273.018,380.946l-9.5-.008c-.35,0-.544-.083-.433-.185l1.9-1.732a1.536,1.536,0,0,1,.814-.184l9.154.007c.338,0,.537.083.444.185l-1.577,1.732A1.4,1.4,0,0,1,273.018,380.946Z" transform="translate(-240.815 -290.917)" fill="#929496"/>
          <path id="XMLID_281_" d="M285.142,380.955l-5.971,0c-.35,0-.562-.083-.471-.185l1.543-1.732a1.332,1.332,0,0,1,.776-.184l5.754,0c.338,0,.549.083.471.185l-1.327,1.732A1.253,1.253,0,0,1,285.142,380.955Z" transform="translate(-244.561 -290.92)" fill="#929496"/>
          <path id="XMLID_282_" d="M296.263,380.964l-5.971,0c-.35,0-.574-.083-.5-.185l1.291-1.732a1.2,1.2,0,0,1,.75-.184l5.754,0c.338,0,.561.083.5.185l-1.074,1.733A1.151,1.151,0,0,1,296.263,380.964Z" transform="translate(-247.223 -290.922)" fill="#929496"/>
          <path id="XMLID_283_" d="M307.383,380.973l-5.971,0c-.35,0-.585-.083-.525-.185l1.038-1.733a1.077,1.077,0,0,1,.722-.184l5.754,0c.338,0,.573.083.525.185l-.821,1.733C308.058,380.891,307.734,380.973,307.383,380.973Z" transform="translate(-249.884 -290.924)" fill="#929496"/>
          <path id="XMLID_284_" d="M357.338,381.012l-44.577-.035c-.35,0-.6-.083-.552-.185l.779-1.733c.046-.1.357-.184.695-.184l42.96.033c.338,0,.64.083.675.185l.591,1.733C357.945,380.93,357.689,381.012,357.338,381.012Z" transform="translate(-252.599 -290.926)" fill="#929496"/>
          <path id="XMLID_285_" d="M380.412,381.03l-5.971,0c-.35,0-.665-.083-.7-.185l-.628-1.733c-.036-.1.208-.184.545-.184l5.754,0c.338,0,.652.083.7.185l.845,1.733C381.007,380.947,380.763,381.03,380.412,381.03Z" transform="translate(-267.203 -290.938)" fill="#929496"/>
          <path id="XMLID_286_" d="M391.45,381.038l-5.971,0c-.35,0-.677-.083-.729-.185l-.881-1.734c-.052-.1.18-.184.518-.184l5.754,0a1.106,1.106,0,0,1,.729.185l1.1,1.734C392.033,380.956,391.8,381.038,391.45,381.038Z" transform="translate(-269.781 -290.94)" fill="#929496"/>
          <path id="XMLID_287_" d="M402.487,381.047l-5.971,0a1.177,1.177,0,0,1-.756-.185l-1.133-1.734c-.067-.1.154-.184.491-.184l5.754,0a1.229,1.229,0,0,1,.756.185l1.35,1.734C403.058,380.965,402.838,381.047,402.487,381.047Z" transform="translate(-272.36 -290.942)" fill="#929496"/>
          <path id="XMLID_288_" d="M413.524,381.056l-5.971,0a1.3,1.3,0,0,1-.782-.185l-1.387-1.734c-.081-.1.126-.184.465-.184l5.754,0a1.366,1.366,0,0,1,.783.185l1.6,1.734C414.083,380.973,413.875,381.056,413.524,381.056Z" transform="translate(-274.938 -290.944)" fill="#929496"/>
          <path id="XMLID_289_" d="M424.591,381.064l-5.971,0a1.446,1.446,0,0,1-.81-.185l-1.641-1.734c-.1-.1.1-.184.438-.184l5.754,0a1.508,1.508,0,0,1,.81.185l1.856,1.735C425.138,380.982,424.942,381.065,424.591,381.064Z" transform="translate(-277.522 -290.946)" fill="#929496"/>
          <path id="XMLID_290_" d="M283.569,374.521l-13.053-.01c-.322,0-.491-.083-.379-.185l1.9-1.732a1.4,1.4,0,0,1,.76-.184l12.536.01c.309,0,.49.083.406.185l-1.435,1.732A1.2,1.2,0,0,1,283.569,374.521Z" transform="translate(-242.504 -289.376)" fill="#929496"/>
          <path id="XMLID_291_" d="M296.222,374.531l-5.467,0c-.321,0-.515-.083-.433-.185l1.4-1.732a1.129,1.129,0,0,1,.707-.184l5.25,0c.309,0,.5.083.433.185l-1.181,1.732A1.068,1.068,0,0,1,296.222,374.531Z" transform="translate(-247.348 -289.38)" fill="#929496"/>
          <path id="XMLID_292_" d="M306.4,374.539l-5.467,0c-.321,0-.527-.083-.46-.185l1.144-1.732a1.011,1.011,0,0,1,.68-.184l5.25,0c.309,0,.514.083.46.185l-.927,1.733C307.029,374.457,306.725,374.539,306.4,374.539Z" transform="translate(-249.785 -289.382)" fill="#929496"/>
          <path id="XMLID_293_" d="M316.627,374.547l-5.467,0c-.322,0-.539-.083-.487-.185l.89-1.733c.052-.1.344-.184.653-.184l5.25,0c.309,0,.526.083.487.185l-.674,1.733C317.241,374.465,316.948,374.547,316.627,374.547Z" transform="translate(-252.231 -289.383)" fill="#929496"/>
          <path id="XMLID_294_" d="M326.808,374.555l-5.467,0c-.321,0-.551-.083-.514-.185l.637-1.733c.037-.1.318-.184.626-.184l5.25,0c.309,0,.538.083.514.185l-.42,1.733C327.41,374.473,327.129,374.555,326.808,374.555Z" transform="translate(-254.666 -289.385)" fill="#929496"/>
          <path id="XMLID_295_" d="M336.989,374.563l-5.467,0c-.322,0-.563-.083-.54-.185l.384-1.733c.023-.1.291-.184.6-.184l5.25,0c.309,0,.55.083.541.185l-.167,1.733C337.579,374.481,337.31,374.563,336.989,374.563Z" transform="translate(-257.102 -289.387)" fill="#929496"/>
          <path id="XMLID_296_" d="M347.17,374.571l-5.467,0c-.321,0-.576-.083-.567-.185l.131-1.733c.008-.1.264-.184.572-.184l5.25,0c.309,0,.563.083.567.185l.085,1.733C347.747,374.488,347.491,374.571,347.17,374.571Z" transform="translate(-259.537 -289.389)" fill="#929496"/>
          <path id="XMLID_297_" d="M357.311,374.579l-5.467,0c-.322,0-.588-.083-.595-.185l-.122-1.733c-.007-.1.237-.184.546-.184l5.25,0c.309,0,.575.083.595.185l.338,1.733C357.876,374.5,357.632,374.579,357.311,374.579Z" transform="translate(-261.932 -289.391)" fill="#929496"/>
          <path id="XMLID_298_" d="M367.411,374.587l-5.467,0c-.321,0-.6-.083-.621-.185l-.375-1.733c-.022-.1.21-.184.518-.184l5.25,0c.309,0,.587.083.621.185l.591,1.733C367.964,374.5,367.732,374.587,367.411,374.587Z" transform="translate(-264.287 -289.393)" fill="#929496"/>
          <path id="XMLID_299_" d="M377.51,374.595l-5.467,0c-.322,0-.611-.083-.648-.185l-.627-1.733c-.036-.1.183-.184.492-.184l5.25,0c.309,0,.6.083.648.185l.844,1.734C378.051,374.512,377.831,374.595,377.51,374.595Z" transform="translate(-266.641 -289.395)" fill="#929496"/>
          <path id="XMLID_300_" d="M387.609,374.6l-5.467,0c-.321,0-.623-.083-.675-.185l-.88-1.734c-.052-.1.157-.184.465-.184l5.25,0a.987.987,0,0,1,.675.185l1.1,1.734C388.139,374.52,387.93,374.6,387.609,374.6Z" transform="translate(-268.994 -289.396)" fill="#929496"/>
          <path id="XMLID_301_" d="M397.708,374.61l-5.467,0a1.056,1.056,0,0,1-.7-.185l-1.134-1.734c-.067-.1.129-.184.438-.184l5.25,0a1.1,1.1,0,0,1,.7.185l1.35,1.734C398.225,374.528,398.028,374.61,397.708,374.61Z" transform="translate(-271.347 -289.398)" fill="#929496"/>
          <path id="XMLID_302_" d="M407.806,374.618l-5.467,0a1.178,1.178,0,0,1-.729-.185l-1.386-1.734c-.081-.1.1-.184.411-.184l5.25,0a1.234,1.234,0,0,1,.729.185l1.6,1.734C408.311,374.536,408.127,374.618,407.806,374.618Z" transform="translate(-273.7 -289.4)" fill="#929496"/>
          <path id="XMLID_303_" d="M417.946,374.626l-5.467,0a1.308,1.308,0,0,1-.756-.185l-1.641-1.734c-.1-.1.076-.184.384-.184l5.25,0a1.369,1.369,0,0,1,.756.185l1.856,1.735C418.438,374.544,418.266,374.626,417.946,374.626Z" transform="translate(-276.062 -289.402)" fill="#929496"/>
          <path id="XMLID_304_" d="M285.367,377.748l-18.358-.014c-.336,0-.518-.083-.406-.185l1.9-1.732a1.467,1.467,0,0,1,.788-.184l17.663.014c.323,0,.524.083.449.185l-1.289,1.732A1.187,1.187,0,0,1,285.367,377.748Z" transform="translate(-241.657 -290.149)" fill="#929496"/>
          <path id="XMLID_305_" d="M299.981,377.759l-5.719,0c-.336,0-.549-.083-.475-.185l1.252-1.732a1.12,1.12,0,0,1,.718-.184l5.5,0c.323,0,.536.083.475.185l-1.036,1.733A1.068,1.068,0,0,1,299.981,377.759Z" transform="translate(-248.18 -290.154)" fill="#929496"/>
          <path id="XMLID_306_" d="M310.677,377.768l-5.719,0c-.336,0-.561-.083-.5-.185l1-1.733a1,1,0,0,1,.692-.184l5.5,0c.323,0,.548.083.5.185l-.782,1.733C311.322,377.686,311.013,377.768,310.677,377.768Z" transform="translate(-250.739 -290.156)" fill="#929496"/>
          <path id="XMLID_307_" d="M321.329,377.776l-5.719,0c-.336,0-.573-.083-.529-.185l.746-1.733c.043-.1.341-.184.664-.184l5.5,0c.323,0,.56.083.529.185l-.529,1.733C321.963,377.694,321.665,377.776,321.329,377.776Z" transform="translate(-253.288 -290.158)" fill="#929496"/>
          <path id="XMLID_308_" d="M331.98,377.784l-5.719,0c-.336,0-.585-.083-.556-.185l.493-1.733c.029-.1.315-.184.638-.184l5.5,0c.323,0,.572.083.556.185l-.276,1.733C332.6,377.7,332.316,377.785,331.98,377.784Z" transform="translate(-255.836 -290.16)" fill="#929496"/>
          <path id="XMLID_309_" d="M342.632,377.793l-5.719,0c-.336,0-.6-.083-.583-.185l.239-1.733c.014-.1.287-.184.61-.184l5.5,0c.323,0,.584.083.583.185l-.024,1.733C343.241,377.711,342.968,377.793,342.632,377.793Z" transform="translate(-258.384 -290.162)" fill="#929496"/>
          <path id="XMLID_310_" d="M353.279,377.8l-5.719,0c-.336,0-.609-.083-.61-.185l-.013-1.733c0-.1.261-.184.584-.184l5.5,0c.323,0,.6.083.61.185l.23,1.733C353.876,377.718,353.615,377.8,353.279,377.8Z" transform="translate(-260.928 -290.163)" fill="#929496"/>
          <path id="XMLID_311_" d="M363.849,377.81l-5.719,0c-.336,0-.621-.083-.636-.185l-.266-1.733c-.016-.1.233-.184.557-.184l5.5,0c.323,0,.608.083.636.185l.483,1.733C364.435,377.727,364.185,377.81,363.849,377.81Z" transform="translate(-263.395 -290.166)" fill="#929496"/>
          <path id="XMLID_312_" d="M374.419,377.818l-5.719,0c-.336,0-.633-.083-.664-.185l-.519-1.733c-.03-.1.207-.184.53-.184l5.5,0c.323,0,.62.083.664.185l.735,1.733C374.992,377.735,374.755,377.818,374.419,377.818Z" transform="translate(-265.862 -290.167)" fill="#929496"/>
          <path id="XMLID_313_" d="M384.989,377.826l-5.719,0c-.336,0-.645-.083-.69-.185l-.772-1.733c-.046-.1.18-.184.5-.184l5.5,0a1,1,0,0,1,.69.185l.988,1.734C385.55,377.743,385.325,377.826,384.989,377.826Z" transform="translate(-268.328 -290.169)" fill="#929496"/>
          <path id="XMLID_314_" d="M395.558,377.834l-5.719,0a1.063,1.063,0,0,1-.718-.185l-1.025-1.734c-.06-.1.153-.184.477-.184l5.5,0a1.115,1.115,0,0,1,.718.185l1.241,1.734C396.108,377.752,395.894,377.834,395.558,377.834Z" transform="translate(-270.794 -290.171)" fill="#929496"/>
          <path id="XMLID_315_" d="M406.127,377.842l-5.719,0a1.185,1.185,0,0,1-.744-.185l-1.278-1.734c-.075-.1.126-.184.449-.184l5.5,0a1.241,1.241,0,0,1,.744.185l1.494,1.734C406.665,377.76,406.463,377.842,406.127,377.842Z" transform="translate(-273.26 -290.173)" fill="#929496"/>
          <path id="XMLID_316_" d="M420.219,377.853l-9.2-.008a1.319,1.319,0,0,1-.772-.185l-1.532-1.734c-.09-.1.1-.184.423-.184l8.851.007a1.442,1.442,0,0,1,.783.185l1.856,1.735C420.739,377.771,420.555,377.853,420.219,377.853Z" transform="translate(-275.736 -290.175)" fill="#929496"/>
          <path id="XMLID_317_" d="M403.536,393.5c-.436.389-1.815.651-3.776.649l-162.053-.127c-1.954,0-3.324-.263-3.759-.65-.658.679.953,1.216,3.758,1.218l162.053.127C402.57,394.72,404.192,394.184,403.536,393.5Z" transform="translate(-233.8 -294.403)" fill="#f1f2f2"/>
          <path id="Trazado_903727" data-name="Trazado 903727" d="M385.491,267.8a4.521,4.521,0,0,0-4.518-4.525l-105.71-.083a4.5,4.5,0,0,0-2.462.729l112.636,72.03Z" transform="translate(-243.152 -263.187)" fill="#fff" opacity="0.03"/>
        </g>
      </g>
      <g id="Grupo_1108531" data-name="Grupo 1108531" transform="translate(5.258 95.972)">
        <path id="Trazado_903728" data-name="Trazado 903728" d="M107.516,285.1l69.863,3.79,4.367-26.59a3.011,3.011,0,0,0-2.843-3.169l-44.21-2.4s-4.063-3.828-4.9-4.637a3.357,3.357,0,0,0-2.3-1.268l-17.983-.975a3.011,3.011,0,0,0-3.169,2.843Z" transform="translate(-100.306 -234.032)" fill="#f4d85f"/>
        <path id="Trazado_903729" data-name="Trazado 903729" d="M107.724,286.591l69.285,3.759,4.656-26.574a3.011,3.011,0,0,0-2.843-3.169l-44.21-2.4s-3.6-3.469-4.9-4.637a3.535,3.535,0,0,0-2.3-1.268l-17.983-.975a3.011,3.011,0,0,0-3.169,2.843Z" transform="translate(-100.287 -234.387)" fill="#ecb42a"/>
        <path id="Trazado_903730" data-name="Trazado 903730" d="M106.567,261.7l1.229,27.38,69.285,3.759,3.355-19.152C163.129,274.863,126.748,271.432,106.567,261.7Z" transform="translate(-100.358 -236.875)" fill="#d6a32c"/>
        <g id="Grupo_1108530" data-name="Grupo 1108530" transform="translate(18.937)">
          <g id="Grupo_1108528" data-name="Grupo 1108528">
            <path id="Trazado_903731" data-name="Trazado 903731" d="M158.153,229.045l-34.843,2.23,3.635,56.794,45.245-2.9-2.95-46.11Z" transform="translate(-123.31 -229.045)" fill="#fdfbe4"/>
            <path id="Trazado_903732" data-name="Trazado 903732" d="M174.929,241.371l-5.787-12.326,11.086,10.018Z" transform="translate(-134.299 -229.045)" fill="#e4ddad" opacity="0.36"/>
            <path id="Trazado_903733" data-name="Trazado 903733" d="M172.993,240.333l-3.851-11.288,11.086,10.018Z" transform="translate(-134.299 -229.045)" fill="#e4ddad"/>
          </g>
          <g id="Grupo_1108529" data-name="Grupo 1108529" transform="translate(7.071 7.419)">
            <rect id="Rectángulo_405547" data-name="Rectángulo 405547" width="25.819" height="1.378" transform="translate(3.156 1.65) rotate(-3.664)" fill="#b0ae9a"/>
            <rect id="Rectángulo_405548" data-name="Rectángulo 405548" width="33.359" height="1.378" transform="translate(0 11.35) rotate(-3.664)" fill="#b0ae9a"/>
            <rect id="Rectángulo_405549" data-name="Rectángulo 405549" width="33.359" height="1.378" transform="translate(0.325 16.427) rotate(-3.664)" fill="#b0ae9a"/>
            <rect id="Rectángulo_405550" data-name="Rectángulo 405550" width="33.359" height="1.378" transform="translate(0.65 21.506) rotate(-3.664)" fill="#b0ae9a"/>
            <rect id="Rectángulo_405551" data-name="Rectángulo 405551" width="33.359" height="1.378" transform="translate(0.975 26.583) rotate(-3.664)" fill="#b0ae9a"/>
            <rect id="Rectángulo_405552" data-name="Rectángulo 405552" width="33.359" height="1.378" transform="translate(1.3 31.66) rotate(-3.664)" fill="#b0ae9a"/>
            <rect id="Rectángulo_405553" data-name="Rectángulo 405553" width="33.359" height="1.378" transform="translate(1.626 36.737) rotate(-3.664)" fill="#b0ae9a"/>
            <rect id="Rectángulo_405554" data-name="Rectángulo 405554" width="33.359" height="1.378" transform="translate(1.95 41.815) rotate(-3.664)" fill="#b0ae9a"/>
          </g>
        </g>
        <path id="Trazado_903734" data-name="Trazado 903734" d="M125.809,271.028l1.735,27.107,45.245-2.9L171.4,273.5Z" transform="translate(-104.972 -239.111)" fill="#e4ddad" opacity="0.63"/>
        <path id="Trazado_903735" data-name="Trazado 903735" d="M170.173,317.248l-61.324-3.327a1.938,1.938,0,0,1-1.776-1.469L98.4,278.791c.008-.32.058-1.2.069-1.4a1.939,1.939,0,0,1,2.04-1.818l82.1,4.454a1.939,1.939,0,0,1,1.829,2.072c-.013.176-.028,1-.081,1.379L172.1,315.98A1.939,1.939,0,0,1,170.173,317.248Z" transform="translate(-98.4 -240.202)" fill="#f4d85f"/>
        <path id="Trazado_903736" data-name="Trazado 903736" d="M170.1,318.88l-61.324-3.327A1.938,1.938,0,0,1,107,314.085l-8.547-34.474a1.938,1.938,0,0,1,1.986-2.4l82.1,4.453a1.938,1.938,0,0,1,1.714,2.6l-12.227,33.347A1.935,1.935,0,0,1,170.1,318.88Z" transform="translate(-98.4 -240.593)" fill="#ecb42a"/>
        <path id="Trazado_903737" data-name="Trazado 903737" d="M101.9,277.288l-1.455-.079a1.938,1.938,0,0,0-1.986,2.4l8.547,34.474a1.938,1.938,0,0,0,1.776,1.469l61.324,3.327a1.938,1.938,0,0,0,1.924-1.267l5.254-14.329C149.889,313.187,116.541,299.289,101.9,277.288Z" transform="translate(-98.4 -240.593)" fill="#d6a32c"/>
        <path id="Trazado_903738" data-name="Trazado 903738" d="M118.723,290.1A74.169,74.169,0,0,0,148.9,303.2a82.993,82.993,0,0,0,10.047,1.184,57.851,57.851,0,0,0,20.565-2.269l1.7-4.628c-5.612,2.265-16.035,4.775-31.648,2a70.327,70.327,0,0,1-28.606-12.42,58.948,58.948,0,0,1-10.136-9.323l-5.005-.271A58.49,58.49,0,0,0,118.723,290.1Z" transform="translate(-100.177 -240.655)" fill="#d6a32c"/>
      </g>
      <g id="Grupo_1108534" data-name="Grupo 1108534" transform="translate(141.804 71.341)">
        <g id="Grupo_1108532" data-name="Grupo 1108532">
          <path id="Trazado_903739" data-name="Trazado 903739" d="M310.861,196.646,278.012,201.2l7.425,53.543,42.655-5.915-6.028-43.471Z" transform="translate(-278.012 -196.646)" fill="#fdfbe4"/>
          <path id="Trazado_903740" data-name="Trazado 903740" d="M278.012,202.166l4.088,29.48,6.714-30.978Z" transform="translate(-278.012 -197.61)" fill="#e4ddad" opacity="0.36"/>
          <path id="Trazado_903741" data-name="Trazado 903741" d="M327.567,207.916l-6.346-11.27,11.2,8.712Z" transform="translate(-288.372 -196.646)" fill="#e4ddad" opacity="0.36"/>
          <path id="Trazado_903742" data-name="Trazado 903742" d="M325.66,207.068l-4.439-10.422,11.2,8.712Z" transform="translate(-288.372 -196.646)" fill="#e4ddad"/>
        </g>
        <g id="Grupo_1108533" data-name="Grupo 1108533" transform="translate(7.849 6.931)">
          <rect id="Rectángulo_405555" data-name="Rectángulo 405555" width="24.524" height="1.309" transform="matrix(0.99, -0.137, 0.137, 0.99, 2.31, 3.37)" fill="#b0ae9a"/>
          <rect id="Rectángulo_405556" data-name="Rectángulo 405556" width="31.685" height="1.309" transform="matrix(0.99, -0.137, 0.137, 0.99, 0, 12.78)" fill="#b0ae9a"/>
          <rect id="Rectángulo_405557" data-name="Rectángulo 405557" width="31.685" height="1.309" transform="matrix(0.99, -0.137, 0.137, 0.99, 0.664, 17.567)" fill="#b0ae9a"/>
          <rect id="Rectángulo_405558" data-name="Rectángulo 405558" width="31.685" height="1.309" transform="matrix(0.99, -0.137, 0.137, 0.99, 1.328, 22.353)" fill="#b0ae9a"/>
          <rect id="Rectángulo_405559" data-name="Rectángulo 405559" width="31.685" height="1.309" transform="matrix(0.99, -0.137, 0.137, 0.99, 1.991, 27.14)" fill="#b0ae9a"/>
          <rect id="Rectángulo_405560" data-name="Rectángulo 405560" width="31.685" height="1.309" transform="matrix(0.99, -0.137, 0.137, 0.99, 2.655, 31.926)" fill="#b0ae9a"/>
          <rect id="Rectángulo_405561" data-name="Rectángulo 405561" width="31.685" height="1.309" transform="matrix(0.99, -0.137, 0.137, 0.99, 3.319, 36.712)" fill="#b0ae9a"/>
          <rect id="Rectángulo_405562" data-name="Rectángulo 405562" width="31.685" height="1.309" transform="matrix(0.99, -0.137, 0.137, 0.99, 3.983, 41.498)" fill="#b0ae9a"/>
        </g>
      </g>
      <g id="Grupo_1108538" data-name="Grupo 1108538" transform="translate(155.225 119.917)">
        <path id="Trazado_903743" data-name="Trazado 903743" d="M303.67,310.764l59.234-.075,2.443-22.681a2.549,2.549,0,0,0-2.552-2.546l-37.484.047s-3.614-3.045-4.355-3.69a2.84,2.84,0,0,0-2-.964l-15.247.019a2.549,2.549,0,0,0-2.546,2.552Z" transform="translate(-296.984 -265.413)" fill="#f4d85f"/>
        <path id="Trazado_903744" data-name="Trazado 903744" d="M303.916,312.017l58.743-.074,2.688-22.681a2.549,2.549,0,0,0-2.552-2.546l-37.484.047s-3.207-2.763-4.355-3.69a2.994,2.994,0,0,0-2-.964l-15.247.019a2.549,2.549,0,0,0-2.546,2.552Z" transform="translate(-296.984 -265.714)" fill="#ecb42a"/>
        <path id="Trazado_903745" data-name="Trazado 903745" d="M301.728,291.082l2.323,23.087,58.743-.074,1.937-16.347C350.157,299.555,319.244,298.361,301.728,291.082Z" transform="translate(-297.119 -267.865)" fill="#d6a32c"/>
        <g id="Grupo_1108537" data-name="Grupo 1108537" transform="translate(14.308)">
          <g id="Grupo_1108535" data-name="Grupo 1108535">
            <path id="Trazado_903746" data-name="Trazado 903746" d="M343.834,260.543l-29.348,3.52,5.737,47.837,38.11-4.571-4.659-38.838Z" transform="translate(-314.486 -260.543)" fill="#fdfbe4"/>
            <path id="Trazado_903747" data-name="Trazado 903747" d="M358.561,270.69l-5.471-10.147,9.841,7.947Z" transform="translate(-323.742 -260.543)" fill="#e4ddad" opacity="0.36"/>
            <path id="Trazado_903748" data-name="Trazado 903748" d="M356.875,269.9l-3.785-9.36,9.841,7.947Z" transform="translate(-323.742 -260.543)" fill="#e4ddad"/>
          </g>
          <g id="Grupo_1108536" data-name="Grupo 1108536" transform="translate(6.75 6.215)">
            <rect id="Rectángulo_405563" data-name="Rectángulo 405563" width="21.859" height="1.167" transform="matrix(0.993, -0.119, 0.119, 0.993, 2.213, 2.603)" fill="#b0ae9a"/>
            <rect id="Rectángulo_405564" data-name="Rectángulo 405564" width="28.242" height="1.167" transform="matrix(0.993, -0.119, 0.119, 0.993, 0, 10.951)" fill="#b0ae9a"/>
            <rect id="Rectángulo_405565" data-name="Rectángulo 405565" width="28.242" height="1.167" transform="matrix(0.993, -0.119, 0.119, 0.993, 0.513, 15.228)" fill="#b0ae9a"/>
            <rect id="Rectángulo_405566" data-name="Rectángulo 405566" width="28.242" height="1.167" transform="matrix(0.993, -0.119, 0.119, 0.993, 1.026, 19.504)" fill="#b0ae9a"/>
            <rect id="Rectángulo_405567" data-name="Rectángulo 405567" width="28.242" height="1.167" transform="matrix(0.993, -0.119, 0.119, 0.993, 1.539, 23.78)" fill="#b0ae9a"/>
            <rect id="Rectángulo_405568" data-name="Rectángulo 405568" width="28.242" height="1.167" transform="matrix(0.993, -0.119, 0.119, 0.993, 2.052, 28.057)" fill="#b0ae9a"/>
            <rect id="Rectángulo_405569" data-name="Rectángulo 405569" width="28.242" height="1.167" transform="matrix(0.993, -0.119, 0.119, 0.993, 2.565, 32.334)" fill="#b0ae9a"/>
            <rect id="Rectángulo_405570" data-name="Rectángulo 405570" width="28.242" height="1.167" transform="matrix(0.993, -0.119, 0.119, 0.993, 3.078, 36.61)" fill="#b0ae9a"/>
          </g>
        </g>
        <path id="Trazado_903749" data-name="Trazado 903749" d="M318.431,298.049l2.738,22.833,38.11-4.571-2.2-18.31Z" transform="translate(-301.124 -269.524)" fill="#e4ddad" opacity="0.63"/>
        <path id="Trazado_903750" data-name="Trazado 903750" d="M358.146,334.994l-51.993.066a1.641,1.641,0,0,1-1.57-1.158l-8.91-28.048c-.008-.271-.008-1.021-.007-1.182a1.642,1.642,0,0,1,1.639-1.632l69.605-.088a1.642,1.642,0,0,1,1.643,1.665c0,.149.023.843,0,1.17l-8.838,28.045A1.636,1.636,0,0,1,358.146,334.994Z" transform="translate(-295.665 -270.712)" fill="#f4d85f"/>
        <path id="Trazado_903751" data-name="Trazado 903751" d="M358.148,336.378l-51.993.065a1.641,1.641,0,0,1-1.57-1.158l-8.843-28.74a1.64,1.64,0,0,1,1.565-2.123l69.605-.088a1.64,1.64,0,0,1,1.571,2.119l-8.77,28.762A1.64,1.64,0,0,1,358.148,336.378Z" transform="translate(-295.666 -271.043)" fill="#ecb42a"/>
        <path id="Trazado_903752" data-name="Trazado 903752" d="M298.542,304.448l-1.234,0a1.64,1.64,0,0,0-1.565,2.123l8.843,28.74a1.641,1.641,0,0,0,1.57,1.158l51.993-.065a1.64,1.64,0,0,0,1.567-1.162l3.768-12.359C340.791,332.541,311.951,322.359,298.542,304.448Z" transform="translate(-295.666 -271.07)" fill="#d6a32c"/>
        <path id="Trazado_903753" data-name="Trazado 903753" d="M313.337,314.52a62.791,62.791,0,0,0,26.122,9.65,70.286,70.286,0,0,0,8.549.53,49,49,0,0,0,17.278-2.883l1.217-3.992c-4.637,2.178-13.33,4.789-26.659,3.173a59.554,59.554,0,0,1-24.764-9.156,49.915,49.915,0,0,1-9.006-7.4l-4.244.005A49.487,49.487,0,0,0,313.337,314.52Z" transform="translate(-297.144 -271.068)" fill="#d6a32c"/>
      </g>
      <g id="Grupo_1108541" data-name="Grupo 1108541" transform="translate(51.819 67.85)">
        <g id="Grupo_1108539" data-name="Grupo 1108539">
          <path id="Trazado_903754" data-name="Trazado 903754" d="M191.129,192.054l-31.483,10.419,16.983,51.318,40.883-13.53L203.724,198.6Z" transform="translate(-159.646 -192.054)" fill="#fdfbe4"/>
          <path id="Trazado_903755" data-name="Trazado 903755" d="M209.339,201.991l-8.28-9.937,12.595,6.542Z" transform="translate(-169.576 -192.054)" fill="#e4ddad" opacity="0.36"/>
          <path id="Trazado_903756" data-name="Trazado 903756" d="M207.31,201.5l-6.251-9.447,12.595,6.542Z" transform="translate(-169.576 -192.054)" fill="#e4ddad"/>
        </g>
        <g id="Grupo_1108540" data-name="Grupo 1108540" transform="translate(10.467 6.544)">
          <rect id="Rectángulo_405571" data-name="Rectángulo 405571" width="24.524" height="1.309" transform="translate(0.57 7.705) rotate(-18.312)" fill="#b0ae9a"/>
          <rect id="Rectángulo_405572" data-name="Rectángulo 405572" width="31.685" height="1.309" transform="translate(0 17.378) rotate(-18.312)" fill="#b0ae9a"/>
          <rect id="Rectángulo_405573" data-name="Rectángulo 405573" width="31.685" height="1.309" transform="translate(1.519 21.965) rotate(-18.312)" fill="#b0ae9a"/>
          <rect id="Rectángulo_405574" data-name="Rectángulo 405574" width="31.685" height="1.309" transform="translate(3.037 26.553) rotate(-18.312)" fill="#b0ae9a"/>
          <rect id="Rectángulo_405575" data-name="Rectángulo 405575" width="31.685" height="1.309" transform="translate(4.555 31.142) rotate(-18.312)" fill="#b0ae9a"/>
          <rect id="Rectángulo_405576" data-name="Rectángulo 405576" width="31.685" height="1.309" transform="translate(6.074 35.729) rotate(-18.312)" fill="#b0ae9a"/>
          <rect id="Rectángulo_405577" data-name="Rectángulo 405577" width="31.685" height="1.309" transform="translate(7.592 40.317) rotate(-18.312)" fill="#b0ae9a"/>
          <rect id="Rectángulo_405578" data-name="Rectángulo 405578" width="31.685" height="1.309" transform="translate(9.111 44.904) rotate(-18.312)" fill="#b0ae9a"/>
        </g>
        <path id="Trazado_903757" data-name="Trazado 903757" d="M208.2,238.228l20.937,4.539-13.246-40.024Z" transform="translate(-171.288 -194.617)" fill="#e4ddad" opacity="0.36"/>
      </g>
      <g id="Grupo_1108544" data-name="Grupo 1108544" transform="translate(93.075 49.538)">
        <g id="Grupo_1108542" data-name="Grupo 1108542">
          <path id="Trazado_903758" data-name="Trazado 903758" d="M262.38,175.728l-35.813-7.762-12.652,58.376,46.506,10.079,10.272-47.395Z" transform="translate(-213.914 -167.966)" fill="#fdfbe4"/>
          <path id="Trazado_903759" data-name="Trazado 903759" d="M279.966,192.282l-2.3-14.106,8.312,13.3Z" transform="translate(-229.2 -170.414)" fill="#e4ddad" opacity="0.36"/>
          <path id="Trazado_903760" data-name="Trazado 903760" d="M278.31,190.677l-.644-12.5,8.312,13.3Z" transform="translate(-229.2 -170.414)" fill="#e4ddad"/>
        </g>
        <g id="Grupo_1108543" data-name="Grupo 1108543" transform="translate(7.936 9.831)">
          <rect id="Rectángulo_405579" data-name="Rectángulo 405579" width="27.099" height="1.447" transform="translate(13.067 0) rotate(12.228)" fill="#b0ae9a"/>
          <rect id="Rectángulo_405580" data-name="Rectángulo 405580" width="35.013" height="1.447" transform="translate(7.093 8.884) rotate(12.228)" fill="#b0ae9a"/>
          <rect id="Rectángulo_405581" data-name="Rectángulo 405581" width="35.013" height="1.447" transform="translate(5.962 14.103) rotate(12.228)" fill="#b0ae9a"/>
          <rect id="Rectángulo_405582" data-name="Rectángulo 405582" width="35.013" height="1.447" transform="translate(4.831 19.322) rotate(12.228)" fill="#b0ae9a"/>
          <rect id="Rectángulo_405583" data-name="Rectángulo 405583" width="35.013" height="1.447" transform="translate(3.7 24.54) rotate(12.228)" fill="#b0ae9a"/>
          <rect id="Rectángulo_405584" data-name="Rectángulo 405584" width="35.013" height="1.447" transform="translate(2.569 29.759) rotate(12.228)" fill="#b0ae9a"/>
          <rect id="Rectángulo_405585" data-name="Rectángulo 405585" width="35.013" height="1.447" transform="translate(1.438 34.977) rotate(12.228)" fill="#b0ae9a"/>
          <rect id="Rectángulo_405586" data-name="Rectángulo 405586" width="35.012" height="1.447" transform="translate(0.306 40.196) rotate(12.228)" fill="#b0ae9a"/>
        </g>
      </g>
      <path id="Trazado_903761" data-name="Trazado 903761" d="M107.947,212.452c2.25-18.106,12.186-46.074,59.65-60.281,18.591-5.564,38.285-5.984,57.375-9.466,7.093-1.294,14.3-3.113,20.172-7.3s10.195-11.2,9.36-18.363a12.926,12.926,0,0,0-4.89-8.929c-5.7-4.186-14.519-1.445-18.442,4.435s-3.745,13.713-1.516,20.422a38.576,38.576,0,0,0,17.283,21.107c15.671,8.956,36.3,6.176,51.308,16.2,7.9,5.275,13.376,13.691,16.289,22.733s3.423,18.707,2.855,28.189" transform="translate(-95.431 -103.594)" fill="none" stroke="#3f5a75" stroke-miterlimit="10" stroke-width="1" stroke-dasharray="5.137"/>
      <g id="Grupo_1108545" data-name="Grupo 1108545" transform="translate(48.941 0)" opacity="0.48">
        <path id="Trazado_903762" data-name="Trazado 903762" d="M351.884,178.32c9.939,3.043,22.761,14.887,25.912,26.948" transform="translate(-202.862 -120.911)" fill="none" stroke="#3f5a75" stroke-miterlimit="10" stroke-width="1" stroke-dasharray="5.137"/>
        <path id="Trazado_903763" data-name="Trazado 903763" d="M259.907,120.663c.141-3.535,1.3-13.8,9.811-17.859" transform="translate(-180.808 -102.804)" fill="none" stroke="#3f5a75" stroke-miterlimit="10" stroke-width="1" stroke-dasharray="5.137"/>
        <path id="Trazado_903764" data-name="Trazado 903764" d="M304.594,110.431c4.564,10.975.217,23.9-6.954,28.468" transform="translate(-189.855 -104.633)" fill="none" stroke="#3f5a75" stroke-miterlimit="10" stroke-width="1" stroke-dasharray="5.137"/>
        <path id="Trazado_903765" data-name="Trazado 903765" d="M155.86,167.6c22.739-12,49.567-14.932,60.1-14.893" transform="translate(-155.86 -114.769)" fill="none" stroke="#3f5a75" stroke-miterlimit="10" stroke-width="1" stroke-dasharray="5.137"/>
        <path id="Trazado_903766" data-name="Trazado 903766" d="M239.755,162.7c5.762-.807,9.671-1.2,15.725-2.4" transform="translate(-175.976 -116.589)" fill="none" stroke="#3f5a75" stroke-miterlimit="10" stroke-width="1" stroke-dasharray="5.137"/>
      </g>
    </g>
  </g>
</svg>
