<svg xmlns="http://www.w3.org/2000/svg" xmlns:xlink="http://www.w3.org/1999/xlink" width="101" height="101" viewBox="0 0 101 101">
  <defs>
    <filter id="Trazado_872540" x="0" y="0" width="101" height="101" filterUnits="userSpaceOnUse">
      <feOffset input="SourceAlpha"/>
      <feGaussianBlur stdDeviation="3" result="blur"/>
      <feFlood flood-color="#fff" flood-opacity="0.659"/>
      <feComposite operator="in" in2="blur"/>
      <feComposite in="SourceGraphic"/>
    </filter>
  </defs>
  <g id="Grupo_1108595" data-name="Grupo 1108595" transform="translate(-394 -3245)">
    <g transform="matrix(1, 0, 0, 1, 394, 3245)" filter="url(#Trazado_872540)">
      <path id="Trazado_872540-2" data-name="Trazado 872540" d="M41.5,0A41.5,41.5,0,1,1,0,41.5,41.5,41.5,0,0,1,41.5,0Z" transform="translate(9 9)" fill="#00ffdf"/>
    </g>
    <g id="Layer_x0020_1" transform="translate(417.987 3272.053)">
      <path id="Trazado_824416" data-name="Trazado 824416" d="M49.045,35.653H32.238v5.023h2a3.383,3.383,0,0,1,3.379,3.378v2.163H42.4a.608.608,0,0,1,0,1.216H9.473a.608.608,0,0,1,0-1.216h4.781V44.054a3.383,3.383,0,0,1,3.378-3.379h2V35.653H2.829A2.832,2.832,0,0,1,0,32.824V2.9A2.832,2.832,0,0,1,2.829.074H49.045A2.832,2.832,0,0,1,51.874,2.9V32.824a2.832,2.832,0,0,1-2.829,2.829ZM39,31.6h3.3v2.864H39Zm-1.216,2.836V31.6H6.222a2.172,2.172,0,0,1-2.169-2.169V6.3A2.172,2.172,0,0,1,6.222,4.127H45.653A2.172,2.172,0,0,1,47.822,6.3V29.431A2.172,2.172,0,0,1,45.653,31.6H43.515v2.836h5.53a1.615,1.615,0,0,0,1.613-1.613V2.9A1.615,1.615,0,0,0,49.045,1.29H2.829A1.615,1.615,0,0,0,1.216,2.9V32.824a1.615,1.615,0,0,0,1.613,1.613H37.788Zm-17.751-5H12.644a.608.608,0,0,1,0-1.216h7.392A.608.608,0,0,1,20.036,29.44Zm-9.74,0c-.817,0-1.849.189-1.849-.608s1.032-.608,1.849-.608A.608.608,0,0,1,10.3,29.44Zm9.74-2.02c-.817,0-1.849.189-1.849-.608s1.032-.608,1.849-.608A.608.608,0,0,1,20.036,27.419Zm-3.59,0H9.054a.608.608,0,0,1,0-1.216h7.392A.608.608,0,0,1,16.446,27.419Zm3.59-2.02H12.644a.608.608,0,0,1,0-1.216h7.392A.608.608,0,0,1,20.036,25.4Zm-9.74,0c-.817,0-1.849.189-1.849-.608s1.032-.608,1.849-.608A.608.608,0,0,1,10.3,25.4Zm32.524-9.56c-.818,0-1.849.189-1.849-.608s1.032-.608,1.849-.608a.608.608,0,0,1,0,1.216Zm-3.59,0H31.837a.608.608,0,0,1,0-1.216h7.392A.608.608,0,0,1,39.229,15.839Zm3.591-2.377H35.428a.608.608,0,0,1,0-1.216H42.82A.608.608,0,0,1,42.82,13.462Zm-9.741,0c-.818,0-1.849.189-1.849-.608s1.032-.608,1.849-.608a.608.608,0,0,1,0,1.216Zm9.74-2.377c-.818,0-1.849.189-1.849-.608S42,9.87,42.82,9.87a.608.608,0,0,1,0,1.216Zm-3.59,0H31.837a.608.608,0,0,1,0-1.216h7.392A.608.608,0,0,1,39.229,11.085ZM42.82,8.708H35.428a.608.608,0,0,1,0-1.216H42.82A.608.608,0,0,1,42.82,8.708Zm-9.741,0c-.818,0-1.849.189-1.849-.608s1.032-.608,1.849-.608a.608.608,0,0,1,0,1.216Zm8.112,17.54h-5.2a.608.608,0,0,1,0-1.216h5.2A.608.608,0,0,1,41.191,26.248Zm-6.851,0c-.585,0-1.481.147-1.481-.608s.9-.608,1.481-.608A.608.608,0,0,1,34.34,26.248Zm6.775-2.117H33.543a.608.608,0,0,1-.608-.608V20.615a.608.608,0,0,1,.608-.608h7.572a.608.608,0,0,1,.608.608v2.908A.608.608,0,0,1,41.114,24.131Zm-6.963-1.216h6.355V21.222H34.151Zm8.832,5.706H31.674a1.1,1.1,0,0,1-1.093-1.093V24.271H26.545v6.113H45.653a.954.954,0,0,0,.953-.953V6.3a.954.954,0,0,0-.953-.953H6.222a.954.954,0,0,0-.953.953V29.431a.954.954,0,0,0,.953.953H25.329v-11.5H21.293v3.256A1.094,1.094,0,0,1,20.2,23.238H8.891A1.1,1.1,0,0,1,7.8,22.145V13.7a1.1,1.1,0,0,1,1.093-1.093H20.2A1.1,1.1,0,0,1,21.293,13.7v3.972h4.036V13.53a8.166,8.166,0,0,1-1.541.661.609.609,0,0,1-.6-.688l.276-2.073L22.021,9.916a.609.609,0,0,1,.33-1.017l2.056-.378L25.4,6.681a.609.609,0,0,1,1.07,0l.994,1.839,2.057.378a.609.609,0,0,1,.33,1.017L28.412,11.43l.276,2.073a.61.61,0,0,1-.865.629l-1.277-.612v9.536h4.036V19.082a1.1,1.1,0,0,1,1.093-1.093H42.983a1.1,1.1,0,0,1,1.093,1.093v8.445a1.1,1.1,0,0,1-1.093,1.093ZM31.8,27.4H42.86V19.2H31.8Zm-13.39-6.539c-.585,0-1.481.147-1.481-.608s.9-.608,1.481-.608a.608.608,0,0,1,0,1.216Zm-2.525,0h-5.2a.608.608,0,0,1,0-1.216h5.2A.608.608,0,0,1,15.883,20.866Zm2.449-2.117H10.76a.608.608,0,0,1-.608-.608V15.232a.608.608,0,0,1,.608-.608h7.572a.608.608,0,0,1,.608.608V18.14A.608.608,0,0,1,18.331,18.748Zm-6.964-1.216h6.356V15.84H11.368Zm-2.354,4.49H20.078v-8.2H9.014ZM23.676,9.891c1.26,1.324,1.1.846.863,2.658.586-.281.9-.462,1.136-.543a.678.678,0,0,1,.527,0c.235.082.549.262,1.132.541-.242-1.812-.4-1.334.864-2.658-1.8-.33-1.392-.035-2.261-1.643-.87,1.608-.464,1.312-2.261,1.643Zm7.967,32H17.633a2.165,2.165,0,0,0-2.163,2.162v2.162H36.4V44.054a2.165,2.165,0,0,0-2.162-2.162h-2.6ZM20.852,40.675h10.17V35.653H20.852v5.023Z" transform="translate(0 -0.074)" fill="#000002" fill-rule="evenodd"/>
      <path id="Trazado_824417" data-name="Trazado 824417" d="M.374,2.285H6.73V.593H.374Z" transform="translate(10.993 15.172)" fill="#95e29f" fill-rule="evenodd"/>
      <path id="Trazado_824418" data-name="Trazado 824418" d="M7.166,6.354a.608.608,0,0,1,0,1.216h-5.2a.608.608,0,0,1,0-1.216Zm2.449-.9H2.043a.608.608,0,0,1-.608-.608V1.937a.608.608,0,0,1,.608-.608H9.614a.608.608,0,0,1,.608.608V4.845A.608.608,0,0,1,9.614,5.453ZM.3,8.727H11.361V.527H.3ZM9.69,7.57c-.585,0-1.481.147-1.481-.608s.9-.608,1.481-.608a.608.608,0,0,1,0,1.216Z" transform="translate(8.717 13.221)" fill="#4bcd5c" fill-rule="evenodd"/>
      <path id="Trazado_824419" data-name="Trazado 824419" d="M1.642,4.645c.586-.281.9-.462,1.136-.543a.678.678,0,0,1,.527,0c.235.082.549.262,1.132.541C4.2,2.832,4.04,3.31,5.3,1.986,3.5,1.656,3.909,1.951,3.04.343,2.17,1.951,2.577,1.656.779,1.986c1.26,1.324,1.1.846.863,2.658Z" transform="translate(22.897 7.83)" fill="#79a8d5" fill-rule="evenodd"/>
      <path id="Trazado_824420" data-name="Trazado 824420" d="M7.479.77H1.124V2.462H7.479Z" transform="translate(33.027 20.377)" fill="#ffdf9b" fill-rule="evenodd"/>
      <path id="Trazado_824421" data-name="Trazado 824421" d="M10.363,1.506a.608.608,0,0,1,.608.608V5.022a.608.608,0,0,1-.608.608H2.792a.608.608,0,0,1-.608-.608V2.114a.608.608,0,0,1,.608-.608ZM1.046,8.9H12.109V.7H1.046ZM5.241,6.531h5.2a.608.608,0,0,1,0,1.216h-5.2A.608.608,0,0,1,5.241,6.531Zm-1.652,0a.608.608,0,0,1,0,1.216c-.585,0-1.481.147-1.481-.608s.9-.608,1.481-.608Z" transform="translate(30.751 18.426)" fill="#ffc143" fill-rule="evenodd"/>
      <path id="Trazado_824422" data-name="Trazado 824422" d="M37.888,12.894a1.1,1.1,0,0,1,1.093,1.093v8.445a1.1,1.1,0,0,1-1.093,1.093H26.579a1.1,1.1,0,0,1-1.093-1.093V19.176H21.45v6.113H40.557a.954.954,0,0,0,.953-.953V1.2a.954.954,0,0,0-.953-.953H1.127A.954.954,0,0,0,.173,1.2V24.336a.954.954,0,0,0,.953.953H20.234v-11.5H16.2V17.05A1.094,1.094,0,0,1,15.1,18.143H3.8A1.1,1.1,0,0,1,2.7,17.05V8.605A1.1,1.1,0,0,1,3.8,7.512H15.1A1.1,1.1,0,0,1,16.2,8.605v3.972h4.036V8.435a8.166,8.166,0,0,1-1.541.661.609.609,0,0,1-.6-.688l.276-2.073L16.925,4.821a.609.609,0,0,1,.33-1.017l2.056-.378.995-1.839a.609.609,0,0,1,1.07,0l.994,1.839,2.057.378a.609.609,0,0,1,.33,1.017L23.316,6.335l.276,2.073a.61.61,0,0,1-.865.629L21.45,8.424V17.96h4.036V13.987a1.1,1.1,0,0,1,1.093-1.093H37.888ZM7.549,23.129h7.392a.608.608,0,0,1,0,1.216H7.549a.608.608,0,0,1,0-1.216Zm7.392-4.041a.608.608,0,0,1,0,1.216H7.549a.608.608,0,0,1,0-1.216Zm-3.59,2.02a.608.608,0,0,1,0,1.216H3.959a.608.608,0,0,1,0-1.216ZM5.2,23.129a.608.608,0,0,1,0,1.216c-.817,0-1.849.189-1.849-.608S4.384,23.129,5.2,23.129Zm9.74-2.021a.608.608,0,0,1,0,1.216c-.817,0-1.849.189-1.849-.608S14.123,21.109,14.941,21.109ZM5.2,19.088a.608.608,0,0,1,0,1.216c-.817,0-1.849.189-1.849-.608s1.032-.608,1.849-.608Zm32.524-9.56a.608.608,0,0,1,0,1.216c-.818,0-1.849.189-1.849-.608s1.032-.608,1.849-.608Zm-3.59,0a.608.608,0,0,1,0,1.216H26.742a.608.608,0,0,1,0-1.216Zm3.591-1.161H30.333a.608.608,0,0,1,0-1.216h7.392A.608.608,0,0,1,37.725,8.367Zm-9.741,0c-.818,0-1.849.189-1.849-.608s1.032-.608,1.849-.608a.608.608,0,0,1,0,1.216Zm9.74-2.377c-.818,0-1.849.189-1.849-.608s1.032-.608,1.849-.608a.608.608,0,0,1,0,1.216Zm-3.59,0H26.742a.608.608,0,0,1,0-1.216h7.392A.608.608,0,0,1,34.134,5.991Zm3.591-2.377H30.333a.608.608,0,0,1,0-1.216h7.392A.608.608,0,0,1,37.725,3.613Zm-9.741,0c-.818,0-1.849.189-1.849-.608S27.167,2.4,27.984,2.4a.608.608,0,0,1,0,1.216Z" transform="translate(5.095 5.02)" fill="#e6faff" fill-rule="evenodd"/>
      <path id="Trazado_824423" data-name="Trazado 824423" d="M5.046,2.951H44.477A2.172,2.172,0,0,1,46.646,5.12V28.255a2.172,2.172,0,0,1-2.169,2.169H42.339V33.26h5.53a1.615,1.615,0,0,0,1.613-1.613V1.727A1.615,1.615,0,0,0,47.869.114H1.653A1.615,1.615,0,0,0,.04,1.727V31.648A1.615,1.615,0,0,0,1.653,33.26H36.612V30.424H5.046a2.172,2.172,0,0,1-2.169-2.169V5.12A2.172,2.172,0,0,1,5.046,2.951Z" transform="translate(1.176 1.101)" fill="#555e6b" fill-rule="evenodd"/>
      <path id="Trazado_824424" data-name="Trazado 824424" d="M4.579,1.111h-3.3V3.976h3.3Z" transform="translate(37.72 30.414)" fill="#79a8d5" fill-rule="evenodd"/>
      <path id="Trazado_824425" data-name="Trazado 824425" d="M10.856,6.267V1.245H.686V6.267Z" transform="translate(20.166 34.334)" fill="#363c44" fill-rule="evenodd"/>
      <path id="Trazado_824426" data-name="Trazado 824426" d="M16.669,1.45h-14A2.165,2.165,0,0,0,.509,3.612V5.775H21.443V3.612A2.165,2.165,0,0,0,19.281,1.45H16.669Z" transform="translate(14.961 40.367)" fill="#555e6b" fill-rule="evenodd"/>
    </g>
  </g>
</svg>
