<svg xmlns="http://www.w3.org/2000/svg" xmlns:xlink="http://www.w3.org/1999/xlink" width="108.025" height="108.025" viewBox="0 0 108.025 108.025">
  <defs>
    <filter id="Trazado_824488" x="0" y="0" width="108.025" height="108.025" filterUnits="userSpaceOnUse">
      <feOffset input="SourceAlpha"/>
      <feGaussianBlur stdDeviation="3" result="blur"/>
      <feFlood flood-color="#fff" flood-opacity="0.659"/>
      <feComposite operator="in" in2="blur"/>
      <feComposite in="SourceGraphic"/>
    </filter>
  </defs>
  <g id="Grupo_1098580" data-name="Grupo 1098580" transform="translate(-410 -1112)">
    <g transform="matrix(1, 0, 0, 1, 410, 1112)" filter="url(#Trazado_824488)">
      <path id="Trazado_824488-2" data-name="Trazado 824488" d="M45.013,0A45.013,45.013,0,1,1,0,45.013,45.013,45.013,0,0,1,45.013,0Z" transform="translate(9 9)" fill="#00ffdf"/>
    </g>
    <g id="archivo-pdf_1_" data-name="archivo-pdf (1)" transform="translate(437.093 1136.592)">
      <g id="Grupo_1096603" data-name="Grupo 1096603" transform="translate(0.862 0.862)">
        <g id="Grupo_1096601" data-name="Grupo 1096601">
          <path id="Trazado_842680" data-name="Trazado 842680" d="M72.739,55.209h-31.7a3.448,3.448,0,0,1-3.448-3.448V10.948A3.448,3.448,0,0,1,41.042,7.5h31.7a3.448,3.448,0,0,1,3.448,3.448V51.761A3.448,3.448,0,0,1,72.739,55.209Z" transform="translate(-34.135 -7.5)" fill="#f7f6f7"/>
          <path id="Trazado_842681" data-name="Trazado 842681" d="M316.854,7.5h-3.448a3.448,3.448,0,0,1,3.448,3.448V51.761a3.448,3.448,0,0,1-3.448,3.448h3.448a3.448,3.448,0,0,0,3.448-3.448V10.948A3.448,3.448,0,0,0,316.854,7.5Z" transform="translate(-278.25 -7.5)" fill="#e2d8ec"/>
          <path id="Trazado_842682" data-name="Trazado 842682" d="M49.562,237.207H10.948A3.448,3.448,0,0,1,7.5,233.759V205.948a3.448,3.448,0,0,1,3.448-3.448H27.766a2.988,2.988,0,0,1,2.9,2.263l.592,2.369a2.988,2.988,0,0,0,2.9,2.263H49.562a3.448,3.448,0,0,1,3.448,3.448v20.916A3.448,3.448,0,0,1,49.562,237.207Z" transform="translate(-7.5 -180.09)" fill="#f7e07f"/>
          <g id="Grupo_1096600" data-name="Grupo 1096600" transform="translate(16.818 22.41)">
            <path id="Trazado_842683" data-name="Trazado 842683" d="M156.741,204.763l.592,2.369a2.988,2.988,0,0,0,2.9,2.263h3.448a2.988,2.988,0,0,1-2.9-2.263l-.592-2.369a2.988,2.988,0,0,0-2.9-2.263h-3.448A2.988,2.988,0,0,1,156.741,204.763Z" transform="translate(-153.842 -202.5)" fill="#f0d16f"/>
            <path id="Trazado_842684" data-name="Trazado 842684" d="M346.948,262.5H343.5a3.448,3.448,0,0,1,3.448,3.448v20.916a3.448,3.448,0,0,1-3.448,3.448h3.448a3.448,3.448,0,0,0,3.448-3.448V265.948A3.448,3.448,0,0,0,346.948,262.5Z" transform="translate(-321.704 -255.605)" fill="#f0d16f"/>
          </g>
          <path id="Trazado_842685" data-name="Trazado 842685" d="M114.855,57.672H89.124a.575.575,0,0,1-.575-.575V53.075a.575.575,0,0,1,.575-.575h25.732a.575.575,0,0,1,.575.575V57.1A.575.575,0,0,1,114.855,57.672Z" transform="translate(-79.235 -47.328)" fill="#e2dfe3"/>
        </g>
        <g id="Grupo_1096602" data-name="Grupo 1096602" transform="translate(35.573 35.573)">
          <path id="Trazado_850923" data-name="Trazado 850923" d="M10.772,0A10.772,10.772,0,1,1,0,10.772,10.772,10.772,0,0,1,10.772,0Z" transform="translate(0 0)" fill="#79cd34"/>
          <path id="Trazado_842686" data-name="Trazado 842686" d="M397.491,317.033a10.858,10.858,0,0,0-1.724.138,10.773,10.773,0,0,1,0,21.269,10.773,10.773,0,1,0,1.724-21.406Z" transform="translate(-386.719 -317.033)" fill="#529918"/>
          <path id="Trazado_842687" data-name="Trazado 842687" d="M372.573,365.478V358.42a.65.65,0,0,1,.65-.65h2.707a.65.65,0,0,1,.65.65v7.058a.65.65,0,0,0,.65.65h1.487a.557.557,0,0,1,.394.951l-4.075,4.075a.65.65,0,0,1-.919,0l-4.075-4.075a.557.557,0,0,1,.394-.951h1.487A.65.65,0,0,0,372.573,365.478Z" transform="translate(-363.804 -353.088)" fill="#fff"/>
        </g>
      </g>
      <path id="Trazado_842688" data-name="Trazado 842688" d="M37.057,15.515H10.176a.862.862,0,0,0,0,1.724H37.057a.862.862,0,0,0,0-1.724ZM36.483,5.172h-5.7a.862.862,0,1,0,0,1.724H36.2v3.448H11.038V6.9H26.758a.862.862,0,0,0,0-1.724H10.751A1.438,1.438,0,0,0,9.314,6.608V10.63a1.438,1.438,0,0,0,1.437,1.437H36.483a1.438,1.438,0,0,0,1.437-1.437V6.608a1.438,1.438,0,0,0-1.436-1.437Zm.575,13.791H10.176a.862.862,0,0,0,0,1.724H37.057a.862.862,0,0,0,0-1.724Zm0,6.9H27.415a.862.862,0,0,0,0,1.724h9.642a.862.862,0,0,0,0-1.724Zm0-3.448H27.415a.862.862,0,0,0,0,1.724h9.642a.862.862,0,0,0,0-1.724ZM47.234,35.573V33.615a4.317,4.317,0,0,0-3.458-4.225V4.31A4.314,4.314,0,0,0,39.466,0H7.768a4.314,4.314,0,0,0-4.31,4.31V22.5A4.317,4.317,0,0,0,0,26.72V38.95a.862.862,0,1,0,1.724,0V26.72A2.589,2.589,0,0,1,4.31,24.134H21.128a2.125,2.125,0,0,1,2.063,1.61l.592,2.37a3.843,3.843,0,0,0,3.735,2.916H42.924a2.589,2.589,0,0,1,2.586,2.586V35.7a11.632,11.632,0,0,0-4.391,21.42H4.31a2.588,2.588,0,0,1-2.586-2.586V42.972a.862.862,0,1,0-1.724,0V54.532a4.314,4.314,0,0,0,4.31,4.31H42.924a4.255,4.255,0,0,0,1.606-.311,11.634,11.634,0,1,0,2.7-22.957Zm-5.182-6.268H27.517a2.122,2.122,0,0,1-2.062-1.61l-.592-2.37a3.846,3.846,0,0,0-3.736-2.915H5.182V4.31A2.589,2.589,0,0,1,7.768,1.724h31.7A2.589,2.589,0,0,1,42.052,4.31Zm5.155,27.812a9.91,9.91,0,1,1,9.91-9.91A9.921,9.921,0,0,1,47.207,57.117Zm4.141-8.505H50.072V41.766a1.514,1.514,0,0,0-1.512-1.512H45.854a1.514,1.514,0,0,0-1.512,1.512v6.846H43.066a1.419,1.419,0,0,0-1,2.423l4.075,4.075a1.514,1.514,0,0,0,2.138,0l4.075-4.075a1.419,1.419,0,0,0-1-2.423Zm-4.141,5.129-3.4-3.4h.751a1.514,1.514,0,0,0,1.512-1.512V41.978h2.283v6.846a1.514,1.514,0,0,0,1.512,1.512h.751Zm-14.16-12.6a.862.862,0,0,0,0-1.724h-3.1a.862.862,0,0,0-.862.862v7.647a.862.862,0,0,0,1.724,0V44.891H32.8a.862.862,0,1,0,0-1.724H30.81V41.14Zm-11.29,7.647h0c.064,0,1.573-.006,2.176-.017,2.2-.039,3.8-1.966,3.8-4.583,0-2.751-1.56-4.6-3.881-4.6H21.742a.862.862,0,0,0-.862.864V47.8a.957.957,0,0,0,.877.983Zm2.1-7.476c1.59,0,2.157,1.486,2.157,2.876,0,1.95-1.06,2.841-2.11,2.86-.3.005-.828.009-1.29.012,0-.884-.009-4.828-.011-5.748h1.254Zm-8.81,6.614V45.436c.456,0,.987,0,1.283,0a3.036,3.036,0,1,0,0-6.072H14.187a.871.871,0,0,0-.862.862v7.7a.862.862,0,0,0,1.724,0Zm1.283-6.842a1.313,1.313,0,1,1,0,2.624c-.294,0-.818,0-1.273,0,0-.469-.006-2.138-.008-2.629Z" transform="translate(0)"/>
    </g>
  </g>
</svg>
