<svg xmlns="http://www.w3.org/2000/svg" width="422.746" height="355.217" viewBox="0 0 422.746 355.217">
  <g id="OBJECTS" transform="translate(-31.951 -77.533)">
    <g id="Grupo_1107869" data-name="Grupo 1107869" transform="translate(42.626 141.265)">
      <path id="Trazado_902850" data-name="Trazado 902850" d="M289.562,185.745c84.593-31.323,171.547,12.083,119.048,109.222C357.541,389.46,432.735,414.5,432.735,414.5L125.191,412.75C62.6,388.938,9.345,285.412,67.923,252.85c0,0,37.271-7.542,40.618-34.887S97.064,168.188,120.973,151s64.118-12.463,101.371,21.033C251.034,197.828,289.562,185.745,289.562,185.745Z" transform="translate(-42.626 -141.265)" fill="#e1d7f4"/>
    </g>
    <ellipse id="Elipse_12228" data-name="Elipse 12228" cx="211.23" cy="13.999" rx="211.23" ry="13.999" transform="translate(31.951 404.752)" fill="#e1d7f4"/>
    <g id="Grupo_1107872" data-name="Grupo 1107872" transform="translate(52 102.006)">
      <g id="Grupo_1107870" data-name="Grupo 1107870" transform="translate(366.276 181.779)">
        <path id="Trazado_902851" data-name="Trazado 902851" d="M474.53,319.455l-2.6-5.315-4.98,2.433a13.275,13.275,0,0,0-3.139-2.952l1.754-5.106-5.6-1.922-1.679,4.887a13.254,13.254,0,0,0-5.3.3l-2.433-4.982-5.315,2.6,2.508,5.134a13.2,13.2,0,0,0-2.4,2.681l-5.107-1.755-1.922,5.6,4.887,1.679a13.254,13.254,0,0,0,.3,5.3l-4.354,2.126,2.6,5.316,4.507-2.2a13.175,13.175,0,0,0,3.538,2.939l-1.68,4.888,5.6,1.922,1.755-5.106a13.251,13.251,0,0,0,4.964-.608l2.447,5.011,5.315-2.6-2.653-5.432a13.177,13.177,0,0,0,2.4-3.059l4.888,1.68,1.922-5.6-5.106-1.754a13.206,13.206,0,0,0-.246-3.591ZM461.5,326.4a5.422,5.422,0,1,1-3.366-6.89A5.428,5.428,0,0,1,461.5,326.4Z" transform="translate(-438.325 -283.785)" fill="#e1d7f4"/>
        <path id="Trazado_902852" data-name="Trazado 902852" d="M472.57,290.815l-1.42-2.9-2.722,1.33a7.249,7.249,0,0,0-1.716-1.614l.959-2.79-3.058-1.051-.918,2.671a7.218,7.218,0,0,0-2.9.163l-1.33-2.723-2.9,1.42,1.371,2.8a7.235,7.235,0,0,0-1.312,1.465l-2.791-.959-1.051,3.058,2.671.918a7.237,7.237,0,0,0,.163,2.9l-2.379,1.162,1.419,2.9,2.463-1.2a7.2,7.2,0,0,0,1.934,1.606l-.918,2.671,3.058,1.05.959-2.791a7.234,7.234,0,0,0,2.713-.332L466.2,303.3l2.9-1.42-1.45-2.969a7.163,7.163,0,0,0,1.31-1.672l2.671.918,1.051-3.058-2.79-.959a7.222,7.222,0,0,0-.134-1.962Zm-7.119,3.8a2.963,2.963,0,1,1-1.84-3.765A2.967,2.967,0,0,1,465.451,294.613Z" transform="translate(-438.325 -283.785)" fill="#e1d7f4"/>
      </g>
      <g id="Grupo_1107871" data-name="Grupo 1107871" transform="translate(0)">
        <path id="Trazado_902853" data-name="Trazado 902853" d="M51.744,237.875l-1-5.83-5.462.94a13.287,13.287,0,0,0-2.186-3.714l3.115-4.41-4.832-3.413-2.981,4.221a13.235,13.235,0,0,0-5.17-1.2l-.94-5.464-5.83,1,.969,5.631a13.184,13.184,0,0,0-3.055,1.9l-4.41-3.116-3.413,4.832,4.221,2.981a13.235,13.235,0,0,0-1.2,5.17l-4.776.821,1,5.83,4.944-.851a13.185,13.185,0,0,0,2.572,3.813l-2.982,4.221,4.832,3.413,3.116-4.41a13.236,13.236,0,0,0,4.936.807l.945,5.5,5.83-1-1.025-5.958a13.17,13.17,0,0,0,3.158-2.265l4.221,2.982,3.413-4.832-4.41-3.115a13.185,13.185,0,0,0,.77-3.516ZM37.292,240.9a5.422,5.422,0,1,1-1.3-7.558A5.427,5.427,0,0,1,37.292,240.9Z" transform="translate(-14.545 -219.006)" fill="#e1d7f4"/>
        <path id="Trazado_902854" data-name="Trazado 902854" d="M34.739,269.087,34.19,265.9l-2.985.514a7.248,7.248,0,0,0-1.195-2.03l1.7-2.41-2.641-1.865-1.629,2.307a7.213,7.213,0,0,0-2.825-.655l-.513-2.986-3.186.549.53,3.077a7.217,7.217,0,0,0-1.67,1.039l-2.41-1.7L15.5,264.379l2.307,1.629a7.231,7.231,0,0,0-.655,2.825l-2.61.449.548,3.187,2.7-.465a7.231,7.231,0,0,0,1.406,2.084L17.57,276.4l2.641,1.865,1.7-2.41a7.223,7.223,0,0,0,2.7.441l.517,3,3.186-.549-.56-3.256a7.177,7.177,0,0,0,1.726-1.238l2.307,1.63,1.865-2.641-2.41-1.7a7.235,7.235,0,0,0,.421-1.921Zm-7.9,1.652a2.963,2.963,0,1,1-.71-4.13A2.966,2.966,0,0,1,26.841,270.739Z" transform="translate(-14.545 -219.006)" fill="#e1d7f4"/>
      </g>
    </g>
    <g id="Grupo_1107923" data-name="Grupo 1107923" transform="translate(85.086 112.689)">
      <g id="Grupo_1107897" data-name="Grupo 1107897" transform="translate(246.141 37.323)">
        <g id="Grupo_1107896" data-name="Grupo 1107896">
          <g id="Grupo_1107873" data-name="Grupo 1107873" transform="translate(24.143 36.089)">
            <path id="Trazado_902855" data-name="Trazado 902855" d="M450.048,187.1a5.466,5.466,0,1,1-5.466,5.466A5.472,5.472,0,0,1,450.048,187.1Zm0,9.217a3.751,3.751,0,1,0-3.751-3.751A3.756,3.756,0,0,0,450.048,196.318Z" transform="translate(-444.582 -187.101)" fill="#7742c8"/>
          </g>
          <g id="Grupo_1107876" data-name="Grupo 1107876" transform="translate(3.112 21.778)">
            <g id="Grupo_1107875" data-name="Grupo 1107875">
              <g id="Grupo_1107874" data-name="Grupo 1107874">
                <path id="Trazado_902856" data-name="Trazado 902856" d="M429.017,172.79a5.466,5.466,0,1,1-5.466,5.466A5.472,5.472,0,0,1,429.017,172.79Zm0,9.217a3.751,3.751,0,1,0-3.751-3.751A3.755,3.755,0,0,0,429.017,182.007Z" transform="translate(-423.551 -172.79)" fill="#fdb105"/>
              </g>
            </g>
          </g>
          <g id="Grupo_1107883" data-name="Grupo 1107883">
            <g id="Grupo_1107879" data-name="Grupo 1107879" transform="translate(5.307)">
              <g id="Grupo_1107877" data-name="Grupo 1107877" transform="translate(0 6.617)">
                <path id="Trazado_902857" data-name="Trazado 902857" d="M426.6,157.629a.857.857,0,0,1,.857.857v3.781a.857.857,0,1,1-1.714,0v-3.781A.857.857,0,0,1,426.6,157.629Z" transform="translate(-425.746 -157.629)" fill="#7742c8"/>
              </g>
              <g id="Grupo_1107878" data-name="Grupo 1107878">
                <path id="Trazado_902858" data-name="Trazado 902858" d="M426.6,151.012a.857.857,0,0,1,.857.857v3.781a.857.857,0,0,1-1.714,0v-3.781A.857.857,0,0,1,426.6,151.012Z" transform="translate(-425.746 -151.012)" fill="#7742c8"/>
              </g>
            </g>
            <g id="Grupo_1107882" data-name="Grupo 1107882" transform="translate(0 5.199)">
              <g id="Grupo_1107880" data-name="Grupo 1107880">
                <path id="Trazado_902859" data-name="Trazado 902859" d="M421.3,156.211h3.4a.857.857,0,0,1,0,1.715h-3.4a.857.857,0,0,1,0-1.715Z" transform="translate(-420.439 -156.211)" fill="#7742c8"/>
              </g>
              <g id="Grupo_1107881" data-name="Grupo 1107881" transform="translate(7.217)">
                <path id="Trazado_902860" data-name="Trazado 902860" d="M428.514,156.211h3.4a.857.857,0,0,1,0,1.715h-3.4a.857.857,0,1,1,0-1.715Z" transform="translate(-427.656 -156.211)" fill="#7742c8"/>
              </g>
            </g>
          </g>
          <g id="Grupo_1107895" data-name="Grupo 1107895" transform="translate(23.444 13.416)">
            <g id="Grupo_1107894" data-name="Grupo 1107894">
              <g id="Grupo_1107888" data-name="Grupo 1107888" transform="translate(5.307)">
                <g id="Grupo_1107885" data-name="Grupo 1107885" transform="translate(0 6.617)">
                  <g id="Grupo_1107884" data-name="Grupo 1107884">
                    <path id="Trazado_902861" data-name="Trazado 902861" d="M450.048,171.045a.857.857,0,0,1,.857.857v3.781a.857.857,0,0,1-1.715,0V171.9A.858.858,0,0,1,450.048,171.045Z" transform="translate(-449.19 -171.045)" fill="#fdb105"/>
                  </g>
                </g>
                <g id="Grupo_1107887" data-name="Grupo 1107887">
                  <g id="Grupo_1107886" data-name="Grupo 1107886">
                    <path id="Trazado_902862" data-name="Trazado 902862" d="M450.048,164.428a.858.858,0,0,1,.857.858v3.781a.857.857,0,0,1-1.715,0v-3.781A.858.858,0,0,1,450.048,164.428Z" transform="translate(-449.19 -164.428)" fill="#fdb105"/>
                  </g>
                </g>
              </g>
              <g id="Grupo_1107893" data-name="Grupo 1107893" transform="translate(0 5.199)">
                <g id="Grupo_1107890" data-name="Grupo 1107890">
                  <g id="Grupo_1107889" data-name="Grupo 1107889">
                    <path id="Trazado_902863" data-name="Trazado 902863" d="M444.74,169.627h3.4a.857.857,0,1,1,0,1.714h-3.4a.857.857,0,0,1,0-1.714Z" transform="translate(-443.883 -169.627)" fill="#fdb105"/>
                  </g>
                </g>
                <g id="Grupo_1107892" data-name="Grupo 1107892" transform="translate(7.218)">
                  <g id="Grupo_1107891" data-name="Grupo 1107891">
                    <path id="Trazado_902864" data-name="Trazado 902864" d="M451.958,169.627h3.4a.857.857,0,1,1,0,1.714h-3.4a.857.857,0,0,1,0-1.714Z" transform="translate(-451.101 -169.627)" fill="#fdb105"/>
                  </g>
                </g>
              </g>
            </g>
          </g>
        </g>
      </g>
      <g id="Grupo_1107922" data-name="Grupo 1107922">
        <g id="Grupo_1107921" data-name="Grupo 1107921">
          <g id="Grupo_1107898" data-name="Grupo 1107898" transform="translate(0.699 36.089)">
            <path id="Trazado_902865" data-name="Trazado 902865" d="M96.717,154.244a5.466,5.466,0,1,1-5.466-5.466A5.472,5.472,0,0,1,96.717,154.244Zm-1.715,0A3.751,3.751,0,1,0,91.251,158,3.756,3.756,0,0,0,95,154.244Z" transform="translate(-85.785 -148.778)" fill="#7742c8"/>
          </g>
          <g id="Grupo_1107901" data-name="Grupo 1107901" transform="translate(21.73 21.778)">
            <g id="Grupo_1107900" data-name="Grupo 1107900">
              <g id="Grupo_1107899" data-name="Grupo 1107899">
                <path id="Trazado_902866" data-name="Trazado 902866" d="M117.748,139.933a5.466,5.466,0,1,1-5.466-5.466A5.472,5.472,0,0,1,117.748,139.933Zm-1.715,0a3.751,3.751,0,1,0-3.751,3.751A3.755,3.755,0,0,0,116.033,139.933Z" transform="translate(-106.816 -134.467)" fill="#fdb105"/>
              </g>
            </g>
          </g>
          <g id="Grupo_1107908" data-name="Grupo 1107908" transform="translate(23.445)">
            <g id="Grupo_1107904" data-name="Grupo 1107904" transform="translate(5.308)">
              <g id="Grupo_1107902" data-name="Grupo 1107902" transform="translate(0 6.617)">
                <path id="Trazado_902867" data-name="Trazado 902867" d="M114.7,119.306a.857.857,0,0,0-.857.857v3.781a.857.857,0,1,0,1.714,0v-3.781A.857.857,0,0,0,114.7,119.306Z" transform="translate(-113.839 -119.306)" fill="#7742c8"/>
              </g>
              <g id="Grupo_1107903" data-name="Grupo 1107903">
                <path id="Trazado_902868" data-name="Trazado 902868" d="M114.7,112.689a.857.857,0,0,0-.857.857v3.781a.857.857,0,0,0,1.714,0v-3.781A.857.857,0,0,0,114.7,112.689Z" transform="translate(-113.839 -112.689)" fill="#7742c8"/>
              </g>
            </g>
            <g id="Grupo_1107907" data-name="Grupo 1107907" transform="translate(0 5.199)">
              <g id="Grupo_1107905" data-name="Grupo 1107905" transform="translate(7.217)">
                <path id="Trazado_902869" data-name="Trazado 902869" d="M120,117.888h-3.4a.857.857,0,1,0,0,1.714H120a.857.857,0,0,0,0-1.714Z" transform="translate(-115.748 -117.888)" fill="#7742c8"/>
              </g>
              <g id="Grupo_1107906" data-name="Grupo 1107906">
                <path id="Trazado_902870" data-name="Trazado 902870" d="M112.785,117.888h-3.4a.857.857,0,0,0,0,1.714h3.4a.857.857,0,1,0,0-1.714Z" transform="translate(-108.531 -117.888)" fill="#7742c8"/>
              </g>
            </g>
          </g>
          <g id="Grupo_1107920" data-name="Grupo 1107920" transform="translate(0 13.416)">
            <g id="Grupo_1107919" data-name="Grupo 1107919">
              <g id="Grupo_1107913" data-name="Grupo 1107913" transform="translate(5.308)">
                <g id="Grupo_1107910" data-name="Grupo 1107910" transform="translate(0 6.617)">
                  <g id="Grupo_1107909" data-name="Grupo 1107909">
                    <path id="Trazado_902871" data-name="Trazado 902871" d="M91.251,132.722a.857.857,0,0,0-.857.857v3.781a.858.858,0,0,0,1.715,0v-3.781A.858.858,0,0,0,91.251,132.722Z" transform="translate(-90.394 -132.722)" fill="#fdb105"/>
                  </g>
                </g>
                <g id="Grupo_1107912" data-name="Grupo 1107912">
                  <g id="Grupo_1107911" data-name="Grupo 1107911">
                    <path id="Trazado_902872" data-name="Trazado 902872" d="M91.251,126.105a.857.857,0,0,0-.857.857v3.781a.858.858,0,0,0,1.715,0v-3.781A.858.858,0,0,0,91.251,126.105Z" transform="translate(-90.394 -126.105)" fill="#fdb105"/>
                  </g>
                </g>
              </g>
              <g id="Grupo_1107918" data-name="Grupo 1107918" transform="translate(0 5.199)">
                <g id="Grupo_1107915" data-name="Grupo 1107915" transform="translate(7.219)">
                  <g id="Grupo_1107914" data-name="Grupo 1107914">
                    <path id="Trazado_902873" data-name="Trazado 902873" d="M96.559,131.3h-3.4a.857.857,0,1,0,0,1.714h3.4a.857.857,0,1,0,0-1.714Z" transform="translate(-92.305 -131.304)" fill="#fdb105"/>
                  </g>
                </g>
                <g id="Grupo_1107917" data-name="Grupo 1107917">
                  <g id="Grupo_1107916" data-name="Grupo 1107916">
                    <path id="Trazado_902874" data-name="Trazado 902874" d="M89.34,131.3h-3.4a.857.857,0,1,0,0,1.714h3.4a.857.857,0,1,0,0-1.714Z" transform="translate(-85.086 -131.304)" fill="#fdb105"/>
                  </g>
                </g>
              </g>
            </g>
          </g>
        </g>
      </g>
    </g>
    <g id="Grupo_1107940" data-name="Grupo 1107940" transform="translate(251.394 189.417)">
      <g id="Grupo_1107937" data-name="Grupo 1107937">
        <path id="Trazado_902887" data-name="Trazado 902887" d="M341.631,199.815c-4.331,11.5-16.035,10.294-16.465,19.847s-6.937,16.363-15.047,14.029-13.951-4.508-18.385,4.709-16.749,13.1-20.957,5.278c-1.049-1.947-2.181-4.058-3.287-6.128-.3-.566-.6-1.129-.9-1.684-.07-.128-.139-.257-.206-.385a18.532,18.532,0,0,1,5.775-24.071c3.165-2.144,6.844-3.215,10.823-1.728,12.462,4.65,8.787-8.479,16.757-13.354,9.178-5.618,16.167,1.979,22.531-2.911C331.122,186.617,345.961,188.319,341.631,199.815Z" transform="translate(-264.165 -189.417)" fill="#7742c8"/>
        <g id="Grupo_1107936" data-name="Grupo 1107936" transform="translate(2.425 12.611)">
          <path id="Trazado_902888" data-name="Trazado 902888" d="M326.083,203.81,267.49,237.55c-.3-.566-.6-1.129-.9-1.684l58.54-33.71a.954.954,0,0,1,.953,1.654Z" transform="translate(-266.59 -202.028)" fill="#5c17b0"/>
        </g>
      </g>
    </g>
    <g id="Grupo_1107959" data-name="Grupo 1107959" transform="translate(63.711 195.982)">
      <g id="Grupo_1107953" data-name="Grupo 1107953">
        <path id="Trazado_902896" data-name="Trazado 902896" d="M306.942,200.649V354.728a4.666,4.666,0,0,1-4.667,4.667H68.378a4.666,4.666,0,0,1-4.667-4.667V200.649a4.666,4.666,0,0,1,4.667-4.667h233.9A4.666,4.666,0,0,1,306.942,200.649Z" transform="translate(-63.711 -195.982)" fill="#2e3062"/>
        <path id="Trazado_902897" data-name="Trazado 902897" d="M300.491,207.252V348.125a4.738,4.738,0,0,1-4.74,4.74H74.9a4.544,4.544,0,0,1-1.644-.3,4.72,4.72,0,0,1-3.089-4.439V207.252a4.736,4.736,0,0,1,4.732-4.74H295.75a4.744,4.744,0,0,1,4.741,4.74Z" transform="translate(-63.711 -195.982)" fill="#fff"/>
        <g id="Grupo_1107943" data-name="Grupo 1107943" transform="translate(16.121 54.647)">
          <g id="Grupo_1107941" data-name="Grupo 1107941">
            <path id="Trazado_902898" data-name="Trazado 902898" d="M120.25,254.145H81.59a1.758,1.758,0,0,1-1.758-1.758h0a1.758,1.758,0,0,1,1.758-1.758h38.66a1.758,1.758,0,0,1,1.758,1.758h0A1.758,1.758,0,0,1,120.25,254.145Z" transform="translate(-79.832 -250.629)" fill="#d4c7e8" opacity="0.6"/>
            <path id="Trazado_902899" data-name="Trazado 902899" d="M120.25,265.757H81.59A1.758,1.758,0,0,1,79.832,264h0a1.758,1.758,0,0,1,1.758-1.758h38.66A1.758,1.758,0,0,1,122.008,264h0A1.758,1.758,0,0,1,120.25,265.757Z" transform="translate(-79.832 -250.629)" fill="#d4c7e8" opacity="0.6"/>
            <path id="Trazado_902900" data-name="Trazado 902900" d="M120.25,277.369H81.59a1.758,1.758,0,0,1-1.758-1.758h0a1.758,1.758,0,0,1,1.758-1.758h38.66a1.758,1.758,0,0,1,1.758,1.758h0A1.758,1.758,0,0,1,120.25,277.369Z" transform="translate(-79.832 -250.629)" fill="#d4c7e8" opacity="0.6"/>
            <path id="Trazado_902901" data-name="Trazado 902901" d="M120.25,288.981H81.59a1.758,1.758,0,0,1-1.758-1.758h0a1.758,1.758,0,0,1,1.758-1.758h38.66a1.758,1.758,0,0,1,1.758,1.758h0A1.758,1.758,0,0,1,120.25,288.981Z" transform="translate(-79.832 -250.629)" fill="#d4c7e8" opacity="0.6"/>
            <path id="Trazado_902902" data-name="Trazado 902902" d="M120.25,300.593H81.59a1.758,1.758,0,0,1-1.758-1.758h0a1.758,1.758,0,0,1,1.758-1.758h38.66a1.758,1.758,0,0,1,1.758,1.758h0A1.758,1.758,0,0,1,120.25,300.593Z" transform="translate(-79.832 -250.629)" fill="#d4c7e8" opacity="0.6"/>
            <path id="Trazado_902903" data-name="Trazado 902903" d="M120.25,312.2H81.59a1.758,1.758,0,0,1-1.758-1.758h0a1.758,1.758,0,0,1,1.758-1.758h38.66a1.758,1.758,0,0,1,1.758,1.758h0A1.758,1.758,0,0,1,120.25,312.2Z" transform="translate(-79.832 -250.629)" fill="#d4c7e8" opacity="0.6"/>
          </g>
          <g id="Grupo_1107942" data-name="Grupo 1107942" transform="translate(168.962)">
            <path id="Trazado_902904" data-name="Trazado 902904" d="M289.212,254.145h-38.66a1.758,1.758,0,0,1-1.758-1.758h0a1.758,1.758,0,0,1,1.758-1.758h38.66a1.758,1.758,0,0,1,1.758,1.758h0A1.757,1.757,0,0,1,289.212,254.145Z" transform="translate(-248.794 -250.629)" fill="#d4c7e8" opacity="0.6"/>
            <path id="Trazado_902905" data-name="Trazado 902905" d="M289.212,265.757h-38.66A1.758,1.758,0,0,1,248.794,264h0a1.758,1.758,0,0,1,1.758-1.758h38.66A1.758,1.758,0,0,1,290.97,264h0A1.757,1.757,0,0,1,289.212,265.757Z" transform="translate(-248.794 -250.629)" fill="#d4c7e8" opacity="0.6"/>
            <path id="Trazado_902906" data-name="Trazado 902906" d="M289.212,277.369h-38.66a1.758,1.758,0,0,1-1.758-1.758h0a1.758,1.758,0,0,1,1.758-1.758h38.66a1.758,1.758,0,0,1,1.758,1.758h0A1.757,1.757,0,0,1,289.212,277.369Z" transform="translate(-248.794 -250.629)" fill="#d4c7e8" opacity="0.6"/>
            <path id="Trazado_902907" data-name="Trazado 902907" d="M289.212,288.981h-38.66a1.758,1.758,0,0,1-1.758-1.758h0a1.758,1.758,0,0,1,1.758-1.758h38.66a1.758,1.758,0,0,1,1.758,1.758h0A1.757,1.757,0,0,1,289.212,288.981Z" transform="translate(-248.794 -250.629)" fill="#d4c7e8" opacity="0.6"/>
            <path id="Trazado_902908" data-name="Trazado 902908" d="M289.212,300.593h-38.66a1.758,1.758,0,0,1-1.758-1.758h0a1.758,1.758,0,0,1,1.758-1.758h38.66a1.758,1.758,0,0,1,1.758,1.758h0A1.757,1.757,0,0,1,289.212,300.593Z" transform="translate(-248.794 -250.629)" fill="#d4c7e8" opacity="0.6"/>
            <path id="Trazado_902909" data-name="Trazado 902909" d="M289.212,312.2h-38.66a1.758,1.758,0,0,1-1.758-1.758h0a1.758,1.758,0,0,1,1.758-1.758h38.66a1.758,1.758,0,0,1,1.758,1.758h0A1.757,1.757,0,0,1,289.212,312.2Z" transform="translate(-248.794 -250.629)" fill="#d4c7e8" opacity="0.6"/>
          </g>
        </g>
        <g id="Grupo_1107948" data-name="Grupo 1107948" transform="translate(66.364 44.145)">
          <path id="Trazado_902910" data-name="Trazado 902910" d="M231.579,257.231H181.087l-14.843-8.613H141.559a5.091,5.091,0,0,0-5.091,5.091v69.282a4.784,4.784,0,0,0,4.784,4.784h89.686a4.857,4.857,0,0,0,.964-.1,4.786,4.786,0,0,0,3.82-4.687V261.375A4.143,4.143,0,0,0,231.579,257.231Z" transform="translate(-130.075 -240.127)" fill="#d4c7e8" opacity="0.6"/>
          <g id="Grupo_1107947" data-name="Grupo 1107947">
            <path id="Trazado_902911" data-name="Trazado 902911" d="M159.851,240.127H135.166a5.091,5.091,0,0,0-5.091,5.091v66.158a7.909,7.909,0,0,0,7.909,7.909h86.561a4.784,4.784,0,0,0,4.784-4.784V252.884a4.143,4.143,0,0,0-4.143-4.143H174.694Z" transform="translate(-130.075 -240.127)" fill="#fd9200"/>
            <g id="Grupo_1107944" data-name="Grupo 1107944" transform="translate(0 31.581)">
              <path id="Trazado_902912" data-name="Trazado 902912" d="M229.329,314.5V271.708H130.075V314.5a4.784,4.784,0,0,0,4.784,4.784h89.686A4.783,4.783,0,0,0,229.329,314.5Z" transform="translate(-130.075 -271.708)" fill="#fdb105"/>
            </g>
            <g id="Grupo_1107946" data-name="Grupo 1107946" transform="translate(5.519 19.173)">
              <path id="Trazado_902913" data-name="Trazado 902913" d="M135.594,260.011v11.7H223.5v-11.7a.711.711,0,0,0-.711-.711H136.3A.71.71,0,0,0,135.594,260.011Z" transform="translate(-135.594 -259.3)" fill="#fff"/>
              <g id="Grupo_1107945" data-name="Grupo 1107945" transform="translate(6.996 4.512)">
                <path id="Trazado_902914" data-name="Trazado 902914" d="M216.054,265.74v5.969H212.2V265.74a1.928,1.928,0,1,1,3.856,0Z" transform="translate(-142.59 -263.812)" fill="#d4c7e8" opacity="0.6"/>
                <path id="Trazado_902915" data-name="Trazado 902915" d="M207.353,265.74v5.969H203.5V265.74a1.928,1.928,0,1,1,3.856,0Z" transform="translate(-142.59 -263.812)" fill="#d4c7e8" opacity="0.6"/>
                <path id="Trazado_902916" data-name="Trazado 902916" d="M198.652,265.74v5.969H194.8V265.74a1.928,1.928,0,1,1,3.856,0Z" transform="translate(-142.59 -263.812)" fill="#d4c7e8" opacity="0.6"/>
                <path id="Trazado_902917" data-name="Trazado 902917" d="M189.951,265.74v5.969H186.1V265.74a1.928,1.928,0,1,1,3.856,0Z" transform="translate(-142.59 -263.812)" fill="#d4c7e8" opacity="0.6"/>
                <path id="Trazado_902918" data-name="Trazado 902918" d="M181.25,265.74v5.969h-3.856V265.74a1.928,1.928,0,1,1,3.856,0Z" transform="translate(-142.59 -263.812)" fill="#d4c7e8" opacity="0.6"/>
                <path id="Trazado_902919" data-name="Trazado 902919" d="M172.549,265.74v5.969h-3.856V265.74a1.928,1.928,0,1,1,3.856,0Z" transform="translate(-142.59 -263.812)" fill="#d4c7e8" opacity="0.6"/>
                <path id="Trazado_902920" data-name="Trazado 902920" d="M163.848,265.74v5.969h-3.856V265.74a1.928,1.928,0,1,1,3.856,0Z" transform="translate(-142.59 -263.812)" fill="#d4c7e8" opacity="0.6"/>
                <path id="Trazado_902921" data-name="Trazado 902921" d="M155.147,265.74v5.969h-3.856V265.74a1.928,1.928,0,1,1,3.856,0Z" transform="translate(-142.59 -263.812)" fill="#d4c7e8" opacity="0.6"/>
                <path id="Trazado_902922" data-name="Trazado 902922" d="M146.446,265.74v5.969H142.59V265.74a1.928,1.928,0,1,1,3.856,0Z" transform="translate(-142.59 -263.812)" fill="#d4c7e8" opacity="0.6"/>
              </g>
            </g>
          </g>
        </g>
        <g id="Grupo_1107952" data-name="Grupo 1107952" transform="translate(6.451 6.531)">
          <path id="Trazado_902923" data-name="Trazado 902923" d="M300.492,207.25v7.013H70.162V207.25a4.736,4.736,0,0,1,4.737-4.737H295.755A4.735,4.735,0,0,1,300.492,207.25Z" transform="translate(-70.162 -202.513)" fill="#d4c7e8" opacity="0.6"/>
          <g id="Grupo_1107951" data-name="Grupo 1107951" transform="translate(199.143 3.573)">
            <g id="Grupo_1107949" data-name="Grupo 1107949" transform="translate(8.514)">
              <circle id="Elipse_12229" data-name="Elipse 12229" cx="2.301" cy="2.301" r="2.301" fill="#fdb105"/>
            </g>
            <path id="Trazado_902924" data-name="Trazado 902924" d="M273.907,208.387a2.3,2.3,0,1,1-2.3-2.3A2.3,2.3,0,0,1,273.907,208.387Z" transform="translate(-269.305 -206.086)" fill="#7742c8"/>
            <g id="Grupo_1107950" data-name="Grupo 1107950" transform="translate(17.028)">
              <path id="Trazado_902925" data-name="Trazado 902925" d="M290.935,208.387a2.3,2.3,0,1,1-2.3-2.3A2.3,2.3,0,0,1,290.935,208.387Z" transform="translate(-286.333 -206.086)" fill="#fa3c64"/>
            </g>
          </g>
        </g>
      </g>
      <g id="Grupo_1107954" data-name="Grupo 1107954" transform="translate(94.362 163.413)">
        <rect id="Rect치ngulo_405156" data-name="Rect치ngulo 405156" width="49.893" height="44.052" fill="#18184b"/>
      </g>
      <path id="Trazado_902926" data-name="Trazado 902926" d="M236.606,412.75H129.434v-6.422a8.673,8.673,0,0,1,8.673-8.673h89.826a8.673,8.673,0,0,1,8.673,8.673v6.422Z" transform="translate(-63.711 -195.982)" fill="#2e3062"/>
      <g id="Grupo_1107958" data-name="Grupo 1107958" transform="translate(163.266 163.414)">
        <g id="Grupo_1107955" data-name="Grupo 1107955" transform="translate(22.318)">
          <path id="Trazado_902927" data-name="Trazado 902927" d="M262.229,362.212H250.913a1.618,1.618,0,0,1-1.618-1.618v-1.2h14.553v1.2A1.619,1.619,0,0,1,262.229,362.212Z" transform="translate(-249.295 -359.396)" fill="#18184b"/>
        </g>
        <g id="Grupo_1107956" data-name="Grupo 1107956" transform="translate(44.637)">
          <path id="Trazado_902928" data-name="Trazado 902928" d="M284.548,362.212H273.232a1.618,1.618,0,0,1-1.618-1.618v-1.2h14.553v1.2A1.62,1.62,0,0,1,284.548,362.212Z" transform="translate(-271.614 -359.396)" fill="#18184b"/>
        </g>
        <g id="Grupo_1107957" data-name="Grupo 1107957">
          <path id="Trazado_902929" data-name="Trazado 902929" d="M239.911,362.212H228.6a1.618,1.618,0,0,1-1.618-1.618v-1.2H241.53v1.2A1.62,1.62,0,0,1,239.911,362.212Z" transform="translate(-226.977 -359.396)" fill="#18184b"/>
        </g>
      </g>
    </g>
    <g id="Grupo_1107976" data-name="Grupo 1107976" transform="translate(302.513 214.263)">
      <g id="Grupo_1107961" data-name="Grupo 1107961" transform="translate(3.703)">
        <path id="Trazado_902930" data-name="Trazado 902930" d="M435.3,224.382V402.69a10.118,10.118,0,0,1-10.119,10.119H336.384a10.116,10.116,0,0,1-10.119-10.119V224.382a10.117,10.117,0,0,1,10.119-10.119h88.794A10.114,10.114,0,0,1,435.3,224.382Z" transform="translate(-326.265 -214.263)" fill="#2e3062"/>
        <g id="Grupo_1107960" data-name="Grupo 1107960" transform="translate(2.938 1.098)">
          <path id="Trazado_902931" data-name="Trazado 902931" d="M435.3,224.382V402.69a10.118,10.118,0,0,1-10.119,10.119H336.384a10.092,10.092,0,0,1-7.181-2.988l100.566-194.46A10.117,10.117,0,0,1,435.3,224.382Z" transform="translate(-329.203 -215.361)" fill="#18184b"/>
        </g>
      </g>
      <g id="Grupo_1107965" data-name="Grupo 1107965" transform="translate(0 26.78)">
        <g id="Grupo_1107962" data-name="Grupo 1107962">
          <path id="Trazado_902932" data-name="Trazado 902932" d="M326.264,264.6h-1.575a2.127,2.127,0,0,1-2.127-2.127v-19.3a2.127,2.127,0,0,1,2.127-2.127h1.575Z" transform="translate(-322.562 -241.043)" fill="#18184b"/>
        </g>
        <g id="Grupo_1107963" data-name="Grupo 1107963" transform="translate(112.735 3.507)">
          <path id="Trazado_902933" data-name="Trazado 902933" d="M435.3,263.731h1.289a1.74,1.74,0,0,0,1.74-1.74v-15.7a1.74,1.74,0,0,0-1.74-1.74H435.3Z" transform="translate(-435.297 -244.55)" fill="#18184b"/>
        </g>
        <g id="Grupo_1107964" data-name="Grupo 1107964" transform="translate(0 26.753)">
          <path id="Trazado_902934" data-name="Trazado 902934" d="M326.264,291.353h-1.575a2.127,2.127,0,0,1-2.127-2.127v-19.3a2.127,2.127,0,0,1,2.127-2.127h1.575Z" transform="translate(-322.562 -267.796)" fill="#18184b"/>
        </g>
      </g>
      <g id="Grupo_1107966" data-name="Grupo 1107966" transform="translate(8.749 5.047)">
        <path id="Trazado_902935" data-name="Trazado 902935" d="M430.249,223.941v179.19a4.632,4.632,0,0,1-4.631,4.631H335.942a4.63,4.63,0,0,1-4.631-4.631V223.941a4.631,4.631,0,0,1,4.631-4.631h89.676a4.631,4.631,0,0,1,4.631,4.631Z" transform="translate(-331.311 -219.31)" fill="#fff"/>
      </g>
      <g id="Grupo_1107969" data-name="Grupo 1107969" transform="translate(22.096 28.034)">
        <g id="Grupo_1107967" data-name="Grupo 1107967">
          <path id="Trazado_902936" data-name="Trazado 902936" d="M414.265,245.813H346.416a1.758,1.758,0,0,1-1.758-1.758h0a1.758,1.758,0,0,1,1.758-1.758h67.849a1.758,1.758,0,0,1,1.758,1.758h0A1.758,1.758,0,0,1,414.265,245.813Z" transform="translate(-344.658 -242.297)" fill="#d4c7e8" opacity="0.6"/>
          <path id="Trazado_902937" data-name="Trazado 902937" d="M414.265,257.684H346.416a1.758,1.758,0,0,1-1.758-1.758h0a1.758,1.758,0,0,1,1.758-1.758h67.849a1.758,1.758,0,0,1,1.758,1.758h0A1.758,1.758,0,0,1,414.265,257.684Z" transform="translate(-344.658 -242.297)" fill="#d4c7e8" opacity="0.6"/>
          <path id="Trazado_902938" data-name="Trazado 902938" d="M414.265,269.555H346.416a1.758,1.758,0,0,1-1.758-1.758h0a1.758,1.758,0,0,1,1.758-1.758h67.849a1.758,1.758,0,0,1,1.758,1.758h0A1.758,1.758,0,0,1,414.265,269.555Z" transform="translate(-344.658 -242.297)" fill="#d4c7e8" opacity="0.6"/>
        </g>
        <g id="Grupo_1107968" data-name="Grupo 1107968" transform="translate(0 113.382)">
          <path id="Trazado_902939" data-name="Trazado 902939" d="M414.265,359.2H346.416a1.758,1.758,0,0,1-1.758-1.758h0a1.758,1.758,0,0,1,1.758-1.758h67.849a1.758,1.758,0,0,1,1.758,1.758h0A1.758,1.758,0,0,1,414.265,359.2Z" transform="translate(-344.658 -355.679)" fill="#d4c7e8" opacity="0.6"/>
          <path id="Trazado_902940" data-name="Trazado 902940" d="M414.265,371.066H346.416a1.758,1.758,0,0,1-1.758-1.758h0a1.758,1.758,0,0,1,1.758-1.758h67.849a1.758,1.758,0,0,1,1.758,1.758h0A1.758,1.758,0,0,1,414.265,371.066Z" transform="translate(-344.658 -355.679)" fill="#d4c7e8" opacity="0.6"/>
          <path id="Trazado_902941" data-name="Trazado 902941" d="M414.265,382.937H346.416a1.758,1.758,0,0,1-1.758-1.758h0a1.758,1.758,0,0,1,1.758-1.758h67.849a1.758,1.758,0,0,1,1.758,1.758h0A1.758,1.758,0,0,1,414.265,382.937Z" transform="translate(-344.658 -355.679)" fill="#d4c7e8" opacity="0.6"/>
        </g>
      </g>
      <g id="Grupo_1107974" data-name="Grupo 1107974" transform="translate(22.095 64.674)">
        <path id="Trazado_902942" data-name="Trazado 902942" d="M417.641,291.235h-36.3l-10.672-6.193H352.915a3.661,3.661,0,0,0-3.661,3.661v49.815a3.44,3.44,0,0,0,3.44,3.44H417.18a3.437,3.437,0,0,0,3.44-3.44v-44.3A2.98,2.98,0,0,0,417.641,291.235Z" transform="translate(-344.657 -278.937)" fill="#d4c7e8" opacity="0.6"/>
        <g id="Grupo_1107973" data-name="Grupo 1107973">
          <path id="Trazado_902943" data-name="Trazado 902943" d="M366.067,278.937H348.318a3.661,3.661,0,0,0-3.661,3.661v47.568a5.686,5.686,0,0,0,5.686,5.686h62.239a3.44,3.44,0,0,0,3.44-3.44v-44.3a2.979,2.979,0,0,0-2.979-2.979h-36.3Z" transform="translate(-344.657 -278.937)" fill="#fd9200"/>
          <g id="Grupo_1107970" data-name="Grupo 1107970" transform="translate(0 22.708)">
            <path id="Trazado_902944" data-name="Trazado 902944" d="M416.023,332.413V301.645H344.657v30.768a3.44,3.44,0,0,0,3.44,3.44h64.486A3.44,3.44,0,0,0,416.023,332.413Z" transform="translate(-344.657 -301.645)" fill="#fdb105"/>
          </g>
          <g id="Grupo_1107972" data-name="Grupo 1107972" transform="translate(3.969 13.785)">
            <path id="Trazado_902945" data-name="Trazado 902945" d="M348.626,293.433v8.211h63.209v-8.211a.711.711,0,0,0-.711-.711H349.336A.712.712,0,0,0,348.626,293.433Z" transform="translate(-348.626 -292.722)" fill="#fff"/>
            <g id="Grupo_1107971" data-name="Grupo 1107971" transform="translate(5.03 3.244)">
              <path id="Trazado_902946" data-name="Trazado 902946" d="M406.478,297.353v4.292H403.7v-4.292a1.387,1.387,0,1,1,2.773,0Z" transform="translate(-353.656 -295.966)" fill="#d4c7e8" opacity="0.6"/>
              <path id="Trazado_902947" data-name="Trazado 902947" d="M400.222,297.353v4.292h-2.773v-4.292a1.387,1.387,0,1,1,2.773,0Z" transform="translate(-353.656 -295.966)" fill="#d4c7e8" opacity="0.6"/>
              <path id="Trazado_902948" data-name="Trazado 902948" d="M393.966,297.353v4.292h-2.773v-4.292a1.387,1.387,0,1,1,2.773,0Z" transform="translate(-353.656 -295.966)" fill="#d4c7e8" opacity="0.6"/>
              <path id="Trazado_902949" data-name="Trazado 902949" d="M387.71,297.353v4.292h-2.773v-4.292a1.387,1.387,0,1,1,2.773,0Z" transform="translate(-353.656 -295.966)" fill="#d4c7e8" opacity="0.6"/>
              <path id="Trazado_902950" data-name="Trazado 902950" d="M381.454,297.353v4.292h-2.773v-4.292a1.387,1.387,0,1,1,2.773,0Z" transform="translate(-353.656 -295.966)" fill="#d4c7e8" opacity="0.6"/>
              <path id="Trazado_902951" data-name="Trazado 902951" d="M375.2,297.353v4.292h-2.773v-4.292a1.387,1.387,0,1,1,2.773,0Z" transform="translate(-353.656 -295.966)" fill="#d4c7e8" opacity="0.6"/>
              <path id="Trazado_902952" data-name="Trazado 902952" d="M368.942,297.353v4.292h-2.773v-4.292a1.387,1.387,0,1,1,2.773,0Z" transform="translate(-353.656 -295.966)" fill="#d4c7e8" opacity="0.6"/>
              <path id="Trazado_902953" data-name="Trazado 902953" d="M362.685,297.353v4.292h-2.773v-4.292a1.387,1.387,0,1,1,2.773,0Z" transform="translate(-353.656 -295.966)" fill="#d4c7e8" opacity="0.6"/>
              <path id="Trazado_902954" data-name="Trazado 902954" d="M356.429,297.353v4.292h-2.773v-4.292a1.387,1.387,0,1,1,2.773,0Z" transform="translate(-353.656 -295.966)" fill="#d4c7e8" opacity="0.6"/>
            </g>
          </g>
        </g>
      </g>
      <g id="Grupo_1107975" data-name="Grupo 1107975" transform="translate(29.699 3.7)">
        <path id="Trazado_902955" data-name="Trazado 902955" d="M410.774,219.147l-4.125,6.276a6.222,6.222,0,0,1-5.2,2.8H361.586a6.221,6.221,0,0,1-5.2-2.8l-4.125-6.276a1.188,1.188,0,0,1,1.184-1.184h56.146A1.189,1.189,0,0,1,410.774,219.147Z" transform="translate(-352.261 -217.963)" fill="#2e3062"/>
        <path id="Trazado_902956" data-name="Trazado 902956" d="M395.971,223.685H360.74a.727.727,0,0,1-.725-.725v-1.074a.727.727,0,0,1,.725-.725h35.231a.727.727,0,0,1,.725.725v1.074A.727.727,0,0,1,395.971,223.685Z" transform="translate(-352.261 -217.963)" fill="#d4c7e8" opacity="0.4"/>
        <path id="Trazado_902957" data-name="Trazado 902957" d="M403.392,222.339a1.514,1.514,0,1,1-1.514-1.514A1.514,1.514,0,0,1,403.392,222.339Z" transform="translate(-352.261 -217.963)" fill="#d4c7e8" opacity="0.4"/>
      </g>
    </g>
    <g id="Grupo_1107985" data-name="Grupo 1107985" transform="translate(275.337 355.679)">
      <g id="Grupo_1107982" data-name="Grupo 1107982">
        <g id="Grupo_1107981" data-name="Grupo 1107981">
          <g id="Grupo_1107980" data-name="Grupo 1107980">
            <g id="Grupo_1107977" data-name="Grupo 1107977">
              <path id="Trazado_902958" data-name="Trazado 902958" d="M318.073,418.774l-.077.019c-34.516-7.888-28.927-50.623-28.927-50.623L318,355.679l.077.033,28.85,12.458S352.5,410.84,318.073,418.774Z" transform="translate(-288.735 -355.679)" fill="#2e3062"/>
              <path id="Trazado_902959" data-name="Trazado 902959" d="M345.227,391.2c-2.094,7.95-6.231,16.27-14.2,21.916a36.157,36.157,0,0,1-12.954,5.66V355.71l28.849,12.457A66.926,66.926,0,0,1,345.227,391.2Z" transform="translate(-288.735 -355.679)" opacity="0.2"/>
            </g>
            <g id="Grupo_1107978" data-name="Grupo 1107978" transform="translate(4.279 4.655)">
              <path id="Trazado_902960" data-name="Trazado 902960" d="M341.2,389.708c-3.392,13.32-11.2,21.62-23.2,24.69-12.008-3.07-19.812-11.37-23.2-24.69a63.853,63.853,0,0,1-1.68-18.628L318,360.334,342.88,371.08A63.8,63.8,0,0,1,341.2,389.708Z" transform="translate(-293.014 -360.334)" fill="#7742c8"/>
            </g>
            <g id="Grupo_1107979" data-name="Grupo 1107979" transform="translate(29.261 4.655)">
              <path id="Trazado_902961" data-name="Trazado 902961" d="M341.2,389.708c-3.392,13.32-11.2,21.62-23.2,24.69V360.334L342.88,371.08A63.8,63.8,0,0,1,341.2,389.708Z" transform="translate(-317.996 -360.334)" fill="#5c17b0"/>
            </g>
          </g>
        </g>
      </g>
      <path id="Trazado_902962" data-name="Trazado 902962" d="M345.227,391.2c-2.094,7.95-6.231,16.27-14.2,21.916L318.8,400.889l-.73-.73-.525-.524-3.763-3.763-7.088-7.084,3.23-3.229,3.859,3.863,14.833-14.833,16.306,16.306Z" transform="translate(-288.735 -355.679)" opacity="0.1"/>
      <g id="Grupo_1107984" data-name="Grupo 1107984" transform="translate(17.966 18.91)">
        <g id="Grupo_1107983" data-name="Grupo 1107983">
          <path id="Trazado_902963" data-name="Trazado 902963" d="M313.787,395.873l-7.086-7.087,3.225-3.224,3.861,3.86,14.834-14.833,3.225,3.225Z" transform="translate(-306.701 -374.589)" fill="#fdb105"/>
        </g>
      </g>
    </g>
    <g id="Grupo_1107988" data-name="Grupo 1107988" transform="translate(36.584 362.212)">
      <g id="Grupo_1107986" data-name="Grupo 1107986" transform="translate(0 16.506)">
        <path id="Trazado_902964" data-name="Trazado 902964" d="M81.817,378.718H41.265a4.682,4.682,0,0,0-4.681,4.678V414.07a4.683,4.683,0,0,0,4.681,4.681H81.816a4.68,4.68,0,0,0,4.678-4.681V383.4A4.679,4.679,0,0,0,81.817,378.718Z" transform="translate(-36.584 -378.718)" fill="#fdb105"/>
      </g>
      <path id="Trazado_902965" data-name="Trazado 902965" d="M61.409,389.777c-.109.005-.217.013-.324.025l-.047.006c-.1.013-.208.027-.31.046l-.051.01c-.1.019-.2.041-.3.066l-.055.015c-.1.026-.192.053-.286.084l-.055.019c-.093.032-.185.065-.276.1l-.054.023c-.09.038-.178.077-.265.119l-.055.028c-.086.043-.17.087-.253.135l-.054.033c-.082.048-.163.1-.241.15-.018.012-.034.025-.052.036-.078.053-.155.108-.23.165l-.051.042c-.073.058-.146.116-.215.178l-.053.049c-.068.061-.135.123-.2.188-.019.019-.037.04-.055.059-.061.063-.122.127-.18.193-.021.024-.041.05-.061.075-.054.064-.107.127-.158.194-.022.029-.042.06-.064.09-.047.064-.094.127-.137.193-.025.037-.047.077-.071.115-.038.06-.076.12-.112.182s-.067.127-.1.191c-.02.039-.042.077-.062.117a5.139,5.139,0,0,0-.281.72,5.2,5.2,0,0,0,1.305,5.228c.024.024.051.044.075.067a5.153,5.153,0,0,0,.825.644h0l-.953,3.986-1.226,5.128h9.359l-2.117-8.856a5.18,5.18,0,0,0,2.338-7,5.182,5.182,0,0,0-4.644-2.861l-.1,0h-.025C61.5,389.77,61.453,389.775,61.409,389.777Z" transform="translate(-36.584 -362.212)" fill="#e96b12"/>
      <path id="Trazado_902966" data-name="Trazado 902966" d="M81.817,378.718H61.438v6.051a13.709,13.709,0,1,0,0,27.418v6.566H81.817a4.68,4.68,0,0,0,4.678-4.681V383.4A4.68,4.68,0,0,0,81.817,378.718ZM66.09,408.481H56.731l1.225-5.128.954-3.988a5.125,5.125,0,0,1-.826-.645c-.023-.023-.051-.042-.074-.065a5.18,5.18,0,0,1-1.149-1.724,5.156,5.156,0,0,1-.155-3.506,5.4,5.4,0,0,1,.28-.719c.02-.04.042-.077.062-.119.034-.062.065-.127.1-.19s.076-.122.113-.181c.023-.04.045-.079.071-.116.042-.065.091-.13.136-.192.023-.031.042-.059.065-.091.051-.065.1-.13.159-.192l.059-.076c.06-.065.119-.13.181-.193.02-.02.037-.04.057-.059.062-.065.13-.125.2-.187.017-.017.034-.034.051-.048.071-.062.144-.122.218-.178l.051-.042c.074-.057.153-.11.229-.164a.541.541,0,0,1,.051-.037c.079-.054.161-.1.243-.15l.054-.034c.082-.048.167-.09.252-.136.02-.009.037-.02.054-.028.088-.042.176-.082.266-.119.02-.008.037-.017.054-.023.09-.037.184-.071.277-.1a.286.286,0,0,1,.054-.02c.093-.031.189-.059.286-.085a.54.54,0,0,1,.054-.014c.1-.025.2-.048.3-.065a.231.231,0,0,1,.051-.011c.1-.02.207-.034.311-.045a.232.232,0,0,1,.045-.006c.108-.014.215-.02.325-.025l.028,0c.034,0,.071-.006.1-.006h.023c.034,0,.068,0,.1,0a5.2,5.2,0,0,1,2.307,9.861Z" transform="translate(-36.584 -362.212)" fill="#fd9200"/>
      <path id="Trazado_902967" data-name="Trazado 902967" d="M79.833,378.719h-5.5a12.743,12.743,0,0,0-1.9-5.068,12.93,12.93,0,0,0-10.771-5.977c-.037,0-.079,0-.125,0a12.943,12.943,0,0,0-12.794,11.048h-5.5a18.055,18.055,0,0,1,1.259-5.068,18.435,18.435,0,0,1,17.031-11.439h.125a18.379,18.379,0,0,1,18.166,16.507Z" transform="translate(-36.584 -362.212)" fill="#2e3062"/>
      <g id="Grupo_1107987" data-name="Grupo 1107987" transform="translate(10.219 3.3)">
        <path id="Trazado_902968" data-name="Trazado 902968" d="M76.071,378.719H74.336a12.743,12.743,0,0,0-1.9-5.068,12.93,12.93,0,0,0-10.771-5.977c-.037,0-.079,0-.125,0a12.943,12.943,0,0,0-12.794,11.048H46.8a14.534,14.534,0,0,1,1.01-4.055,14.747,14.747,0,0,1,13.624-9.152h.1a14.744,14.744,0,0,1,13.519,9.152A14.485,14.485,0,0,1,76.071,378.719Z" transform="translate(-46.803 -365.512)" fill="#18184b"/>
      </g>
    </g>
    <g id="Grupo_1107997" data-name="Grupo 1107997" transform="translate(162.831 172.066)">
      <g id="Grupo_1107991" data-name="Grupo 1107991" transform="translate(131.852 143.287)">
        <g id="Grupo_1107989" data-name="Grupo 1107989" transform="translate(0 2.35)">
          <rect id="Rect치ngulo_405157" data-name="Rect치ngulo 405157" width="19.322" height="3.164" fill="#7742c8"/>
        </g>
        <g id="Grupo_1107990" data-name="Grupo 1107990" transform="translate(6.366)">
          <path id="Trazado_902969" data-name="Trazado 902969" d="M321.172,319.285a3.932,3.932,0,1,1-3.932-3.932A3.932,3.932,0,0,1,321.172,319.285Z" transform="translate(-313.308 -315.353)" fill="#5c17b0"/>
        </g>
      </g>
      <g id="Grupo_1107996" data-name="Grupo 1107996">
        <g id="Grupo_1107992" data-name="Grupo 1107992" transform="translate(2.349 2.346)">
          <path id="Trazado_902970" data-name="Trazado 902970" d="M381.437,175.994v38.27h-3.165V177.576H180.6v18.407h-3.165V175.994a1.582,1.582,0,0,1,1.582-1.582H379.853A1.582,1.582,0,0,1,381.437,175.994Z" transform="translate(-177.439 -174.412)" fill="#7742c8"/>
        </g>
        <g id="Grupo_1107993" data-name="Grupo 1107993">
          <path id="Trazado_902971" data-name="Trazado 902971" d="M182.954,176a3.932,3.932,0,1,1-3.932-3.932A3.932,3.932,0,0,1,182.954,176Z" transform="translate(-175.09 -172.066)" fill="#5c17b0"/>
        </g>
        <g id="Grupo_1107994" data-name="Grupo 1107994" transform="translate(200.834)">
          <path id="Trazado_902972" data-name="Trazado 902972" d="M383.788,176a3.932,3.932,0,1,1-3.932-3.932A3.932,3.932,0,0,1,383.788,176Z" transform="translate(-375.924 -172.066)" fill="#5c17b0"/>
        </g>
        <g id="Grupo_1107995" data-name="Grupo 1107995" transform="translate(100.417)">
          <path id="Trazado_902973" data-name="Trazado 902973" d="M283.371,176a3.932,3.932,0,1,1-3.932-3.932A3.932,3.932,0,0,1,283.371,176Z" transform="translate(-275.507 -172.066)" fill="#5c17b0"/>
        </g>
      </g>
    </g>
    <g id="Grupo_1107998" data-name="Grupo 1107998" transform="translate(96.785 77.533)">
      <path id="Trazado_902974" data-name="Trazado 902974" d="M339.986,138.113a5.2,5.2,0,0,1-5.175,5.181H224.065a5.172,5.172,0,0,1-3.651-8.838,5.12,5.12,0,0,1,3.651-1.524H229.3a13.5,13.5,0,0,1,21.972-4.183,18.75,18.75,0,0,1,21.607-8.443,21.435,21.435,0,0,1,39.593,4.326,13.5,13.5,0,0,1,19.007,8.3h3.335A5.193,5.193,0,0,1,339.986,138.113Z" transform="translate(-116.834 -77.533)" fill="#e1d7f4"/>
      <path id="Trazado_902975" data-name="Trazado 902975" d="M205.888,99a3.826,3.826,0,0,1-3.8,3.81H120.639a3.819,3.819,0,0,1-3.805-3.81,3.828,3.828,0,0,1,3.806-3.81h3.85a9.928,9.928,0,0,1,16.158-3.077,13.792,13.792,0,0,1,15.89-6.209,15.763,15.763,0,0,1,29.117,3.181,9.931,9.931,0,0,1,13.979,6.1h2.452A3.82,3.82,0,0,1,205.888,99Z" transform="translate(-116.834 -77.533)" fill="#e1d7f4"/>
      <path id="Trazado_902976" data-name="Trazado 902976" d="M448.233,124.285a3.827,3.827,0,0,1-3.806,3.81H362.983a3.82,3.82,0,0,1-3.806-3.81,3.828,3.828,0,0,1,3.806-3.81h3.849A9.929,9.929,0,0,1,382.99,117.4a13.792,13.792,0,0,1,15.89-6.209A15.763,15.763,0,0,1,428,114.37a9.931,9.931,0,0,1,13.979,6.1h2.452A3.82,3.82,0,0,1,448.233,124.285Z" transform="translate(-116.834 -77.533)" fill="#e1d7f4"/>
    </g>
  </g>
</svg>
