<svg xmlns="http://www.w3.org/2000/svg" width="820" height="365" viewBox="0 0 820 365">
  <g id="Grupo_1108601" data-name="Grupo 1108601" transform="translate(-390 -11289)">
    <g id="Grupo_1108326" data-name="Grupo 1108326" transform="translate(390 11289)">
      <path id="Rect치ngulo_389225" data-name="Rect치ngulo 389225" d="M9,0H811a9,9,0,0,1,9,9V55a0,0,0,0,1,0,0H0a0,0,0,0,1,0,0V9A9,9,0,0,1,9,0Z" transform="translate(0)" fill="#3a1d71"/>
      <path id="Rect치ngulo_389226" data-name="Rect치ngulo 389226" d="M0,0H820a0,0,0,0,1,0,0V301a9,9,0,0,1-9,9H9a9,9,0,0,1-9-9V0A0,0,0,0,1,0,0Z" transform="translate(0 55)" fill="#110628"/>
      <circle id="Elipse_11380" data-name="Elipse 11380" cx="8" cy="8" r="8" transform="translate(32 19)" fill="#fb130d"/>
      <circle id="Elipse_11381" data-name="Elipse 11381" cx="8" cy="8" r="8" transform="translate(67 19)" fill="#fecd02"/>
      <circle id="Elipse_11382" data-name="Elipse 11382" cx="8" cy="8" r="8" transform="translate(102 19)" fill="#43dfaa"/>
    </g>
    <text id="root_ubuntu-VirtualBox:_home_ubuntuser_repositorioremoto_git_push_-u_origin_main_Username_for_https:_gitlab.com_:_prueba237_Password_for_https:_prueba237_gitlab.com_:_Enumerando_objetos:_3_listo._Contando_objetos:_100_3_3_listo._Escribiendo_objet" data-name="root@ubuntu-VirtualBox:/home/ubuntuser/repositorioremoto# git push -u origin main
Username for &apos;https://gitlab.com&apos;: prueba237
Password for &apos;https://prueba237@gitlab.com&apos;:
Enumerando objetos: 3, listo.
Contando objetos: 100% (3/3), listo.
Escribiendo objet" transform="translate(422 11380)" fill="#fff" font-size="16" font-family="Roboto-Regular, Roboto"><tspan x="0" y="15">root@ubuntu-VirtualBox:/home/ubuntuser/repositorioremoto# git push -u origin main</tspan><tspan x="0" y="38">Username </tspan><tspan y="38" fill="#8722e2">for</tspan><tspan y="38"> </tspan><tspan y="38" fill="#00ffdf">&apos;https://gitlab.com&apos;</tspan><tspan y="38">: prueba237</tspan><tspan x="0" y="61">Password</tspan><tspan y="61" xml:space="preserve" fill="#8722e2"> for</tspan><tspan y="61"> </tspan><tspan y="61" fill="#00ffdf">&apos;https://prueba237@gitlab.com&apos;</tspan><tspan y="61">:</tspan><tspan x="0" y="84">Enumerando objetos: 3, listo.</tspan><tspan x="0" y="107">Contando objetos: 100% (3/3), listo.</tspan><tspan x="0" y="130">Escribiendo objetos: 100% (3/3), 230 bytes | 57.00 KiB/s, listo.</tspan><tspan x="0" y="153">Total 3 (delta 0), reusado 0 (delta 0)</tspan><tspan x="0" y="176">To https://gitlab.com/prueba237/repositorioremoto.git</tspan><tspan x="0" y="199" xml:space="preserve"> * [new branch]      main -&gt; main</tspan><tspan x="0" y="222">Rama </tspan><tspan y="222" fill="#00ffdf">&apos;main&apos;</tspan><tspan y="222" xml:space="preserve"> configurada para hacer seguimiento a la rama remota</tspan><tspan y="222" xml:space="preserve" fill="#00ffdf"> &apos;main</tspan><tspan y="222">&apos; de</tspan><tspan y="222" xml:space="preserve" fill="#00ffdf"> &apos;origin&apos;</tspan><tspan y="222">.</tspan><tspan x="0" y="245"></tspan></text>
  </g>
</svg>
